<?xml version="1.0" encoding="UTF-8" standalone="no"?>
<svg
   width="100"
   height="100"
   viewBox="0 0 100 100"
   fill="none"
   version="1.1"
   id="svg1"
   sodipodi:docname="crazygames.svg"
   inkscape:version="1.3.2 (091e20e, 2023-11-25)"
   xmlns:inkscape="http://www.inkscape.org/namespaces/inkscape"
   xmlns:sodipodi="http://sodipodi.sourceforge.net/DTD/sodipodi-0.dtd"
   xmlns="http://www.w3.org/2000/svg"
   xmlns:svg="http://www.w3.org/2000/svg">
  <sodipodi:namedview
     id="namedview1"
     pagecolor="#505050"
     bordercolor="#eeeeee"
     borderopacity="1"
     inkscape:showpageshadow="0"
     inkscape:pageopacity="0"
     inkscape:pagecheckerboard="0"
     inkscape:deskcolor="#505050"
     inkscape:zoom="2.36"
     inkscape:cx="44.70339"
     inkscape:cy="49.788136"
     inkscape:window-width="1280"
     inkscape:window-height="772"
     inkscape:window-x="0"
     inkscape:window-y="28"
     inkscape:window-maximized="0"
     inkscape:current-layer="svg1" />
  <defs
     id="defs1" />
  <path
     fill-rule="evenodd"
     clip-rule="evenodd"
     d="M 86.563819,28.446636 C 86.715185,21.999961 86.336726,10.765588 82.249227,6.0788119 80.009856,3.5114972 74.68604,7.8071799 71.241912,11.125137 65.5332,8.3433523 58.518791,6.9745346 49.990547,6.9745346 c -8.528333,0 -15.536394,1.3751209 -21.238758,4.1506024 C 25.301403,7.8071799 19.983845,3.5178004 17.74451,6.0851204 13.663296,10.765588 13.278516,21.962142 13.429899,28.415076 c -1.835601,5.046386 -2.775472,10.937935 -2.775472,17.662219 0,14.142274 4.04968,24.613417 12.029145,31.16738 5.37442,4.402926 12.395087,6.938681 21.339699,7.701947 -0.412881,0.20644 -0.831662,0.410914 -1.255987,0.618069 l -0.0013,6.26e-4 -3.58e-4,1.79e-4 c -0.651239,0.31793 -1.315352,0.642209 -1.990999,0.989643 l -3.242248,1.589563 -1.841869,0.902025 c -0.529556,0.276983 -1.064119,0.544398 -1.605745,0.81548 l -2.69e-4,1.78e-4 c -1.284328,0.642656 -2.60871,1.305429 -4.001757,2.161677 l -0.485747,0.258654 c -0.13876,0.10094 -0.271171,0.27126 -0.296473,0.460445 -0.06303,0.359594 0.183015,0.700234 0.54252,0.750659 0.533311,0.0802 1.064924,0.167549 1.596626,0.254899 h 2.68e-4 c 1.266626,0.208139 2.533163,0.416189 3.821604,0.527232 l 1.362469,0.151455 c 0.447928,0.05043 0.902025,0.08824 1.36256,0.113547 l 2.737635,0.151365 c 3.664873,0.06294 7.355049,-0.138759 11.013574,-0.71284 3.652267,-0.548779 7.241502,-1.570609 10.691888,-2.989941 3.437869,-1.419244 6.717936,-3.26746 9.689012,-5.519349 5.891549,-4.573246 10.521568,-10.729796 13.278069,-17.59275 1.009313,-2.485329 1.759972,-5.065251 2.302403,-7.683082 1.091299,-4.201045 1.646426,-8.906792 1.646426,-14.117061 0,-6.70533 -0.933586,-12.584272 -2.762938,-17.624311 z m -36.57962,42.584716 c -15.07586,0 -25.11177,-4.238955 -25.11177,-24.960405 0,-9.770909 2.239371,-16.387905 6.856695,-20.185279 3.898314,-3.217034 9.878197,-4.775126 18.255075,-4.775126 8.376968,0 14.356851,1.570698 18.255165,4.775126 4.604717,3.791027 6.856695,10.395416 6.856695,20.185279 0,20.72145 -10.03591,24.960405 -25.11186,24.960405 z M 41.973263,40.765996 c 0,-1.860823 1.236317,-3.43778 2.933168,-3.967694 -0.933586,-0.864117 -2.182598,-1.394031 -3.557675,-1.394031 -2.882742,0 -5.241919,2.346571 -5.241919,5.210359 v 10.420628 c 0,2.863788 2.359177,5.210359 5.241919,5.210359 2.882743,0 5.24183,-2.340223 5.24183,-5.210359 V 44.90401 c -0.145017,0.01261 -0.290125,0.02521 -0.435232,0.02521 -2.315009,0 -4.188439,-1.860823 -4.188439,-4.156878 z m 19.832032,-4.276773 c -1.608517,0.580339 -2.75659,2.10687 -2.75659,3.904662 v 0.0063 c 0,2.296056 1.87343,4.156879 4.188439,4.156879 0.214487,0 0.422626,-0.01886 0.624507,-0.05043 v 6.528662 c 0,2.870136 -2.359177,5.210359 -5.241919,5.210359 -2.882654,0 -5.24183,-2.346571 -5.24183,-5.210359 V 40.61463 c 0,-2.863788 2.359176,-5.210359 5.24183,-5.210359 1.198497,0 2.302403,0.41002 3.185563,1.084952 z"
     fill="#0C0D14"
     id="path1"
     style="fill:#9664e6;fill-opacity:1;stroke-width:0.894068" />
</svg>
