<?xml version="1.0" encoding="UTF-8" standalone="no"?>
<!-- Uploaded to: SVG Repo, www.svgrepo.com, Transformed by: SVG Repo Mixer Tools -->

<svg
   fill="#fff"
   width="800px"
   height="800px"
   viewBox="0 0 32 32"
   stroke="#fff"
   version="1.1"
   id="svg1"
   sodipodi:docname="itch.svg"
   inkscape:version="1.3.2 (091e20e, 2023-11-25)"
   xmlns:inkscape="http://www.inkscape.org/namespaces/inkscape"
   xmlns:sodipodi="http://sodipodi.sourceforge.net/DTD/sodipodi-0.dtd"
   xmlns="http://www.w3.org/2000/svg"
   xmlns:svg="http://www.w3.org/2000/svg">
  <defs
     id="defs1" />
  <sodipodi:namedview
     id="namedview1"
     pagecolor="#505050"
     bordercolor="#eeeeee"
     borderopacity="1"
     inkscape:showpageshadow="0"
     inkscape:pageopacity="0"
     inkscape:pagecheckerboard="0"
     inkscape:deskcolor="#505050"
     inkscape:zoom="0.15311995"
     inkscape:cx="-81.635345"
     inkscape:cy="9.7962414"
     inkscape:window-width="1280"
     inkscape:window-height="800"
     inkscape:window-x="0"
     inkscape:window-y="0"
     inkscape:window-maximized="0"
     inkscape:current-layer="svg1" />
  <g
     id="SVGRepo_iconCarrier"
     transform="matrix(0.93171401,0,0,0.93171401,1.0897807,1.0958368)">
    <path
       d="M 4.172,1.787 C 2.776,2.615 0.027,5.771 0,6.599 v 1.375 c 0,1.735 1.625,3.267 3.099,3.267 1.771,0 3.251,-1.469 3.251,-3.213 0,1.744 1.421,3.213 3.197,3.213 1.771,0 3.151,-1.469 3.151,-3.213 0,1.744 1.516,3.213 3.287,3.213 h 0.032 c 1.776,0 3.291,-1.469 3.291,-3.213 0,1.744 1.381,3.213 3.152,3.213 1.771,0 3.197,-1.469 3.197,-3.213 0,1.744 1.475,3.213 3.245,3.213 1.479,0 3.104,-1.532 3.104,-3.267 V 6.599 C 31.974,5.771 29.23,2.615 27.829,1.787 23.49,1.631 20.485,1.604 16.006,1.604 11.522,1.609 5.413,1.677 4.178,1.787 Z m 8.505,8.634 c -0.183,0.308 -0.385,0.568 -0.625,0.797 v 0.005 C 11.38,11.874 10.464,12.28 9.453,12.28 8.437,12.28 7.521,11.873 6.854,11.217 6.609,10.982 6.426,10.728 6.254,10.43 6.087,10.727 5.854,10.982 5.609,11.217 4.937,11.873 4.021,12.28 3.01,12.28 c 0,0 0,0 -0.005,0 -0.12,0 -0.245,-0.036 -0.349,-0.073 -0.14,1.485 -0.203,2.901 -0.224,3.937 v 0.005 c -0.005,0.527 -0.005,0.953 -0.011,1.552 0.032,3.115 -0.307,10.089 1.376,11.803 2.604,0.604 7.396,0.88 12.197,0.885 h 0.005 c 4.807,-0.005 9.593,-0.281 12.197,-0.885 1.683,-1.713 1.344,-8.688 1.376,-11.803 -0.005,-0.599 -0.005,-1.025 -0.011,-1.552 v -0.005 c -0.021,-1.036 -0.079,-2.452 -0.224,-3.937 -0.099,0.037 -0.229,0.073 -0.349,0.073 0,0 -0.005,0 -0.005,0 -1.011,0 -1.927,-0.407 -2.599,-1.063 h 0.005 C 26.144,10.982 25.91,10.728 25.744,10.43 h -0.005 c -0.167,0.297 -0.355,0.552 -0.595,0.787 -0.667,0.656 -1.583,1.063 -2.599,1.063 -1.011,0 -1.927,-0.407 -2.599,-1.063 -0.24,-0.229 -0.443,-0.495 -0.615,-0.787 L 19.32,10.414 c -0.172,0.308 -0.38,0.573 -0.615,0.803 -0.672,0.656 -1.588,1.063 -2.599,1.063 0,0 -0.005,0 -0.005,0 -0.031,0 -0.068,0 -0.104,-0.005 -0.036,0.005 -0.073,0.005 -0.109,0.005 0,0 0,0 -0.005,0 -1.011,0 -1.927,-0.407 -2.593,-1.063 -0.24,-0.229 -0.443,-0.495 -0.609,-0.787 L 12.67,10.414 Z m -2.672,3.454 c 1.057,0.005 1.995,0 3.161,1.271 0.916,-0.093 1.875,-0.14 2.833,-0.14 0.958,0 1.917,0.047 2.833,0.14 1.167,-1.271 2.104,-1.271 3.161,-1.271 h 0.005 c 0.5,0 2.5,0 3.891,3.912 l 1.495,5.369 c 1.109,3.995 -0.355,4.095 -2.177,4.095 -2.708,-0.1 -4.208,-2.068 -4.208,-4.037 -1.5,0.251 -3.251,0.371 -5,0.371 -1.749,0 -3.5,-0.12 -4.995,-0.371 0,1.969 -1.5,3.937 -4.208,4.037 -1.828,-0.005 -3.292,-0.1 -2.183,-4.095 l 1.495,-5.369 c 1.396,-3.912 3.396,-3.912 3.896,-3.912 z M 16,16.953 c -0.005,0 -2.849,2.62 -3.364,3.547 L 14.5,20.427 v 1.625 c 0,0.079 0.751,0.047 1.5,0.011 0.749,0.036 1.495,0.068 1.495,-0.011 V 20.427 L 19.364,20.5 C 18.849,19.573 16,16.953 16,16.953 Z"
       id="path1"
       style="stroke-width:0.04293163;stroke-dasharray:none;fill:#f05064;fill-opacity:1;stroke:#f05064;stroke-opacity:1" />
  </g>
</svg>
