<?xml version="1.0" encoding="UTF-8" standalone="no"?>
<!-- Uploaded to: SVG Repo, www.svgrepo.com, Transformed by: SVG Repo Mixer Tools -->

<svg
   fill="#ffffff"
   width="800"
   height="800"
   viewBox="0 0 100 100"
   version="1.1"
   stroke="#ffffff"
   id="svg1"
   sodipodi:docname="telegram.svg"
   inkscape:version="1.3.2 (091e20e, 2023-11-25)"
   xmlns:inkscape="http://www.inkscape.org/namespaces/inkscape"
   xmlns:sodipodi="http://sodipodi.sourceforge.net/DTD/sodipodi-0.dtd"
   xmlns="http://www.w3.org/2000/svg"
   xmlns:svg="http://www.w3.org/2000/svg">
  <defs
     id="defs1" />
  <sodipodi:namedview
     id="namedview1"
     pagecolor="#505050"
     bordercolor="#eeeeee"
     borderopacity="1"
     inkscape:showpageshadow="0"
     inkscape:pageopacity="0"
     inkscape:pagecheckerboard="0"
     inkscape:deskcolor="#505050"
     inkscape:zoom="0.15441352"
     inkscape:cx="38.856701"
     inkscape:cy="673.51615"
     inkscape:window-width="1280"
     inkscape:window-height="711"
     inkscape:window-x="0"
     inkscape:window-y="0"
     inkscape:window-maximized="1"
     inkscape:current-layer="svg1" />
  <g
     id="SVGRepo_bgCarrier"
     stroke-width="0"
     transform="matrix(2.950951,0,0,2.950951,2.8880673,2.5339532)" />
  <g
     id="SVGRepo_tracerCarrier"
     stroke-linecap="round"
     stroke-linejoin="round"
     transform="matrix(2.950951,0,0,2.950951,2.8880673,2.5339532)" />
  <g
     id="SVGRepo_iconCarrier"
     transform="matrix(2.950951,0,0,2.950951,2.8880673,2.5339532)">
    <title
       id="title1">telegram</title>
    <path
       d="m 22.122,10.04 c 0.006,0 0.014,0 0.022,0 0.209,0 0.403,0.065 0.562,0.177 l -0.003,-0.002 c 0.116,0.101 0.194,0.243 0.213,0.403 v 0.003 c 0.02,0.122 0.031,0.262 0.031,0.405 0,0.065 -0.002,0.129 -0.007,0.193 V 11.21 c -0.225,2.369 -1.201,8.114 -1.697,10.766 -0.21,1.123 -0.623,1.499 -1.023,1.535 -0.869,0.081 -1.529,-0.574 -2.371,-1.126 -1.318,-0.865 -2.063,-1.403 -3.342,-2.246 -1.479,-0.973 -0.52,-1.51 0.322,-2.384 0.221,-0.23 4.052,-3.715 4.127,-4.031 0.004,-0.019 0.006,-0.04 0.006,-0.062 0,-0.078 -0.029,-0.149 -0.076,-0.203 v 0 c -0.052,-0.034 -0.117,-0.053 -0.185,-0.053 -0.045,0 -0.088,0.009 -0.128,0.024 l 0.002,-10e-4 q -0.198,0.045 -6.316,4.174 c -0.445,0.351 -1.007,0.573 -1.619,0.599 H 10.634 C 9.767,18.097 8.98,17.904 8.233,17.629 l 0.074,0.024 C 7.369,17.347 6.624,17.186 6.688,16.668 q 0.051,-0.404 1.114,-0.827 6.548,-2.853 8.733,-3.761 c 1.607,-0.853 3.47,-1.555 5.429,-2.01 l 0.157,-0.031 z M 15.93,1.025 C 7.628,1.045 0.905,7.78 0.905,16.085 c 0,8.317 6.742,15.06 15.06,15.06 8.318,0 15.06,-6.742 15.06,-15.06 0,-8.305 -6.723,-15.04 -15.023,-15.06 H 16 q -0.035,0 -0.07,0 z"
       id="path1" />
  </g>
</svg>
