<?xml version="1.0" encoding="UTF-8" standalone="no"?>
<!-- Uploaded to: SVG Repo, www.svgrepo.com, Transformed by: SVG Repo Mixer Tools -->

<svg
   fill="#fff"
   width="800px"
   height="800px"
   viewBox="0 0 32 32"
   version="1.1"
   stroke="#fff"
   id="svg1"
   sodipodi:docname="vkplay.svg"
   inkscape:version="1.3.2 (091e20e, 2023-11-25)"
   xmlns:inkscape="http://www.inkscape.org/namespaces/inkscape"
   xmlns:sodipodi="http://sodipodi.sourceforge.net/DTD/sodipodi-0.dtd"
   xmlns="http://www.w3.org/2000/svg"
   xmlns:svg="http://www.w3.org/2000/svg">
  <defs
     id="defs1" />
  <sodipodi:namedview
     id="namedview1"
     pagecolor="#505050"
     bordercolor="#eeeeee"
     borderopacity="1"
     inkscape:showpageshadow="0"
     inkscape:pageopacity="0"
     inkscape:pagecheckerboard="0"
     inkscape:deskcolor="#505050"
     inkscape:zoom="0.295"
     inkscape:cx="398.30508"
     inkscape:cy="398.30508"
     inkscape:window-width="1280"
     inkscape:window-height="772"
     inkscape:window-x="0"
     inkscape:window-y="28"
     inkscape:window-maximized="0"
     inkscape:current-layer="svg1" />
  <g
     id="SVGRepo_iconCarrier"
     transform="matrix(0.92562083,0,0,0.92562083,1.1896039,1.1905295)">
    <title
       id="title1">vk</title>
    <path
       d="m 25.217,22.402 h -2.179 c -0.825,0 -1.08,-0.656 -2.562,-2.158 -1.291,-1.25 -1.862,-1.418 -2.179,-1.418 -0.445,0 -0.572,0.127 -0.572,0.741 v 1.968 c 0,0.53 -0.169,0.847 -1.566,0.847 -2.818,-0.189 -5.24,-1.726 -6.646,-3.966 L 9.492,18.381 C 7.86,16.354 6.657,13.911 6.062,11.239 L 6.04,11.122 c 0,-0.317 0.127,-0.614 0.741,-0.614 H 8.96 c 0.55,0 0.762,0.254 0.975,0.846 1.078,3.112 2.878,5.842 3.619,5.842 0.275,0 0.402,-0.127 0.402,-0.825 v -3.219 c -0.085,-1.482 -0.868,-1.608 -0.868,-2.137 0.009,-0.283 0.241,-0.509 0.525,-0.509 0.009,0 0.017,0 0.026,10e-4 h -10e-4 3.429 c 0.466,0 0.635,0.254 0.635,0.804 v 4.34 c 0,0.465 0.212,0.635 0.339,0.635 0.275,0 0.509,-0.17 1.016,-0.677 1.054,-1.287 1.955,-2.759 2.642,-4.346 l 0.046,-0.12 c 0.145,-0.363 0.493,-0.615 0.9,-0.615 0.019,0 0.037,10e-4 0.056,0.002 h -0.003 2.179 c 0.656,0 0.805,0.337 0.656,0.804 -0.874,1.925 -1.856,3.579 -2.994,5.111 l 0.052,-0.074 c -0.232,0.381 -0.317,0.55 0,0.975 0.232,0.317 0.995,0.973 1.503,1.566 0.735,0.727 1.351,1.573 1.816,2.507 l 0.025,0.055 c 0.212,0.612 -0.106,0.93 -0.72,0.93 z M 20.604,1.004 H 11.397 C 2.994,1.004 1.005,2.993 1.005,11.396 v 9.207 c 0,8.403 1.989,10.392 10.392,10.392 h 9.207 c 8.403,0 10.392,-1.989 10.392,-10.392 V 11.396 C 30.996,2.993 28.985,1.004 20.604,1.004 Z"
       id="path1"
       style="fill:#6eb4ff;fill-opacity:1;stroke:none" />
  </g>
</svg>
