<?xml version="1.0" encoding="UTF-8" standalone="no"?>
<!-- Created with Inkscape (http://www.inkscape.org/) -->

<svg
   width="512"
   height="512"
   viewBox="0 0 512 512"
   version="1.1"
   id="svg1"
   inkscape:version="1.3.2 (091e20e, 2023-11-25)"
   sodipodi:docname="yandexgames.svg"
   xmlns:inkscape="http://www.inkscape.org/namespaces/inkscape"
   xmlns:sodipodi="http://sodipodi.sourceforge.net/DTD/sodipodi-0.dtd"
   xmlns="http://www.w3.org/2000/svg"
   xmlns:svg="http://www.w3.org/2000/svg">
  <sodipodi:namedview
     id="namedview1"
     pagecolor="#505050"
     bordercolor="#eeeeee"
     borderopacity="1"
     inkscape:showpageshadow="0"
     inkscape:pageopacity="0"
     inkscape:pagecheckerboard="0"
     inkscape:deskcolor="#505050"
     inkscape:document-units="px"
     inkscape:zoom="0.4609375"
     inkscape:cx="155.11864"
     inkscape:cy="282.0339"
     inkscape:window-width="1280"
     inkscape:window-height="675"
     inkscape:window-x="0"
     inkscape:window-y="25"
     inkscape:window-maximized="0"
     inkscape:current-layer="layer1" />
  <defs
     id="defs1">
    <linearGradient
       id="linearGradient8"
       x1="7.71"
       x2="12.68"
       y1="4.4699998"
       y2="16.74"
       gradientUnits="userSpaceOnUse">
      <stop
         stop-color="#FFE688"
         id="stop6"
         offset="0"
         style="stop-color:#ffffff;stop-opacity:1;" />
      <stop
         offset="1"
         stop-color="#FFA919"
         id="stop8" />
    </linearGradient>
    <linearGradient
       id="linearGradient5"
       x1="7.71"
       x2="12.68"
       y1="4.4699998"
       y2="16.74"
       gradientUnits="userSpaceOnUse">
      <stop
         stop-color="#FFE37C"
         id="stop4"
         offset="0"
         style="stop-color:#000000;stop-opacity:1;" />
      <stop
         offset="1"
         stop-color="#FFA919"
         id="stop5" />
    </linearGradient>
    <linearGradient
       id="b"
       x1="8.46"
       x2="15.62"
       y1="6.3299999"
       y2="24.01"
       gradientUnits="userSpaceOnUse">
      <stop
         stop-color="#FFD86A"
         id="stop10"
         offset="0"
         style="stop-color:#ffffff;stop-opacity:1;" />
      <stop
         offset="1"
         stop-color="#FFB63C"
         id="stop11" />
    </linearGradient>
    <filter
       id="c"
       width="30.43"
       height="22.08"
       x="-5.0300002"
       y="0.34999999"
       color-interpolation-filters="sRGB"
       filterUnits="userSpaceOnUse">
      <feFlood
         flood-opacity="0"
         result="BackgroundImageFix"
         id="feFlood25" />
      <feColorMatrix
         in="SourceAlpha"
         result="hardAlpha"
         values="0 0 0 0 0 0 0 0 0 0 0 0 0 0 0 0 0 0 127 0"
         id="feColorMatrix25" />
      <feOffset
         dy=".79"
         id="feOffset25" />
      <feGaussianBlur
         stdDeviation=".79"
         id="feGaussianBlur25" />
      <feColorMatrix
         values="0 0 0 0 0.758333 0 0 0 0 0.3185 0 0 0 0 0 0 0 0 0.49 0"
         id="feColorMatrix26" />
      <feBlend
         in2="BackgroundImageFix"
         mode="multiply"
         result="effect1_dropShadow_258_94"
         id="feBlend26" />
      <feBlend
         in="SourceGraphic"
         in2="effect1_dropShadow_258_94"
         result="shape"
         id="feBlend27"
         mode="normal" />
    </filter>
    <linearGradient
       id="d"
       x1="7.71"
       x2="12.68"
       y1="4.4699998"
       y2="16.74"
       gradientUnits="userSpaceOnUse">
      <stop
         stop-color="#FFE37C"
         id="stop12" />
      <stop
         offset="1"
         stop-color="#FFA919"
         id="stop13" />
    </linearGradient>
    <linearGradient
       id="f"
       x1="7.71"
       x2="12.68"
       y1="4.4699998"
       y2="16.74"
       gradientUnits="userSpaceOnUse">
      <stop
         stop-color="#FFE688"
         id="stop16" />
      <stop
         offset="1"
         stop-color="#FFBC11"
         id="stop17" />
      <stop
         offset="1"
         stop-color="#FFA919"
         id="stop18" />
    </linearGradient>
    <linearGradient
       id="h"
       x1="8.8100004"
       x2="12.01"
       y1="6.5700002"
       y2="14.46"
       gradientUnits="userSpaceOnUse">
      <stop
         stop-color="#444"
         id="stop22"
         offset="0"
         style="stop-color:#000000;stop-opacity:1;" />
      <stop
         offset="1"
         stop-color="#222"
         id="stop23" />
    </linearGradient>
    <linearGradient
       id="i"
       x1="23.540001"
       x2="27.129999"
       y1="0.029999999"
       y2="8.8999996"
       gradientUnits="userSpaceOnUse">
      <stop
         stop-color="#444"
         id="stop24"
         offset="0"
         style="stop-color:#000000;stop-opacity:1;" />
      <stop
         offset="1"
         stop-color="#222"
         id="stop25" />
    </linearGradient>
  </defs>
  <g
     inkscape:label="Layer 1"
     inkscape:groupmode="layer"
     id="layer1">
    <g
       clip-path="none"
       transform="matrix(15.001398,0,0,15.001398,72.721007,34.879635)"
       id="g10">
      <path
         fill="url(#b)"
         d="m 2.78,8.63 0.1,0.27 a 619.84,619.84 0 0 0 -3.14,1.3 c -1.4,4.59 0.48,12.44 1.53,16.13 a 2.91,2.91 0 0 0 2.72,2.1 3.05,3.05 0 0 0 3.1,-2.45 l 1.79,-8.9 c 0.96,-0.64 2.1,-1.33 3.12,-1.74 1,-0.4 2.38,-0.75 3.62,-1 l 7.5,5.15 a 3.05,3.05 0 0 0 3.92,-0.4 2.9,2.9 0 0 0 0.5,-3.4 C 25.73,12.31 21.61,5.36 17.41,3.04 L 14.64,4.14 14.54,3.87 2.77,8.63 Z"
         id="path4"
         style="display:inline;fill:#fff096;fill-opacity:1" />
      <path
         fill="url(#f)"
         fill-rule="evenodd"
         d="M 23.34,5.28 A 6.62,6.62 0 1 0 11.07,10.25 6.62,6.62 0 0 0 23.34,5.28 Z"
         clip-rule="evenodd"
         id="path7"
         style="display:inline;fill:#fff096;fill-opacity:1" />
      <path
         fill="url(#g)"
         fill-rule="evenodd"
         d="M 9.32,10.96 A 6.6238074,6.6238074 0 1 1 -2.96,15.93 6.6238074,6.6238074 0 0 1 9.32,10.96 Z"
         clip-rule="evenodd"
         id="path8"
         style="display:inline;fill:#fff096;fill-opacity:1" />
      <path
         fill="url(#h)"
         d="m 5.45,11.5 a 0.95,0.95 0 0 1 0.71,1.76 l -1.75,0.71 0.7,1.75 A 0.95,0.95 0 1 1 3.36,16.43 L 2.66,14.68 0.9,15.39 A 0.95,0.95 0 0 1 0.19,13.64 l 1.75,-0.71 -0.7,-1.76 a 0.95,0.95 0 0 1 1.75,-0.7 l 0.7,1.75 1.76,-0.71 z"
         id="path9"
         style="display:inline;fill:url(#h)" />
      <path
         fill="url(#i)"
         fill-rule="evenodd"
         d="m 16.7,6.4 a 1.33,1.33 0 1 0 -1,-2.46 1.3323757,1.3323757 0 0 0 1,2.47 z m -1.55,3.66 a 1.33,1.33 0 1 0 -1,-2.46 1.33,1.33 0 0 0 1,2.46 z m 5.94,-3.84 a 1.33,1.33 0 1 1 -2.46,1 1.33,1.33 0 0 1 2.46,-1 z m -2.28,5.4 a 1.3323757,1.3323757 0 1 0 -1,-2.47 1.33,1.33 0 0 0 1,2.46 z"
         clip-rule="evenodd"
         id="path10"
         style="display:inline;fill:url(#i)" />
    </g>
  </g>
</svg>
