<?xml version="1.0" encoding="UTF-8" standalone="no"?>
<!-- Created with Inkscape (http://www.inkscape.org/) -->

<svg
   width="128"
   height="128"
   viewBox="0 0 33.866667 33.866666"
   version="1.1"
   id="svg1"
   inkscape:version="1.3.2 (091e20e, 2023-11-25)"
   sodipodi:docname="delete.svg"
   xmlns:inkscape="http://www.inkscape.org/namespaces/inkscape"
   xmlns:sodipodi="http://sodipodi.sourceforge.net/DTD/sodipodi-0.dtd"
   xmlns="http://www.w3.org/2000/svg"
   xmlns:svg="http://www.w3.org/2000/svg">
  <sodipodi:namedview
     id="namedview1"
     pagecolor="#505050"
     bordercolor="#eeeeee"
     borderopacity="1"
     inkscape:showpageshadow="0"
     inkscape:pageopacity="0"
     inkscape:pagecheckerboard="0"
     inkscape:deskcolor="#505050"
     inkscape:document-units="mm"
     inkscape:zoom="3.108123"
     inkscape:cx="39.734592"
     inkscape:cy="70.943138"
     inkscape:window-width="1280"
     inkscape:window-height="800"
     inkscape:window-x="0"
     inkscape:window-y="0"
     inkscape:window-maximized="0"
     inkscape:current-layer="layer1" />
  <defs
     id="defs1">
    <inkscape:path-effect
       effect="powerstroke"
       id="path-effect4"
       is_visible="true"
       lpeversion="1.3"
       scale_width="1"
       interpolator_type="CentripetalCatmullRom"
       interpolator_beta="0.75"
       start_linecap_type="round"
       end_linecap_type="round"
       offset_points="29.991227,1.0849299"
       linejoin_type="spiro"
       miter_limit="4"
       not_jump="true"
       sort_points="true"
       message="&lt;b&gt;Ctrl + click&lt;/b&gt; on existing node and move it" />
    <inkscape:path-effect
       effect="simplify"
       id="path-effect3"
       is_visible="true"
       lpeversion="1.3"
       threshold="0.012"
       steps="1"
       smooth_angles="0"
       helper_size="0"
       simplify_individual_paths="false"
       simplify_just_coalesce="false"
       step="1" />
    <inkscape:path-effect
       effect="powerstroke"
       id="path-effect2"
       is_visible="true"
       lpeversion="1.3"
       scale_width="1"
       interpolator_type="CentripetalCatmullRom"
       interpolator_beta="0.75"
       start_linecap_type="round"
       end_linecap_type="round"
       offset_points="169.63789,1.0849299"
       linejoin_type="spiro"
       miter_limit="4"
       not_jump="true"
       sort_points="true"
       message="&lt;b&gt;Ctrl + click&lt;/b&gt; on existing node and move it" />
    <inkscape:path-effect
       effect="simplify"
       id="path-effect1"
       is_visible="true"
       lpeversion="1.3"
       threshold="0.012"
       steps="1"
       smooth_angles="0"
       helper_size="0"
       simplify_individual_paths="false"
       simplify_just_coalesce="false"
       step="1" />
  </defs>
  <g
     inkscape:label="Layer 1"
     inkscape:groupmode="layer"
     id="layer1">
    <rect
       style="fill:#ffffff;fill-opacity:1;stroke-width:0.278743;stroke-linecap:round;stroke-linejoin:round;stroke-dashoffset:2.26772"
       id="rect1"
       width="18.037516"
       height="18.48921"
       x="7.9145756"
       y="10.986213"
       rx="3.6046512" />
    <rect
       style="fill:#ffffff;fill-opacity:1;stroke-width:0.186959;stroke-linecap:round;stroke-linejoin:round;stroke-dashoffset:2.26772"
       id="rect1-1"
       width="24.325251"
       height="6.1676641"
       x="4.7707081"
       y="8.783844"
       rx="2.3848076" />
    <ellipse
       style="fill:none;fill-opacity:1;stroke:#ffffff;stroke-width:2.87126;stroke-linecap:round;stroke-linejoin:round;stroke-dasharray:none;stroke-dashoffset:2.26772;stroke-opacity:1"
       id="path1"
       cx="16.933332"
       cy="9.9665556"
       rx="5.7624116"
       ry="5.1611991" />
    <path
       d="m 12.361572,26.786509 c -0.0099,-0.08925 -0.017,-0.189661 -0.0205,-0.306497 -0.0034,-0.112874 -0.0032,-0.23457 1.61e-4,-0.373057 0.0039,-0.159699 0.01149,-0.320656 0.02106,-0.510707 0.0094,-0.186741 0.02156,-0.414361 0.02795,-0.635915 0.0047,-0.161749 0.0069,-0.339319 0.0022,-0.52417 -0.004,-0.156581 -0.01317,-0.325532 -0.03189,-0.501546 -0.01638,-0.153995 -0.04056,-0.31792 -0.07667,-0.48734 -0.02939,-0.137885 -0.06719,-0.281682 -0.116048,-0.428245 -0.01061,-0.03182 -0.02056,-0.06888 -0.02909,-0.111896 -0.0092,-0.04639 -0.01677,-0.09945 -0.02226,-0.161031 -0.0061,-0.06842 -0.0094,-0.144107 -0.01034,-0.23118 -0.0011,-0.104119 0.0012,-0.212513 0.0048,-0.341098 0.0036,-0.131358 0.0089,-0.295065 0.0091,-0.456456 1.17e-4,-0.124017 -0.0027,-0.260607 -0.01271,-0.403856 -0.0082,-0.116918 -0.02153,-0.241945 -0.0432,-0.371923 -0.03071,-0.184326 -0.05606,-0.37201 -0.07595,-0.562795 -0.02079,-0.199561 -0.03549,-0.401425 -0.04361,-0.605029 -0.0081,-0.203403 -0.0096,-0.407764 -0.0037,-0.612339 0.0055,-0.189886 0.01738,-0.37931 0.03659,-0.567483 0.01756,-0.171834 0.04117,-0.341858 0.07178,-0.509279 0.02761,-0.150911 0.06076,-0.298772 0.100287,-0.442826 0.0353,-0.128582 0.07541,-0.253089 0.12096,-0.372835 0.03887,-0.102155 0.08138,-0.199966 0.127849,-0.292904 -0.0066,0.01311 -0.0128,0.02315 -0.01765,0.03018 -0.0046,0.0067 -0.0061,0.0078 -0.0015,0.0026 0.0067,-0.0076 0.01954,-0.02125 0.0466,-0.04749 0.03283,-0.03183 0.08241,-0.07745 0.145928,-0.140351 0.04643,-0.04596 0.101413,-0.102732 0.15788,-0.168492 0.02154,-0.02503 0.04181,-0.0498 0.06008,-0.07283 0.02857,-0.03572 0.09193,-0.115678 0.123029,-0.154571 0.03165,-0.03968 0.05884,-0.07354 0.08502,-0.105081 0.02133,-0.02567 0.0369,-0.04363 0.0494,-0.05721 0.01055,-0.01145 0.0121,-0.01225 0.0068,-0.0075 -0.0058,0.0052 -0.0207,0.01792 -0.0445,0.03354 -0.01969,0.01294 -0.04248,0.02579 -0.06794,0.03743 -0.02712,0.01242 -0.05048,0.02018 -0.0673,0.02485 -0.01836,0.0051 -0.0253,0.0056 -0.01931,0.0048 0.0066,-9.32e-4 0.02026,-0.0025 0.04487,-0.0041 0.0278,-0.0018 0.06063,-0.0032 0.101888,-0.0041 0.04982,-0.0011 0.102773,-0.0015 0.162443,-0.0015 0.06941,-3.22e-4 0.124951,-0.0059 0.131979,-0.0065 0.0322,-0.003 0.06319,-0.0065 0.07286,-0.0076 0.02348,-0.0026 0.03482,-0.0035 0.03372,-0.0034 -8.25e-4,5.4e-5 -0.01126,9.06e-4 -0.03281,7.19e-4 -0.01093,-1.23e-4 -0.06701,-4.47e-4 -0.14138,-0.01391 -0.03612,-0.0068 -0.160953,-0.02995 -0.30387,-0.108213 -0.06614,-0.03675 -0.151485,-0.09193 -0.238177,-0.17854 0.08248,0.08258 0.168206,0.144885 0.245156,0.191176 0.08163,0.04913 0.15629,0.08196 0.211168,0.103448 0.06286,0.02457 0.117175,0.04104 0.149606,0.05052 0.04309,0.01256 0.0708,0.01978 0.08299,0.02322 0.01686,0.0047 0.01337,0.0042 0.0016,-1.45e-4 -0.0095,-0.0035 -0.02615,-0.01015 -0.04732,-0.02074 -0.01483,-0.0074 -0.02706,-0.01521 -0.03679,-0.0224 -0.01004,-0.0074 -0.01475,-0.01224 -0.01557,-0.01309 -4.3e-4,-4.44e-4 0.0047,0.0049 0.01359,0.01709 0.01016,0.01392 0.02367,0.03435 0.04092,0.06415 0.02056,0.03552 0.04301,0.07838 0.07012,0.133875 0.02937,0.06012 0.05485,0.115576 0.09268,0.196042 0.02123,0.04513 0.04604,0.09739 0.07319,0.151696 0.03617,0.07237 0.07103,0.149492 0.105181,0.231963 0.03913,0.09454 0.07624,0.193527 0.11198,0.297257 0.04126,0.119781 0.07988,0.243563 0.116637,0.371594 0.04219,0.14701 0.08132,0.297586 0.118262,0.451967 0.04406,0.184208 0.08451,0.371862 0.122463,0.563317 0.04357,0.219793 0.08347,0.442905 0.121354,0.670271 9.96e-4,0.006 0.0028,0.01838 0.005,0.04111 0.0028,0.02866 0.0051,0.06232 0.0078,0.107083 0.0041,0.06982 0.0077,0.15404 0.01446,0.25226 0.0047,0.06888 0.01137,0.148791 0.02214,0.234152 0.0089,0.0701 0.02126,0.150006 0.03996,0.235731 0.0157,0.07184 0.03704,0.153512 0.06743,0.24067 0.02242,0.06424 0.05086,0.134693 0.08763,0.20827 0.0051,0.01029 0.01262,0.0272 0.02176,0.05336 0.01,0.02867 0.02067,0.06454 0.0323,0.110894 0.01372,0.0547 0.02677,0.11572 0.04165,0.190637 0.01905,0.096 0.04782,0.252234 0.07733,0.386774 0.02108,0.09604 0.047,0.203236 0.08058,0.315517 0.02982,0.0997 0.06678,0.207135 0.113956,0.317956 0.02211,0.052 0.04616,0.103797 0.07196,0.154877 0.139969,0.280012 0.277771,0.559937 0.409482,0.839848 0.08809,0.18723 0.172938,0.37329 0.253699,0.559129 0.05649,0.13002 0.110744,0.259373 0.162358,0.388401 0.03349,0.08372 0.06538,0.174624 0.09784,0.275676 0.04064,0.126493 0.07749,0.253867 0.121839,0.404705 0.03381,0.114941 0.07186,0.243033 0.114659,0.373428 0.03781,0.115133 0.08147,0.238805 0.133424,0.365865 0.047,0.114919 0.10214,0.235928 0.168169,0.358587 0.05989,0.11126 0.129367,0.224972 0.210489,0.337216 0.07426,0.102796 0.157758,0.203528 0.25103,0.299394 0.09108,0.09368 0.189802,0.180878 0.295061,0.26022 0.08227,0.06204 0.167465,0.118471 0.254441,0.169282 0.06685,0.03906 0.134432,0.07462 0.202165,0.106888 0.06463,0.03079 0.129307,0.05855 0.193594,0.08356 0.04706,0.01831 0.09392,0.03515 0.140432,0.05066 0.04768,0.0159 0.12177,0.04115 0.186535,0.06214 0.08045,0.02608 0.174847,0.0551 0.277414,0.08098 0.08553,0.02157 0.181347,0.04218 0.285117,0.0573 0.09444,0.01375 0.198538,0.02341 0.309958,0.02428 0.100888,7.91e-4 0.208711,-0.0057 0.320892,-0.02311 0.06557,-0.01018 0.131671,-0.02401 0.197573,-0.04169 0.123975,-0.03313 0.243134,-0.07866 0.354968,-0.133966 0.119959,-0.05927 0.22955,-0.128861 0.328181,-0.20408 0.107484,-0.08195 0.202239,-0.170762 0.285142,-0.261279 0.09096,-0.09933 0.169329,-0.202451 0.236782,-0.305155 0.07359,-0.112094 0.135953,-0.226278 0.188729,-0.339803 0.05656,-0.121728 0.103394,-0.245376 0.141337,-0.369514 0.03639,-0.119147 0.06534,-0.241096 0.08617,-0.36527 0.01828,-0.109158 0.03075,-0.222497 0.03542,-0.339347 0.0016,-0.04 0.0021,-0.07816 0.002,-0.112754 1.94e-4,-0.128444 0.0056,-0.265021 0.01499,-0.405521 0.01091,-0.162466 0.02712,-0.328594 0.04659,-0.501099 0.02891,-0.256199 0.06484,-0.52391 0.09824,-0.803981 0.01914,-0.160455 0.03745,-0.325417 0.05271,-0.493288 0.0094,-0.103824 0.01561,-0.203348 0.02046,-0.294305 0.0059,-0.1113 0.01014,-0.220036 0.01367,-0.324352 0.0049,-0.146198 0.0086,-0.291019 0.01203,-0.431319 0.0067,-0.281522 0.0071,-0.308263 0.01379,-0.589625 0.0072,-0.288532 0.01553,-0.56934 0.02803,-0.847384 0.0082,-0.181839 0.01801,-0.359725 0.0305,-0.534959 0.01024,-0.143365 0.02211,-0.282715 0.03647,-0.419087 0.01174,-0.11124 0.02487,-0.218057 0.04016,-0.32145 0.01416,-0.09559 0.02955,-0.184315 0.04708,-0.267851 0.0158,-0.07504 0.03173,-0.138459 0.04864,-0.193644 0.01,-0.03246 0.01869,-0.05659 0.02598,-0.07438 0.0013,-0.0033 0.0026,-0.0063 0.0037,-0.0087 -3.07e-4,7.16e-4 0.0014,-0.0031 0.003,-0.0068 -7e-6,4.3e-5 0.0031,-0.0062 0.0077,-0.01432 0.003,-0.0053 0.0022,-0.0029 -0.0042,0.0053 -0.006,0.0076 -0.01593,0.01906 -0.03064,0.03249 -0.01277,0.01166 -0.02652,0.02233 -0.04071,0.03174 -0.01435,0.0095 -0.02562,0.01529 -0.03167,0.01814 -0.0059,0.0028 -0.0041,0.0014 0.01043,-0.0034 0.01657,-0.0054 0.0402,-0.01229 0.07747,-0.02188 0.04083,-0.01049 0.08225,-0.02029 0.138144,-0.03373 0.0337,-0.0081 0.06978,-0.01682 0.106852,-0.02609 0.03031,-0.0076 0.05325,-0.01118 0.06954,-0.01275 0.01463,-0.0014 0.02296,-0.0011 0.02556,-8.84e-4 0.0022,1.59e-4 0.0014,3.01e-4 -0.0028,-7.56e-4 -0.0036,-9.21e-4 -0.0071,-0.0022 -0.01024,-0.0036 -0.0027,-0.0012 -0.0025,-0.0015 3.65e-4,4.99e-4 0.0041,0.0027 0.01251,0.009 0.02495,0.02077 0.01411,0.01333 0.03137,0.03174 0.05166,0.05672 0.0235,0.02894 0.04844,0.06345 0.07512,0.104299 0.03264,0.05 0.06531,0.10559 0.09892,0.166931 0.03245,0.05924 0.06457,0.121696 0.09691,0.186377 a 1.0849299,1.0849299 90 0 0 1.940784,-0.970388 c -0.03872,-0.07745 -0.0842,-0.16634 -0.134701,-0.258534 -0.05194,-0.0948 -0.11344,-0.20098 -0.184991,-0.310593 -0.05841,-0.08945 -0.127208,-0.186912 -0.207634,-0.285961 -0.06956,-0.08564 -0.151142,-0.176593 -0.246098,-0.26628 -0.0859,-0.08114 -0.185196,-0.163512 -0.298683,-0.240303 -0.0963,-0.06519 -0.203179,-0.126524 -0.32017,-0.17957 -0.110247,-0.05004 -0.227516,-0.09173 -0.350218,-0.122979 -0.124733,-0.03182 -0.251663,-0.05191 -0.378457,-0.06096 -0.133196,-0.0095 -0.263581,-0.0067 -0.388957,0.0054 -0.135688,0.01311 -0.265201,0.037 -0.387146,0.06748 -0.02718,0.0068 -0.05546,0.01365 -0.08754,0.02135 -0.04551,0.01094 -0.109257,0.02604 -0.171308,0.04198 -0.05996,0.01542 -0.134653,0.0357 -0.215147,0.06216 -0.07555,0.02485 -0.163778,0.05761 -0.257489,0.101777 -0.07796,0.03672 -0.160085,0.08158 -0.242721,0.136408 -0.07754,0.05139 -0.152456,0.109639 -0.223179,0.17425 -0.07962,0.07267 -0.150038,0.149945 -0.211733,0.228399 -0.07019,0.08922 -0.128279,0.178872 -0.17661,0.263772 -0.03558,0.06266 -0.06943,0.128383 -0.100925,0.198131 -0.0037,0.0082 -0.0054,0.01198 -0.0071,0.01578 -0.01105,0.02505 -0.01967,0.04536 -0.02789,0.06541 -0.0376,0.09176 -0.06774,0.179791 -0.09267,0.260916 -0.04119,0.13443 -0.07242,0.263765 -0.09767,0.383728 -0.02855,0.136005 -0.05116,0.268649 -0.07011,0.396543 -0.0206,0.139326 -0.03735,0.276703 -0.05158,0.411617 -0.01745,0.165631 -0.03133,0.329779 -0.04293,0.492106 -0.01416,0.198587 -0.02499,0.395949 -0.03382,0.591923 -0.01345,0.299237 -0.02223,0.596534 -0.02955,0.890983 -0.0038,0.151355 -0.01007,0.440065 -0.01383,0.591454 -0.0033,0.138454 -0.0069,0.274855 -0.01141,0.41008 -0.0033,0.09678 -0.007,0.190666 -0.01186,0.282672 -0.0041,0.07714 -0.0087,0.147245 -0.01464,0.213322 -0.01272,0.13998 -0.02852,0.283178 -0.0463,0.432267 -0.03087,0.258857 -0.06748,0.530936 -0.09983,0.817705 -0.02167,0.192062 -0.04156,0.392983 -0.05539,0.599004 -0.01202,0.17893 -0.0196,0.363717 -0.01987,0.552622 3.2e-5,0.01422 -1.19e-4,0.0202 -2.58e-4,0.02361 -7.89e-4,0.01974 -0.003,0.04211 -0.0073,0.06799 -0.0049,0.02906 -0.01196,0.05929 -0.02135,0.09004 -0.0097,0.03183 -0.02119,0.06166 -0.0339,0.08901 -0.0118,0.02538 -0.02367,0.04638 -0.03477,0.06329 -0.01008,0.01535 -0.01817,0.02518 -0.02319,0.03066 -0.0044,0.0048 -0.005,0.0046 -6.72e-4,0.0013 0.0041,-0.0031 0.01258,-0.009 0.026,-0.01565 0.01242,-0.0061 0.02756,-0.01212 0.04535,-0.01687 0.01024,-0.0027 0.02078,-0.0049 0.03056,-0.0064 0.01562,-0.0024 0.02581,-0.0026 0.02912,-0.0025 0.0034,2.6e-5 -0.0015,1.58e-4 -0.01412,-0.0017 -0.01459,-0.0021 -0.03614,-0.0062 -0.06707,-0.01403 -0.03762,-0.0095 -0.08179,-0.02258 -0.139182,-0.04119 -0.04814,-0.0156 -0.104373,-0.03482 -0.169274,-0.05646 -0.0142,-0.0047 -0.02746,-0.0095 -0.03999,-0.0144 -0.0171,-0.0067 -0.03277,-0.01344 -0.04708,-0.02026 -0.01498,-0.0071 -0.02856,-0.01435 -0.04083,-0.02152 -0.01587,-0.0093 -0.03008,-0.01878 -0.04274,-0.02833 -0.01606,-0.01211 -0.03142,-0.02562 -0.04591,-0.04052 -0.01517,-0.01559 -0.03121,-0.03448 -0.04773,-0.05734 -0.01843,-0.0255 -0.03807,-0.05667 -0.05862,-0.09486 -0.02297,-0.04268 -0.04629,-0.0925 -0.0704,-0.151452 -0.02685,-0.06566 -0.05299,-0.138388 -0.08022,-0.221324 -0.03134,-0.0955 -0.06121,-0.195445 -0.09457,-0.308852 -0.04017,-0.136634 -0.0866,-0.297188 -0.137654,-0.456117 -0.04262,-0.13267 -0.0914,-0.273767 -0.149071,-0.417937 -0.06057,-0.151419 -0.123158,-0.300536 -0.186927,-0.447294 -0.09109,-0.2096 -0.18514,-0.415691 -0.280411,-0.618175 -0.142227,-0.302256 -0.288637,-0.599461 -0.434014,-0.890272 -0.0063,-0.01247 -0.01033,-0.02117 -0.01412,-0.03007 -0.0096,-0.02256 -0.02023,-0.05172 -0.03178,-0.0903 -0.01318,-0.04408 -0.02612,-0.09551 -0.04,-0.158725 -0.02371,-0.108105 -0.03926,-0.197187 -0.06846,-0.344334 -0.01756,-0.08842 -0.03872,-0.190015 -0.06537,-0.296253 -0.02302,-0.09168 -0.05148,-0.192395 -0.08818,-0.297596 -0.03404,-0.09755 -0.07621,-0.201915 -0.129601,-0.308694 0.01082,0.02165 0.01711,0.03815 0.0203,0.04728 0.0045,0.0128 0.0049,0.01649 0.0037,0.01106 -0.0015,-0.0067 -0.0041,-0.02067 -0.0071,-0.04489 -0.0037,-0.0292 -0.0069,-0.06466 -0.01013,-0.110998 -0.0043,-0.0627 -0.0078,-0.139409 -0.01303,-0.229733 -0.0032,-0.05495 -0.0075,-0.120261 -0.01418,-0.189813 -0.0053,-0.05463 -0.01274,-0.118739 -0.02433,-0.188396 -0.04064,-0.243872 -0.08446,-0.489389 -0.133299,-0.735787 -0.04251,-0.214424 -0.0889,-0.430089 -0.140589,-0.646217 -0.04332,-0.181039 -0.09054,-0.363227 -0.142939,-0.545801 -0.04561,-0.158851 -0.09542,-0.319073 -0.15075,-0.479701 -0.04787,-0.138925 -0.100305,-0.279471 -0.158639,-0.420419 -0.05081,-0.122711 -0.106732,-0.247318 -0.169177,-0.372237 -0.01536,-0.03073 -0.0314,-0.06431 -0.05047,-0.104848 -0.02862,-0.06088 -0.06774,-0.145547 -0.106581,-0.225052 -0.03974,-0.08136 -0.08672,-0.173251 -0.141867,-0.268537 -0.04685,-0.08092 -0.101666,-0.16795 -0.166251,-0.256433 -0.0593,-0.08123 -0.128317,-0.165714 -0.208803,-0.248666 -0.07391,-0.0762 -0.157648,-0.151174 -0.251896,-0.220825 -0.08729,-0.06456 -0.181875,-0.123156 -0.282869,-0.173626 -0.06105,-0.03053 -0.11898,-0.0546 -0.170553,-0.07365 -0.06647,-0.02459 -0.126054,-0.04206 -0.165639,-0.0532 -0.03616,-0.0102 -0.05739,-0.01585 -0.06339,-0.0176 -0.0043,-0.0013 0.007,0.0015 0.03311,0.01175 0.02252,0.0088 0.06515,0.02685 0.116954,0.05803 0.04936,0.02969 0.109541,0.07277 0.170496,0.133801 -0.09194,-0.09185 -0.182448,-0.150629 -0.247842,-0.186993 -0.164008,-0.08984 -0.305523,-0.117297 -0.350018,-0.125697 -0.110528,-0.02004 -0.195227,-0.02174 -0.230988,-0.02216 -0.05581,-4.89e-4 -0.100681,0.0018 -0.130965,0.0038 -0.05292,0.0035 -0.09986,0.0086 -0.126557,0.01148 -0.02171,0.0024 -0.03403,0.0037 -0.0371,0.004 -0.0058,5.18e-4 0.01369,-0.0024 0.06133,-0.0026 -0.06146,-10e-7 -0.132511,3.62e-4 -0.20593,0.002 -0.05998,0.0014 -0.126289,0.0037 -0.196488,0.0083 -0.06064,0.004 -0.130228,0.01017 -0.205423,0.0208 -0.07487,0.01061 -0.16267,0.02666 -0.257737,0.0531 -0.08123,0.02257 -0.16701,0.0526 -0.254296,0.09257 -0.07839,0.03582 -0.152164,0.07715 -0.220366,0.121962 -0.08217,0.05392 -0.151837,0.110107 -0.208581,0.160701 -0.06448,0.05749 -0.118002,0.112824 -0.158932,0.157251 -0.0479,0.05205 -0.08955,0.101141 -0.122413,0.140691 -0.04103,0.04943 -0.07948,0.09745 -0.111221,0.137249 -0.06568,0.08241 -0.06053,0.07615 -0.124781,0.156776 -0.006,0.0076 -0.0079,0.0098 -0.0085,0.01044 -0.0066,0.0077 -0.01794,0.02008 -0.03894,0.04086 -0.02759,0.02732 -0.07169,0.06819 -0.129945,0.124689 -0.04564,0.04427 -0.103571,0.102103 -0.163395,0.169958 -0.05094,0.05775 -0.10471,0.124415 -0.156917,0.200101 -0.04937,0.07151 -0.09584,0.149015 -0.137353,0.232097 -0.0818,0.163615 -0.152915,0.328334 -0.214987,0.491472 -0.07269,0.191076 -0.133741,0.381939 -0.185396,0.570113 -0.057847,0.210808 -0.1045056,0.420397 -0.14225,0.62669 -0.041861,0.228912 -0.07314,0.455864 -0.095964,0.679202 -0.02498,0.244642 -0.04001,0.486804 -0.046918,0.725243 -0.00742,0.25693 -0.00546,0.511057 0.00451,0.761519 0.010006,0.250736 0.028076,0.498731 0.053579,0.743528 0.024396,0.233967 0.055624,0.465552 0.093778,0.694545 0.00837,0.05023 0.014683,0.105621 0.019009,0.167223 0.00535,0.07621 0.00747,0.158502 0.00738,0.249754 -1.263e-4,0.124878 -0.00421,0.251066 -0.00827,0.399067 -0.00359,0.130891 -0.00703,0.274825 -0.00547,0.423507 0.00135,0.127458 0.00639,0.261932 0.018801,0.401091 0.01129,0.126542 0.028728,0.257272 0.055161,0.390469 0.02478,0.12496 0.05727,0.250793 0.099,0.375948 0.02044,0.06132 0.03782,0.126239 0.05232,0.194278 0.0179,0.08398 0.03136,0.172277 0.04118,0.264511 0.01124,0.105667 0.01755,0.214976 0.02042,0.327379 0.0034,0.132927 0.0019,0.268829 -0.002,0.406369 -0.0055,0.192309 -0.01614,0.391457 -0.0261,0.58919 -0.0096,0.191004 -0.0185,0.37649 -0.02316,0.566859 -0.0041,0.167629 -0.0046,0.329725 1.6e-4,0.490903 0.005,0.167691 0.01565,0.326854 0.03279,0.481191 a 1.0849299,1.0849299 90 0 0 2.156602,-0.239506 z"
       id="path-1"
       inkscape:path-effect="#path-effect3;#path-effect4"
       inkscape:original-d="m 11.283271,26.906262 c -0.126709,-1.140467 0.217485,-2.457679 -0.144657,-3.544105 -0.236072,-0.708216 -0.02217,-1.507281 -0.144658,-2.242188 -0.248103,-1.488619 -0.209386,-3.342317 0.433972,-4.629034 0.121247,-0.242494 0.339554,-0.370196 0.506301,-0.57863 0.474588,-0.593235 0.470916,-0.650958 1.229587,-0.650958 0.06116,0 0.25168,-0.03763 0.289315,0 0.07729,0.07729 0.224119,0.0759 0.361643,0.144658 0.386693,0.193346 0.546737,0.659501 0.723287,1.012601 0.410077,0.820154 0.646329,1.997428 0.795615,2.893146 0.04999,0.299916 0.0092,0.741604 0.144657,1.012602 0.224978,0.449956 0.199631,1.05022 0.433972,1.518902 0.29805,0.596099 0.614161,1.246087 0.867944,1.880545 0.389978,0.974943 0.38956,2.082727 1.518902,2.459174 0.288896,0.0963 0.626966,0.222984 0.940273,0.144657 0.557878,-0.139469 0.867944,-0.83903 0.867944,-1.374244 0,-0.779541 0.146211,-1.536 0.216986,-2.314517 0.09232,-1.015502 -0.01652,-3.800379 0.433972,-4.701363 0.221428,-0.442858 0.515073,-0.47233 0.940272,-0.578629 0.928688,-0.232172 1.348147,0.454105 1.663559,1.084929"
       style="fill:#f05064;fill-opacity:1;fill-rule:nonzero;stroke:none;stroke-width:11.33902456;stroke-linecap:round;stroke-linejoin:round;stroke-dasharray:none;stroke-dashoffset:2.26772;stroke-opacity:1"
       transform="matrix(0.79296852,-0.21730531,0.21730531,0.79296852,-0.62127354,5.8337549)" />
  </g>
</svg>
