<?xml version="1.0" encoding="UTF-8" standalone="no"?>
<!-- Created with Inkscape (http://www.inkscape.org/) -->

<svg
   width="180"
   height="180"
   viewBox="0 0 180 180"
   version="1.1"
   id="svg1"
   xmlns="http://www.w3.org/2000/svg"
   xmlns:svg="http://www.w3.org/2000/svg">
  <defs
     id="defs1" />
  <g
     id="layer1">
    <path
       style="fill:#f05064;fill-opacity:1;stroke-width:4.685;stroke-linecap:round;stroke-miterlimit:0;stroke-dashoffset:2.26772;paint-order:markers fill stroke"
       id="path1"
       d="m 129.02394,138.63143 c -2.41047,2.64034 -5.04655,5.07119 -7.87774,7.26204 -17.46911,13.51806 -58.234241,13.51806 -75.703348,0 -4.885007,-3.78015 -9.189151,-8.27478 -12.755773,-13.32724 -11.913911,-16.87719 -11.913911,-54.441554 0,-71.31874 4.311864,-6.108165 9.701658,-11.401035 15.892575,-15.601803 16.593825,-11.259529 52.835916,-11.259529 69.429746,0 4.03792,2.73988 7.73503,5.944349 11.01454,9.536603 16.66329,18.25236 16.66329,65.19678 0,83.44914 z"
       transform="matrix(1.2672882,0,0,1.2672882,-14.724298,-32.440987)" />
  </g>
  <g
     id="layer2"
     transform="rotate(8.3505705,82.047924,83.007865)">
    <circle
       style="fill:#1e0528;fill-opacity:1;stroke-width:5.77131;stroke-linecap:round;stroke-miterlimit:0;stroke-dashoffset:2.26772;paint-order:markers fill stroke"
       id="path2"
       cx="52.080074"
       cy="85.876183"
       r="11.578337" />
    <circle
       style="fill:#1e0528;fill-opacity:1;stroke-width:5.77131;stroke-linecap:round;stroke-miterlimit:0;stroke-dashoffset:2.26772;paint-order:markers fill stroke"
       id="path2-4"
       cx="118.59505"
       cy="61.979626"
       r="11.578337" />
    <path
       d="m 64.365372,137.52302 c 0.0039,-0.0606 0.01549,-0.16617 0.05448,-0.30632 0.03311,-0.11926 0.09259,-0.29061 0.2044,-0.51428 0.105254,-0.2106 0.256553,-0.46848 0.479111,-0.78028 0.221294,-0.30991 0.49855,-0.65334 0.855174,-1.04614 0.397549,-0.43768 0.85554,-0.89497 1.412787,-1.41757 0.311453,-0.29204 0.637748,-0.58947 1.004855,-0.92077 0.0092,-0.008 0.210223,-0.18944 0.219394,-0.19772 1.33432,-1.19928 2.774828,-2.42889 4.463977,-3.8254 1.704677,-1.40936 3.570864,-2.90822 5.56788,-4.54056 0.240893,-0.19662 0.340927,-0.28029 0.449713,-0.36337 0.0047,-0.004 0.0093,-0.007 0.01399,-0.0107 0.376186,-0.28911 0.81635,-0.5856 1.34405,-0.9007 0.57689,-0.34405 1.212227,-0.68216 1.920613,-1.02431 0.808121,-0.38994 1.668678,-0.76413 2.594248,-1.13339 1.127674,-0.44949 2.306774,-0.8734 3.54991,-1.28442 1.454992,-0.48067 2.957578,-0.93007 4.519085,-1.36036 1.792479,-0.49359 3.628581,-0.95234 5.517517,-1.3865 2.062993,-0.47386 4.164363,-0.91256 6.308783,-1.32152 1.79487,-0.34203 3.61377,-0.66213 5.45432,-0.95732 0.72741,-0.1166 1.46151,-0.22969 2.20068,-0.3382 0.009,-0.001 0.0182,-0.003 0.0273,-0.004 0.33261,-0.0505 0.62305,-0.11173 0.81008,-0.15236 0.33745,-0.0739 0.65393,-0.15144 0.89136,-0.20924 0.55112,-0.1345 0.9409,-0.22971 1.3169,-0.30393 0.19391,-0.0381 0.32156,-0.058 0.40949,-0.0682 0.0634,-0.007 0.0334,-5.9e-4 -0.0554,-7.7e-4 -0.004,-10e-6 -0.007,-2e-5 -0.0107,-3e-5 -0.0507,-2e-4 -0.25407,-0.003 -0.53943,-0.0535 -0.22432,-0.0403 -0.43582,-0.0969 -0.63328,-0.16527 l 0.0999,0.0336 c 0.7989,0.26037 1.57088,0.45688 2.27535,0.61514 0.86966,0.19506 1.71857,0.34969 2.4621,0.48249 0.98768,0.17632 1.78345,0.31281 2.57867,0.48377 0.56165,0.12087 1.04531,0.24321 1.47762,0.37882 0.26632,0.0836 0.50075,0.16871 0.70828,0.25553 0.01,0.004 0.0192,0.008 0.0288,0.012 0.66705,0.27475 1.30286,0.46528 1.85948,0.60434 0.66475,0.16575 1.28948,0.27632 1.83116,0.35773 0.83584,0.12541 1.72233,0.21396 2.30472,0.27932 0.38096,0.0429 0.66991,0.0786 0.92891,0.11957 0.12983,0.0212 0.10276,0.017 0.0816,0.0128 -0.0449,-0.009 -0.0897,-0.0181 -0.13443,-0.028 -0.37841,-0.0835 -0.50426,-0.15117 -0.42196,-0.11877 l -0.0307,-0.0122 c 0.0401,0.0161 0.11533,0.0487 0.26333,0.11968 0.22989,0.11066 0.48389,0.24248 0.76968,0.39626 0.45857,0.24721 0.92383,0.51171 1.39285,0.78559 0.66073,0.38623 1.30782,0.77953 1.93562,1.17216 0.58524,0.36632 1.13459,0.71998 1.65776,1.06895 0.34738,0.232 0.65013,0.43958 0.92926,0.63947 0.17322,0.12433 0.29204,0.21302 0.38545,0.28652 0.0974,0.0778 0.028,0.0268 -0.0751,-0.0734 -0.0133,-0.0129 -0.0266,-0.0259 -0.0397,-0.039 -0.0119,-0.0118 -0.25232,-0.24073 -0.52449,-0.62405 a 5.6997243,5.6997243 90 0 0 9.2947,-6.59968 c -0.326,-0.45913 -0.65048,-0.77843 -0.74354,-0.87071 -0.0132,-0.0131 -0.0264,-0.0261 -0.0397,-0.039 -0.32111,-0.31226 -0.62146,-0.55253 -0.78083,-0.6794 -0.006,-0.005 -0.0113,-0.009 -0.017,-0.0135 -0.28712,-0.22681 -0.56396,-0.4301 -0.81786,-0.61233 -0.41687,-0.29852 -0.82852,-0.57973 -1.24283,-0.85642 -0.63235,-0.42179 -1.27582,-0.83564 -1.93975,-1.25121 -0.71313,-0.446 -1.45806,-0.89899 -2.23139,-1.35103 -0.54227,-0.31666 -1.12624,-0.6495 -1.73803,-0.9793 -0.36721,-0.19759 -0.78683,-0.41757 -1.23852,-0.63499 -0.25232,-0.121 -0.58423,-0.27569 -0.96151,-0.4268 -0.0102,-0.004 -0.0205,-0.008 -0.0307,-0.0122 -0.14953,-0.0589 -0.66437,-0.26623 -1.29753,-0.406 -0.0447,-0.01 -0.0895,-0.0192 -0.13443,-0.028 -0.20006,-0.0391 -0.40533,-0.0713 -0.44367,-0.0776 -0.008,-0.001 -0.016,-0.003 -0.0241,-0.004 -0.52993,-0.0843 -1.03418,-0.14385 -1.45718,-0.19152 -0.7958,-0.0893 -1.32849,-0.1407 -1.88592,-0.22434 -0.32093,-0.0482 -0.56606,-0.0956 -0.76362,-0.14486 -0.1546,-0.0386 -0.23851,-0.0686 -0.27287,-0.0823 -0.56793,-0.23662 -1.12869,-0.43571 -1.67184,-0.60613 -0.86964,-0.2728 -1.71359,-0.47894 -2.49269,-0.64662 -1.04514,-0.22468 -2.09923,-0.40536 -2.97203,-0.56116 -0.73444,-0.13118 -1.36751,-0.24826 -1.96922,-0.38322 -0.46608,-0.10471 -0.86328,-0.20939 -1.21309,-0.3222 -0.32828,-0.10983 -0.67224,-0.19872 -1.02961,-0.26193 l 0.0127,0.002 c -0.57832,-0.10365 -1.07934,-0.12349 -1.42532,-0.12483 -0.004,-10e-6 -0.007,-2e-5 -0.0107,-3e-5 -0.50083,-9.9e-4 -0.94173,0.0377 -1.27805,0.0764 -0.49427,0.0575 -0.9367,0.13574 -1.30223,0.20761 -0.67832,0.13391 -1.33131,0.29565 -1.81292,0.41319 -0.26508,0.0645 -0.44639,0.1086 -0.6205,0.14672 -0.0978,0.0212 -0.13087,0.0256 -0.0915,0.0196 0.009,-0.001 0.0182,-0.003 0.0273,-0.004 -0.79213,0.11628 -1.57579,0.23702 -2.34974,0.36109 -1.9538,0.31335 -3.88228,0.65276 -5.78428,1.01521 -2.27251,0.43339 -4.513303,0.90093 -6.726796,1.40935 -2.025944,0.46565 -4.021391,0.96366 -5.992193,1.50636 -1.715565,0.47274 -3.403504,0.97665 -5.068855,1.52681 -1.421184,0.46988 -2.818642,0.97078 -4.195205,1.51948 -1.12853,0.45022 -2.237683,0.93023 -3.327722,1.4562 -0.952487,0.46005 -1.889439,0.95435 -2.806297,1.50116 -0.830683,0.49602 -1.649581,1.03732 -2.442413,1.64616 -0.298828,0.22855 -0.615244,0.49116 -0.735008,0.58891 -1.9444,1.58933 -3.835364,3.10792 -5.620205,4.58356 -1.766966,1.46084 -3.33422,2.79691 -4.823926,4.13585 0.01195,-0.0108 -0.248517,0.22395 -0.233222,0.21018 -0.388017,0.35017 -0.775846,0.70319 -1.165142,1.06822 -0.697689,0.65432 -1.387484,1.33532 -2.054184,2.06932 -0.602188,0.66327 -1.170274,1.35291 -1.693833,2.08612 -0.531979,0.7453 -1.000268,1.5113 -1.398024,2.30715 -0.43549,0.87116 -0.760232,1.72759 -0.990991,2.55869 -0.283858,1.02052 -0.401543,1.91973 -0.447022,2.62408 a 5.6997243,5.6997243 90 0 0 11.37576,0.73452 z"
       id="path-1"
       style="fill:#1e0528;fill-opacity:1;fill-rule:nonzero;stroke:none;stroke-width:4.685;stroke-linecap:round;stroke-miterlimit:0;stroke-dashoffset:2.26772;paint-order:markers fill stroke"
       transform="translate(-4.7838687,-14.275877)" />
  </g>
</svg>
