<?xml version="1.0" encoding="UTF-8" standalone="no"?>
<!-- Created with Inkscape (http://www.inkscape.org/) -->

<svg
   width="180"
   height="180"
   viewBox="0 0 180 180"
   version="1.1"
   id="svg1"
   inkscape:version="1.3.2 (091e20e, 2023-11-25)"
   sodipodi:docname="edit.svg"
   xmlns:inkscape="http://www.inkscape.org/namespaces/inkscape"
   xmlns:sodipodi="http://sodipodi.sourceforge.net/DTD/sodipodi-0.dtd"
   xmlns="http://www.w3.org/2000/svg"
   xmlns:svg="http://www.w3.org/2000/svg">
  <sodipodi:namedview
     id="namedview1"
     pagecolor="#505050"
     bordercolor="#eeeeee"
     borderopacity="1"
     inkscape:showpageshadow="0"
     inkscape:pageopacity="0"
     inkscape:pagecheckerboard="0"
     inkscape:deskcolor="#505050"
     inkscape:document-units="px"
     inkscape:zoom="0.75137694"
     inkscape:cx="-35.268583"
     inkscape:cy="85.176956"
     inkscape:window-width="1280"
     inkscape:window-height="675"
     inkscape:window-x="0"
     inkscape:window-y="25"
     inkscape:window-maximized="1"
     inkscape:current-layer="layer1" />
  <defs
     id="defs1">
    <inkscape:path-effect
       effect="powerstroke"
       id="path-effect4"
       is_visible="true"
       lpeversion="1.3"
       scale_width="1"
       interpolator_type="CentripetalCatmullRom"
       interpolator_beta="0.75"
       start_linecap_type="round"
       end_linecap_type="round"
       offset_points="5.9864298,8.811923"
       linejoin_type="spiro"
       miter_limit="4"
       not_jump="true"
       sort_points="true"
       message="&lt;b&gt;Ctrl + click&lt;/b&gt; on existing node and move it" />
    <inkscape:path-effect
       effect="simplify"
       id="path-effect3"
       is_visible="true"
       lpeversion="1.3"
       threshold="0.012"
       steps="1"
       smooth_angles="0"
       helper_size="0"
       simplify_individual_paths="false"
       simplify_just_coalesce="false"
       step="1" />
  </defs>
  <g
     inkscape:label="Layer 1"
     inkscape:groupmode="layer"
     id="layer1">
    <path
       id="rect2"
       style="fill:#e1cde1;fill-opacity:1;stroke-width:3;stroke-linecap:round;stroke-linejoin:round;stroke-dashoffset:2.26772"
       d="m 42.370201,25.841736 h 80.994449 c 10.61818,0 21.67638,1.134626 21.67638,22.296608 v 98.608686 c 0,4.10582 -3.3054,7.41123 -7.41123,7.41123 H 42.370201 c -4.105822,0 -7.411232,-3.30541 -7.411232,-7.41123 V 33.252968 c 0,-4.105822 3.30541,-7.411232 7.411232,-7.411232 z"
       sodipodi:nodetypes="sssssssss" />
    <path
       d="m 61.669147,120.93167 c 0.01263,-0.22124 0.03749,-0.53158 0.0918,-0.95813 0.05581,-0.43653 0.137435,-0.95067 0.258014,-1.54091 0.121128,-0.59185 0.276208,-1.23244 0.475233,-1.90088 0.168666,-0.5658 0.364563,-1.13642 0.593084,-1.6915 0.172927,-0.41964 0.356091,-0.80927 0.549995,-1.16106 0.150611,-0.27301 0.29039,-0.49108 0.415495,-0.6602 0.0016,-0.002 0.0032,-0.004 0.0048,-0.007 0.09829,-0.13219 0.161255,-0.19779 0.179924,-0.21574 0.0043,-0.004 -0.03682,0.0414 -0.181279,0.13187 -0.04941,0.031 -0.114208,0.0685 -0.194489,0.10868 0.564854,-0.2822 1.091785,-0.52223 1.588198,-0.7154 0.375715,-0.14587 0.664806,-0.23747 0.885294,-0.29193 0.152936,-0.0377 0.209947,-0.037 0.131127,-0.0317 -0.06702,0.004 -0.259472,0.0124 -0.546777,-0.0319 -0.25072,-0.0385 -0.538817,-0.11216 -0.845072,-0.23845 -0.276026,-0.11434 -0.485614,-0.23817 -0.633707,-0.34061 -0.153578,-0.10609 -0.188225,-0.15179 -0.125534,-0.0902 0.08621,0.0847 0.226683,0.23454 0.495476,0.54805 0.415549,0.48526 0.702616,0.83784 1.121518,1.32701 0.474235,0.55239 1.062497,1.21152 1.744063,1.88281 0.657115,0.64792 1.409194,1.31487 2.259313,1.95183 0.862081,0.64676 1.798443,1.24146 2.799543,1.76156 0.134857,0.0703 0.512912,0.26771 0.97642,0.46478 0.662403,0.28233 1.268304,0.47672 1.752951,0.61398 0.666425,0.18802 1.272964,0.31625 1.78163,0.41017 0.67996,0.12502 1.311596,0.21183 1.862288,0.27842 0.872816,0.1053 1.769271,0.18391 2.409172,0.24498 0.357016,0.0343 0.619489,0.061 0.853585,0.0904 0.04044,0.005 0.07997,0.0104 0.110415,0.0147 -0.06546,-0.0133 -0.106254,-0.026 0.02147,0.005 0.163197,0.0403 0.432766,0.1126 0.813686,0.20805 0.464641,0.11656 1.158161,0.28249 1.951311,0.40433 0.588236,0.09 1.339456,0.17401 2.197645,0.17405 0.736862,-3.6e-4 1.644873,-0.0618 2.649254,-0.28555 0.897533,-0.19954 1.888914,-0.53427 2.888232,-1.07511 0.967296,-0.5232 1.851395,-1.19111 2.619911,-1.98005 0.0087,-0.009 0.01741,-0.0179 0.02609,-0.0269 0.736143,-0.76217 1.321625,-1.60939 1.76316,-2.48929 0.497173,-0.99028 0.75829,-1.91255 0.903807,-2.62618 0.165258,-0.81137 0.210269,-1.49879 0.228382,-1.895 0.03411,-0.75605 0.0294,-1.03043 0.01734,-0.82623 -0.0058,0.0959 -0.0296,0.46747 -0.147419,0.9705 l 0.01335,-0.0579 c -0.111378,0.49039 -0.200991,0.70983 -0.189903,0.67797 0.0037,-0.0107 0.0074,-0.0214 0.01111,-0.0321 0.04357,-0.12672 0.12352,-0.32977 0.286885,-0.69199 0.217861,-0.48305 0.564814,-1.18483 0.969037,-2.13617 0.270487,-0.63614 0.567511,-1.39857 0.826781,-2.25369 0.23497,-0.77374 0.43672,-1.61771 0.57234,-2.51859 0.0833,-0.54964 0.12768,-1.04583 0.15483,-1.38933 4.9e-4,-0.006 9.8e-4,-0.0124 0.001,-0.0186 0.0776,-1.00939 0.0851,-1.95631 0.065,-2.79923 -0.0245,-1.007169 -0.0909,-1.956793 -0.16234,-2.799823 -0.11762,-1.383203 -0.2566,-2.608619 -0.35373,-3.686727 -0.0704,-0.781928 -0.11764,-1.446843 -0.13611,-2.058257 -0.0149,-0.498089 -0.008,-0.900965 0.0152,-1.237749 0.0211,-0.300652 0.0529,-0.498092 0.0791,-0.617953 0.0133,-0.06109 0.0234,-0.09202 0.0253,-0.09767 0.003,-0.008 0.005,-0.01608 0.008,-0.02412 0.14981,-0.445941 0.32983,-0.917476 0.54182,-1.424011 0.26277,-0.627238 0.55843,-1.268448 0.88372,-1.925761 0.39204,-0.791652 0.81511,-1.581834 1.26449,-2.369463 0.46607,-0.816446 0.95172,-1.614652 1.45496,-2.391996 0.42587,-0.657468 0.85418,-1.284391 1.28777,-1.881034 0.25045,-0.34469 0.50066,-0.675326 0.75152,-0.992927 0.3898,-0.493546 0.77805,-0.954417 1.16713,-1.384698 0.35857,-0.396296 0.69964,-0.746303 1.02789,-1.055602 0.28274,-0.266209 0.52945,-0.477012 0.74641,-0.644737 0.17783,-0.13734 0.30048,-0.218046 0.37407,-0.262163 0.062,-0.03712 0.0401,-0.01813 -0.058,0.02201 -0.0783,0.03203 -0.21861,0.08382 -0.41693,0.132262 l 0.0229,-0.0056 c 0.16094,-0.03977 0.35206,-0.08208 0.59149,-0.130742 0.41452,-0.08392 0.84337,-0.158904 1.27875,-0.225007 0.54662,-0.08274 1.06398,-0.144991 1.55439,-0.187422 0.43554,-0.03748 0.80919,-0.05571 1.13617,-0.05828 0.2581,-0.0019 0.43313,0.0068 0.54799,0.0169 0.0893,0.008 0.0708,0.01118 -0.0218,-0.0087 -0.0802,-0.01728 -0.31009,-0.07069 -0.62901,-0.198857 -0.004,-0.0015 -0.007,-0.003 -0.0111,-0.0045 -0.28852,-0.116403 -0.80276,-0.355022 -1.38617,-0.797361 -0.60938,-0.461634 -1.28198,-1.129752 -1.84432,-2.089416 -0.62749,-1.061933 -0.90678,-2.16109 -0.98561,-3.105243 -0.0181,-0.219112 -0.0242,-0.415421 -0.0242,-0.583875 a 8.811923,8.811923 90 0 0 17.62384,1.72e-4 c 10e-6,-0.266077 -0.01,-0.570333 -0.0388,-0.904802 l 0.002,0.02599 c -0.11239,-1.352127 -0.51022,-2.884067 -1.38761,-4.369101 l 0.0189,0.03207 c -0.77413,-1.322965 -1.75771,-2.323053 -2.71942,-3.051595 -0.95886,-0.727004 -1.90517,-1.194137 -2.6648,-1.500613 -0.004,-0.0015 -0.007,-0.003 -0.0111,-0.0045 -0.82944,-0.333327 -1.59967,-0.540893 -2.23985,-0.678847 -0.77885,-0.166922 -1.49472,-0.259654 -2.12224,-0.31564 -0.80079,-0.07078 -1.55115,-0.09045 -2.23958,-0.08548 -0.87726,0.0069 -1.71748,0.0541 -2.51846,0.123023 -0.90787,0.07855 -1.80012,0.187944 -2.68094,0.321276 -0.69562,0.105614 -1.40998,0.229736 -2.14073,0.377673 -0.39025,0.07932 -0.83304,0.174534 -1.30554,0.291087 -0.75321,0.184741 -1.44266,0.420383 -2.06205,0.673709 -0.87825,0.359461 -1.65459,0.769214 -2.32592,1.17118 -0.77884,0.46689 -1.474478,0.957542 -2.092184,1.434605 -0.752158,0.581461 -1.434254,1.177558 -2.054379,1.761429 -0.723016,0.681267 -1.391667,1.373954 -2.014524,2.062347 -0.677287,0.749013 -1.317701,1.511896 -1.927132,2.283529 -0.405043,0.512807 -0.797535,1.032094 -1.178447,1.556327 -0.639204,0.879595 -1.245469,1.769164 -1.823611,2.661714 -0.6844,1.057182 -1.340404,2.135706 -1.968468,3.235927 -0.604672,1.059805 -1.192166,2.154811 -1.75232,3.285959 -0.462786,0.935133 -0.917101,1.915045 -1.345591,2.937894 -0.341253,0.81537 -0.678454,1.686579 -0.988236,2.607686 -0.227753,0.673268 -0.407425,1.337504 -0.548497,1.983309 -0.243856,1.116 -0.374194,2.17995 -0.442144,3.147653 -0.07495,1.071747 -0.07774,2.08253 -0.05036,2.998933 0.03362,1.112975 0.1144,2.167625 0.199181,3.109592 0.121134,1.344631 0.256192,2.54223 0.345852,3.596636 0.05583,0.658983 0.09186,1.222069 0.104325,1.734449 0.01009,0.42178 0.0024,0.7504 -0.01751,1.0138 -0.012,0.14945 -0.02006,0.19474 -0.01116,0.136 0.0046,-0.0309 0.0067,-0.024 -0.01073,0.0336 -0.02326,0.0767 -0.0732,0.22171 -0.181731,0.47696 -0.157726,0.37121 -0.442671,0.95892 -0.815035,1.78455 -0.262922,0.58296 -0.585905,1.33333 -0.879405,2.18348 -0.02842,0.0817 -0.200071,0.5615 -0.339105,1.16037 -0.19526,0.83844 -0.256695,1.55404 -0.282745,1.98837 -0.04966,0.84104 -0.03587,1.1965 -0.03032,1.07363 0.0019,-0.0411 0.01548,-0.36839 0.108425,-0.82471 0.0848,-0.41589 0.254292,-1.04353 0.613979,-1.76041 0.32385,-0.64499 0.757338,-1.27477 1.311469,-1.84849 0.0087,-0.009 0.01737,-0.0179 0.02608,-0.0269 0.474638,-0.48726 1.019499,-0.89914 1.617879,-1.22305 0.615343,-0.33276 1.192238,-0.52117 1.67002,-0.62739 0.51891,-0.11558 0.933134,-0.13515 1.17511,-0.13527 0.29502,10e-6 0.449545,0.0253 0.476902,0.0295 0.0457,0.007 -0.0711,-0.0123 -0.336049,-0.0788 -0.188421,-0.0472 -0.483392,-0.1268 -0.887543,-0.22641 -0.0036,-8.8e-4 -0.0072,-0.002 -0.01077,-0.003 -0.242848,-0.0595 -0.658727,-0.15925 -1.144054,-0.24422 -0.01181,-0.002 -0.02362,-0.004 -0.03544,-0.006 -0.366106,-0.0626 -0.696862,-0.1074 -0.954006,-0.13987 -0.516422,-0.0647 -0.999289,-0.11199 -1.373509,-0.14793 -0.841627,-0.0803 -1.391524,-0.12759 -1.975675,-0.19806 -0.337426,-0.0408 -0.585212,-0.0776 -0.782166,-0.11385 -0.143079,-0.0264 -0.203641,-0.0437 -0.181035,-0.0374 0.02224,0.006 0.1454,0.0398 0.36351,0.13279 0.231603,0.0989 0.307317,0.14458 0.247062,0.11319 -0.123059,-0.0639 -0.241965,-0.13817 -0.361453,-0.22782 -0.124384,-0.0932 -0.276744,-0.22224 -0.46092,-0.40384 -0.201989,-0.19895 -0.43741,-0.45463 -0.745729,-0.81376 -0.341077,-0.39684 -0.769446,-0.91736 -1.107337,-1.31049 -0.393925,-0.459459 -0.911093,-1.046943 -1.525747,-1.651095 -0.5885,-0.578173 -1.319907,-1.224873 -2.205747,-1.836819 -0.79012,-0.546528 -1.677986,-1.045696 -2.656152,-1.449702 -1.075148,-0.444631 -2.157292,-0.731725 -3.20443,-0.892489 -1.21741,-0.187993 -2.347895,-0.198647 -3.315852,-0.133744 -1.212012,0.08149 -2.28952,0.287885 -3.170191,0.504711 -1.161879,0.286986 -2.193601,0.643867 -3.050567,0.976596 -1.151165,0.447954 -2.190966,0.932134 -3.082207,1.377402 -0.470196,0.235087 -0.896374,0.478702 -1.2799,0.718875 -1.088467,0.681548 -1.978296,1.426247 -2.679028,2.099785 -0.887529,0.85328 -1.585278,1.70093 -2.110624,2.40746 -0.01078,0.0145 -0.01985,0.0267 -0.02888,0.0389 -0.68071,0.92018 -1.233372,1.82154 -1.680026,2.6312 -0.577671,1.04802 -1.040176,2.05524 -1.412714,2.95929 -0.494476,1.20108 -0.881161,2.3435 -1.187601,3.37148 -0.363348,1.22032 -0.63925,2.36466 -0.85161,3.40228 -0.211597,1.03578 -0.363667,1.98146 -0.473544,2.8409 -0.10707,0.84083 -0.16919,1.55881 -0.204902,2.18459 a 8.811923,8.811923 90 0 0 17.595218,1.00412 z"
       id="path-1"
       inkscape:path-effect="#path-effect3;#path-effect4"
       inkscape:original-d="m 52.871538,120.42961 c 0.247656,-4.3663 2.327273,-12.91286 7.049538,-15.274 11.375989,-5.68799 10.158482,2.43567 17.036385,5.87462 1.681591,0.8408 5.18391,0.86398 7.049538,1.17492 1.423313,0.23722 3.927974,1.35918 5.287154,0 0.728092,-0.72809 0.278901,-2.01163 0.587461,-2.93731 0.720014,-2.16004 2.076674,-4.00353 2.349846,-6.46207 0.537775,-4.839977 -1.53681,-11.251032 0,-15.861463 1.386226,-4.158678 4.392549,-9.381501 7.049539,-12.924154 1.779801,-2.373067 5.138031,-6.27793 8.224461,-7.049538 2.50175,-0.625438 11.16177,-2.071738 11.16177,1.174923"
       style="fill:#968796;fill-opacity:1;fill-rule:nonzero;stroke:none;stroke-width:3;stroke-linecap:round;stroke-linejoin:round;stroke-dashoffset:2.26772" />
    <path
       id="rect1"
       style="fill:#ffffff;stroke-width:2.62138;stroke-linecap:round;stroke-linejoin:round;stroke-dashoffset:2.26772"
       d="M 24.804734,13.080728 44.239668,7.8731536 c 1.624079,-0.435167 3.281889,0.521969 3.717061,2.1460464 l 22.155556,82.685704 c 0.435172,1.62409 -8.08008,14.210656 -9.70417,14.645866 l -0.05146,0.0138 c -1.624065,0.43522 -15.107211,-6.257 -15.542371,-7.881066 L 22.658702,16.797794 c -0.435173,-1.624077 0.52196,-3.28188 2.146044,-3.717059 z"
       sodipodi:nodetypes="sssssssss" />
  </g>
</svg>
