<?xml version="1.0" encoding="UTF-8" standalone="no"?>
<!-- Created with Inkscape (http://www.inkscape.org/) -->

<svg
   width="180"
   height="180"
   viewBox="0 0 180 180"
   version="1.1"
   id="svg1"
   inkscape:version="1.3.2 (091e20e, 2023-11-25)"
   sodipodi:docname="error.svg"
   xmlns:inkscape="http://www.inkscape.org/namespaces/inkscape"
   xmlns:sodipodi="http://sodipodi.sourceforge.net/DTD/sodipodi-0.dtd"
   xmlns="http://www.w3.org/2000/svg"
   xmlns:svg="http://www.w3.org/2000/svg">
  <sodipodi:namedview
     id="namedview1"
     pagecolor="#505050"
     bordercolor="#eeeeee"
     borderopacity="1"
     inkscape:showpageshadow="0"
     inkscape:pageopacity="0"
     inkscape:pagecheckerboard="0"
     inkscape:deskcolor="#505050"
     inkscape:document-units="px"
     inkscape:zoom="0.83774821"
     inkscape:cx="-50.731234"
     inkscape:cy="129.51386"
     inkscape:window-width="1280"
     inkscape:window-height="772"
     inkscape:window-x="0"
     inkscape:window-y="28"
     inkscape:window-maximized="0"
     inkscape:current-layer="layer2" />
  <defs
     id="defs1">
    <inkscape:path-effect
       effect="powerstroke"
       id="path-effect14"
       is_visible="true"
       lpeversion="1.3"
       scale_width="1"
       interpolator_type="CentripetalCatmullRom"
       interpolator_beta="0.75"
       start_linecap_type="round"
       end_linecap_type="round"
       offset_points="16.578174,7.9584592 | 33.175277,9.0202157"
       linejoin_type="spiro"
       miter_limit="4"
       not_jump="true"
       sort_points="true"
       message="&lt;b&gt;Ctrl + click&lt;/b&gt; on existing node and move it" />
    <inkscape:path-effect
       effect="simplify"
       id="path-effect13"
       is_visible="true"
       lpeversion="1.3"
       threshold="0.012"
       steps="1"
       smooth_angles="0"
       helper_size="0"
       simplify_individual_paths="false"
       simplify_just_coalesce="false"
       step="1" />
    <inkscape:path-effect
       effect="powerstroke"
       id="path-effect12"
       is_visible="true"
       lpeversion="1.3"
       scale_width="1"
       interpolator_type="CentripetalCatmullRom"
       interpolator_beta="0.75"
       start_linecap_type="round"
       end_linecap_type="round"
       offset_points="23.376677,7.2542293"
       linejoin_type="spiro"
       miter_limit="4"
       not_jump="true"
       sort_points="true"
       message="&lt;b&gt;Ctrl + click&lt;/b&gt; on existing node and move it" />
    <inkscape:path-effect
       effect="simplify"
       id="path-effect11"
       is_visible="true"
       lpeversion="1.3"
       threshold="0.012"
       steps="1"
       smooth_angles="0"
       helper_size="0"
       simplify_individual_paths="false"
       simplify_just_coalesce="false"
       step="1" />
    <inkscape:path-effect
       effect="powerstroke"
       id="path-effect10"
       is_visible="true"
       lpeversion="1.3"
       scale_width="1"
       interpolator_type="CentripetalCatmullRom"
       interpolator_beta="0.75"
       start_linecap_type="round"
       end_linecap_type="round"
       offset_points="69.672282,7.6456234"
       linejoin_type="spiro"
       miter_limit="4"
       not_jump="true"
       sort_points="true"
       message="&lt;b&gt;Ctrl + click&lt;/b&gt; on existing node and move it" />
    <inkscape:path-effect
       effect="simplify"
       id="path-effect9"
       is_visible="true"
       lpeversion="1.3"
       threshold="0.012"
       steps="1"
       smooth_angles="0"
       helper_size="0"
       simplify_individual_paths="false"
       simplify_just_coalesce="false"
       step="1" />
    <inkscape:path-effect
       effect="powerstroke"
       id="path-effect8"
       is_visible="true"
       lpeversion="1.3"
       scale_width="1"
       interpolator_type="CentripetalCatmullRom"
       interpolator_beta="0.75"
       start_linecap_type="round"
       end_linecap_type="round"
       offset_points="35.364326,6.5723452"
       linejoin_type="spiro"
       miter_limit="4"
       not_jump="true"
       sort_points="true"
       message="&lt;b&gt;Ctrl + click&lt;/b&gt; on existing node and move it" />
    <inkscape:path-effect
       effect="simplify"
       id="path-effect7"
       is_visible="true"
       lpeversion="1.3"
       threshold="0.012"
       steps="1"
       smooth_angles="0"
       helper_size="0"
       simplify_individual_paths="false"
       simplify_just_coalesce="false"
       step="1" />
    <inkscape:path-effect
       effect="powerstroke"
       id="path-effect6"
       is_visible="true"
       lpeversion="1.3"
       scale_width="1"
       interpolator_type="CentripetalCatmullRom"
       interpolator_beta="0.75"
       start_linecap_type="round"
       end_linecap_type="round"
       offset_points="1.6182826,7.6679691"
       linejoin_type="spiro"
       miter_limit="4"
       not_jump="true"
       sort_points="true"
       message="&lt;b&gt;Ctrl + click&lt;/b&gt; on existing node and move it" />
    <inkscape:path-effect
       effect="simplify"
       id="path-effect5"
       is_visible="true"
       lpeversion="1.3"
       threshold="0.012"
       steps="1"
       smooth_angles="0"
       helper_size="0"
       simplify_individual_paths="false"
       simplify_just_coalesce="false"
       step="1" />
    <inkscape:path-effect
       effect="powerstroke"
       id="path-effect4"
       is_visible="true"
       lpeversion="1.3"
       scale_width="1"
       interpolator_type="CentripetalCatmullRom"
       interpolator_beta="0.75"
       start_linecap_type="round"
       end_linecap_type="round"
       offset_points="25.773028,6.9022889"
       linejoin_type="spiro"
       miter_limit="4"
       not_jump="true"
       sort_points="true"
       message="&lt;b&gt;Ctrl + click&lt;/b&gt; on existing node and move it" />
    <inkscape:path-effect
       effect="simplify"
       id="path-effect3"
       is_visible="true"
       lpeversion="1.3"
       threshold="0.012"
       steps="1"
       smooth_angles="0"
       helper_size="0"
       simplify_individual_paths="false"
       simplify_just_coalesce="false"
       step="1" />
    <inkscape:path-effect
       effect="powerstroke"
       id="path-effect2"
       is_visible="true"
       lpeversion="1.3"
       scale_width="1"
       interpolator_type="CentripetalCatmullRom"
       interpolator_beta="0.75"
       start_linecap_type="round"
       end_linecap_type="round"
       offset_points="9.407258,6.5108955"
       linejoin_type="spiro"
       miter_limit="4"
       not_jump="true"
       sort_points="true"
       message="&lt;b&gt;Ctrl + click&lt;/b&gt; on existing node and move it" />
    <inkscape:path-effect
       effect="simplify"
       id="path-effect1"
       is_visible="true"
       lpeversion="1.3"
       threshold="0.012"
       steps="1"
       smooth_angles="0"
       helper_size="0"
       simplify_individual_paths="false"
       simplify_just_coalesce="false"
       step="1" />
  </defs>
  <g
     inkscape:groupmode="layer"
     id="layer2"
     inkscape:label="Layer 2"
     transform="matrix(1.3704806,0,0,1.3704806,-37.509068,-38.944397)">
    <path
       d="m 67.034913,52.01672 c -0.01336,0.0032 -0.02796,0.0067 -0.04375,0.01049 -0.07901,0.01894 -0.157689,0.03928 -0.235985,0.061 -0.01404,0.0039 -0.02899,0.008 -0.04481,0.01243 -0.07258,0.02013 -0.144817,0.04145 -0.216695,0.06395 -0.01458,0.0046 -0.02988,0.0094 -0.04587,0.01436 -0.06667,0.02087 -0.133017,0.04275 -0.199021,0.06563 -0.01505,0.0052 -0.03069,0.01064 -0.04691,0.01626 -0.06128,0.02124 -0.122249,0.04335 -0.182902,0.06631 -0.01548,0.0059 -0.03147,0.01191 -0.04795,0.01815 -0.05637,0.02134 -0.112453,0.04342 -0.168242,0.06622 -0.01588,0.0065 -0.03221,0.01317 -0.04897,0.02002 -0.05191,0.02122 -0.103559,0.04308 -0.154936,0.06556 -0.01627,0.0071 -0.03294,0.01441 -0.04998,0.02187 -0.04787,0.02095 -0.09549,0.04243 -0.142873,0.06446 -0.01664,0.0077 -0.03364,0.01564 -0.05098,0.0237 -0.0442,0.02055 -0.08818,0.04157 -0.131939,0.06305 -0.01701,0.0083 -0.03433,0.01685 -0.05197,0.02551 -0.04088,0.02007 -0.08156,0.04054 -0.12203,0.06141 -0.01736,0.009 -0.03501,0.01806 -0.05294,0.0273 -0.03786,0.01953 -0.07555,0.03941 -0.113045,0.05963 -0.0177,0.0095 -0.03568,0.01924 -0.05391,0.02908 -0.03513,0.01895 -0.0701,0.0382 -0.104891,0.05776 -0.01804,0.01014 -0.03633,0.02042 -0.05486,0.03083 -0.03265,0.01835 -0.06514,0.03696 -0.09748,0.05584 -0.01838,0.01073 -0.03698,0.02158 -0.0558,0.03257 -0.03039,0.01773 -0.06063,0.0357 -0.09075,0.0539 -0.0187,0.0113 -0.03762,0.02273 -0.05674,0.03429 -0.02833,0.01712 -0.05653,0.03444 -0.08461,0.05197 -0.01902,0.01187 -0.03824,0.02387 -0.05765,0.03598 -0.02645,0.01651 -0.05279,0.0332 -0.07901,0.05006 -0.01934,0.01244 -0.03886,0.02499 -0.05856,0.03766 -0.02474,0.01591 -0.04937,0.03198 -0.0739,0.0482 -0.01965,0.01299 -0.03947,0.0261 -0.05946,0.03932 -0.02317,0.01532 -0.04624,0.03079 -0.06923,0.04639 -0.01996,0.01355 -0.04007,0.0272 -0.06034,0.04096 -0.02173,0.01475 -0.04338,0.02963 -0.06494,0.04463 -0.02026,0.01409 -0.04067,0.02829 -0.06122,0.04259 -0.02041,0.0142 -0.04075,0.02851 -0.06101,0.04293 -0.02055,0.01463 -0.04125,0.02936 -0.06208,0.04419 -0.0192,0.01367 -0.03833,0.02743 -0.05739,0.0413 -0.02085,0.01516 -0.04182,0.03042 -0.06293,0.04577 -0.01809,0.01316 -0.03611,0.0264 -0.05406,0.03973 -0.02113,0.01569 -0.04239,0.03147 -0.06377,0.04734 -0.01706,0.01266 -0.03406,0.0254 -0.051,0.03822 -0.02142,0.01621 -0.04295,0.03251 -0.0646,0.04889 -0.01611,0.01219 -0.03216,0.02445 -0.04816,0.03678 -0.0217,0.01672 -0.0435,0.03353 -0.06541,0.05041 -0.01523,0.01173 -0.03041,0.02353 -0.04554,0.0354 -0.02197,0.01723 -0.04405,0.03454 -0.06622,0.05192 -0.01442,0.0113 -0.02879,0.02266 -0.04311,0.03408 -0.01721,0.01372 -0.03448,0.02748 -0.0518,0.04129 -0.005,0.004 -0.01011,0.0081 -0.01521,0.01212 -0.01366,0.01089 -0.02728,0.02182 -0.04086,0.03282 -0.02207,0.01787 -0.04467,0.03616 -0.0678,0.05488 -0.01296,0.01049 -0.02588,0.02103 -0.03876,0.03161 -0.02238,0.01839 -0.04524,0.03717 -0.06857,0.05633 -0.01231,0.01011 -0.02458,0.02026 -0.03681,0.03046 -0.02268,0.01889 -0.04579,0.03815 -0.06933,0.05776 -0.0117,0.0097 -0.02336,0.01953 -0.035,0.02936 -0.02296,0.01939 -0.04632,0.03912 -0.07007,0.05918 -0.01113,0.0094 -0.02223,0.01884 -0.0333,0.02831 -0.02324,0.01988 -0.04685,0.04007 -0.07081,0.06057 -0.0106,0.0091 -0.02118,0.01817 -0.03172,0.0273 -0.02351,0.02036 -0.04736,0.04101 -0.07153,0.06194 -0.01011,0.0088 -0.02019,0.01753 -0.03024,0.02634 -0.02377,0.02083 -0.04786,0.04193 -0.07225,0.0633 -0.0096,0.0084 -0.01926,0.01693 -0.02886,0.02543 -0.02403,0.02129 -0.04835,0.04284 -0.07295,0.06464 -0.0092,0.0082 -0.01839,0.01634 -0.02756,0.02455 -0.02427,0.02174 -0.04882,0.04373 -0.07364,0.06596 -0.0088,0.0079 -0.01758,0.01579 -0.02634,0.02371 -0.02452,0.02219 -0.04929,0.04461 -0.07432,0.06726 -0.0084,0.0076 -0.01681,0.01525 -0.02519,0.02291 -0.02475,0.02263 -0.04975,0.04547 -0.07499,0.06854 -0.0081,0.0074 -0.01609,0.01474 -0.02411,0.02214 -0.02499,0.02306 -0.05021,0.04633 -0.07565,0.0698 -0.0077,0.0071 -0.01541,0.01426 -0.0231,0.02141 -0.02521,0.02348 -0.05065,0.04716 -0.07629,0.07104 -0.0074,0.0069 -0.01478,0.01379 -0.02214,0.02071 -0.02544,0.0239 -0.05108,0.04799 -0.07693,0.07227 -0.0071,0.0067 -0.01417,0.01334 -0.02124,0.02004 -0.02566,0.02431 -0.05151,0.0488 -0.07755,0.07347 -0.0068,0.0065 -0.0136,0.01291 -0.02038,0.01939 -0.02587,0.02471 -0.05192,0.0496 -0.07816,0.07466 -0.0065,0.0062 -0.01306,0.0125 -0.01957,0.01877 -0.02608,0.02511 -0.05233,0.05038 -0.07876,0.07582 -0.0063,0.006 -0.01255,0.01211 -0.01881,0.01818 -0.02628,0.0255 -0.05273,0.05115 -0.07935,0.07697 -0.006,0.0059 -0.01207,0.01173 -0.01808,0.01761 -0.02648,0.02588 -0.05313,0.05191 -0.07992,0.0781 -0.0058,0.0057 -0.01161,0.01136 -0.0174,0.01706 -0.02668,0.02626 -0.05351,0.05266 -0.08049,0.07921 -0.0056,0.0055 -0.01117,0.01101 -0.01675,0.01654 -0.02687,0.02663 -0.05389,0.05339 -0.08104,0.0803 -0.0054,0.0053 -0.01076,0.01068 -0.01613,0.01603 -0.02706,0.02699 -0.05426,0.05411 -0.08158,0.08137 -0.0052,0.0052 -0.01037,0.01036 -0.01554,0.01555 -0.02724,0.02735 -0.05462,0.05482 -0.08212,0.08242 -0.005,0.005 -0.01,0.01004 -0.01497,0.01508 -0.02742,0.02769 -0.05497,0.05552 -0.08264,0.08346 -0.0048,0.0049 -0.0096,0.0097 -0.01444,0.01463 -0.0276,0.02804 -0.05531,0.0562 -0.08314,0.08447 -0.0047,0.0047 -0.0093,0.0095 -0.01393,0.0142 -0.02777,0.02838 -0.05565,0.05687 -0.08364,0.08547 -0.104982,0.10757 -0.2023,0.208145 -0.298866,0.308693 -0.543753,0.566345 -1.064766,1.132118 -1.564811,1.687245 -0.640832,0.71174 -1.262934,1.423795 -1.869486,2.128924 -0.720038,0.83726 -1.426402,1.674758 -2.121768,2.505356 -0.634877,0.758343 -1.267782,1.519967 -1.88969,2.266213 -0.507268,0.608508 -1.002992,1.202112 -1.498876,1.786972 -0.372954,0.439527 -0.726176,0.851323 -1.075497,1.245191 -0.196294,0.221028 -0.367202,0.409233 -0.526489,0.576954 -0.02762,0.02905 -0.05485,0.05737 -0.08003,0.08322 -0.0049,0.005 -0.0167,0.01703 -0.02853,0.0291 0.0014,-0.0014 -0.0097,0.0098 -0.02089,0.02108 0.0031,-0.0031 -0.0073,0.0073 -0.01778,0.01775 0.005,-0.0049 -0.0047,0.0047 -0.01443,0.01423 0.007,-0.0068 -0.0019,0.0019 -0.01079,0.01051 0.0092,-0.0088 0.0012,-0.0011 -0.0068,0.0066 0.01167,-0.01105 0.0046,-0.0043 -0.0025,0.0024 0.01442,-0.01342 0.0084,-0.0078 0.0023,-0.0021 0.0175,-0.016 0.01254,-0.01147 0.0076,-0.0069 0.02096,-0.0188 0.01722,-0.01545 0.01348,-0.01209 0.02489,-0.02185 0.0225,-0.01976 0.02011,-0.01766 0.02937,-0.02519 0.02849,-0.02444 0.02762,-0.02369 -3.69e-4,3.08e-4 -7.38e-4,6.17e-4 -0.0011,9.25e-4 l 0.07499,-0.06181 c -0.0112,0.0091 -0.02241,0.01821 -0.03362,0.02732 l 0.08438,-0.06746 c -0.01081,0.0085 -0.02163,0.01701 -0.03244,0.02552 l 0.0955,-0.07379 c -0.01041,0.0079 -0.02083,0.01581 -0.03125,0.02371 l 0.108791,-0.08088 c -0.01001,0.0073 -0.02003,0.01459 -0.03004,0.02188 l 0.124813,-0.0888 c -0.0096,0.0067 -0.01922,0.01336 -0.02883,0.02003 l 0.144304,-0.0976 c -0.0092,0.0061 -0.0184,0.01211 -0.0276,0.01816 l 0.168248,-0.107274 c -0.0088,0.0054 -0.01758,0.01085 -0.02636,0.01628 l 0.197954,-0.117711 c -0.0084,0.0048 -0.01674,0.0096 -0.02511,0.01437 l 0.235172,-0.128587 c -0.008,0.0042 -0.0159,0.0083 -0.02385,0.01244 l 0.282226,-0.13918 c -0.0075,0.0035 -0.01506,0.007 -0.02257,0.0105 l 0.34215,-0.148037 c -0.0071,0.0028 -0.0142,0.0057 -0.02129,0.0085 l 0.418715,-0.152394 c -0.0067,0.0022 -0.01333,0.0044 -0.01999,0.0066 l 0.516153,-0.147237 c -0.0062,0.0015 -0.01246,0.003 -0.01869,0.0046 l 0.637962,-0.123945 c -0.0058,8.45e-4 -0.01158,0.0017 -0.01737,0.0025 l 0.783801,-0.06897 c -0.0054,1.65e-4 -0.0107,3.29e-4 -0.01604,4.93e-4 l 0.943182,0.03556 c -0.0049,-5.23e-4 -0.0098,-0.001 -0.0147,-0.0016 l 1.086858,0.204875 c -0.0045,-0.0012 -0.0089,-0.0024 -0.01334,-0.0036 l 1.164637,0.433957 c -0.004,-0.0019 -0.008,-0.0038 -0.01198,-0.0057 l 1.126428,0.678645 c -0.0035,-0.0026 -0.0071,-0.0052 -0.0106,-0.0079 l 0.964561,0.866146 c -0.0031,-0.0033 -0.0061,-0.0067 -0.0092,-0.01 l 0.730581,0.944345 c -0.0026,-0.0041 -0.0052,-0.0081 -0.0078,-0.01214 l 0.496384,0.916735 c -0.0021,-0.0048 -0.0043,-0.0096 -0.0064,-0.01431 l 0.30734,0.824225 c -0.0017,-0.0055 -0.0033,-0.01102 -0.005,-0.0165 l 0.173629,0.708685 c -0.0012,-0.0063 -0.0024,-0.01249 -0.0035,-0.01871 l 0.08627,0.595973 c -7.03e-4,-0.007 -0.0014,-0.01398 -0.0021,-0.02094 l 0.03187,0.497179 c -2.17e-4,-0.0078 -4.33e-4,-0.01548 -6.48e-4,-0.02319 l -8.85e-4,0.414849 c 2.74e-4,-0.0085 5.47e-4,-0.017 8.2e-4,-0.02546 l -0.02,0.347783 c 7.69e-4,-0.0093 0.0015,-0.01853 0.0023,-0.02774 l -0.03066,0.293584 c 0.0013,-0.01005 0.0025,-0.02007 0.0038,-0.03005 l -0.03615,0.249785 c 0.0018,-0.01083 0.0035,-0.02163 0.0053,-0.03237 l -0.03849,0.214241 c 0.0023,-0.01162 0.0045,-0.02319 0.0068,-0.03471 l -0.03894,0.185209 c 0.0028,-0.01241 0.0056,-0.02477 0.0083,-0.03708 l -0.03828,0.161316 c 0.0033,-0.01321 0.0066,-0.02637 0.0099,-0.03946 l -0.03697,0.141496 c 0.0038,-0.01402 0.0076,-0.02797 0.01141,-0.04186 l -0.03533,0.124926 c 0.0043,-0.01484 0.0087,-0.0296 0.01297,-0.04427 l -0.03352,0.110966 c 0.0049,-0.01566 0.0097,-0.03123 0.01454,-0.04671 l -0.03167,0.09912 c 5e-4,-0.0015 10e-4,-0.0031 0.0015,-0.0046 -0.01392,0.04058 -0.01261,0.03678 -0.01131,0.03297 -0.01218,0.03414 -0.01008,0.02824 -0.008,0.02235 -0.01051,0.02844 -0.0076,0.0206 -0.0047,0.01279 -0.0089,0.02335 -0.0052,0.01371 -0.0016,0.0041 -0.0074,0.01878 -0.0029,0.0074 0.0015,-0.0038 -0.0059,0.01463 -6.82e-4,0.0017 0.0045,-0.01118 -0.0045,0.01086 0.0015,-0.0036 0.0074,-0.01798 -0.0031,0.0074 0.0036,-0.0085 0.01022,-0.02434 -0.0018,0.0042 0.0056,-0.01312 0.01298,-0.03032 -5.44e-4,0.0012 0.0076,-0.01744 0.01566,-0.03597 6.7e-4,-0.0015 0.0095,-0.02152 0.01829,-0.04134 0.0018,-0.0041 0.01141,-0.02539 0.02087,-0.04646 0.003,-0.0066 0.01325,-0.02909 0.02339,-0.05137 0.0041,-0.0089 0.01506,-0.03264 0.02588,-0.0561 0.0052,-0.01109 0.01683,-0.03606 0.02832,-0.06067 0.0062,-0.01321 0.01858,-0.03936 0.03073,-0.06509 0.0073,-0.01525 0.02031,-0.04257 0.0331,-0.0694 0.0083,-0.01723 0.02202,-0.04571 0.03545,-0.0736 0.0093,-0.01916 0.02372,-0.04879 0.03777,-0.0777 0.01033,-0.02106 0.02541,-0.05183 0.04007,-0.08173 0.01135,-0.02296 0.02712,-0.05486 0.04236,-0.08568 0.01704,-0.0342 0.03341,-0.06707 0.0491,-0.09855 A 6.9022889,6.9022889 90 0 0 47.97441,69.379921 c -0.01713,0.03438 -0.03507,0.0704 -0.05381,0.108013 -0.0031,0.0063 -0.0063,0.01262 -0.0094,0.01893 -0.01668,0.03375 -0.03401,0.06881 -0.05197,0.10514 -0.0033,0.0067 -0.0066,0.01332 -0.0098,0.01999 -0.01619,0.03303 -0.03292,0.06713 -0.05015,0.102284 -0.0035,0.007 -0.0069,0.01408 -0.01032,0.02113 -0.01568,0.03225 -0.0318,0.06541 -0.04834,0.09945 -0.0036,0.0074 -0.0072,0.0149 -0.01082,0.02236 -0.01515,0.03145 -0.03067,0.06366 -0.04655,0.09663 -0.0038,0.0079 -0.0076,0.0158 -0.01136,0.0237 -0.0146,0.03062 -0.02953,0.0619 -0.04476,0.09383 -0.004,0.0084 -0.008,0.01677 -0.01194,0.02517 -0.01406,0.02978 -0.02839,0.06013 -0.04298,0.09105 -0.0042,0.0089 -0.0084,0.01783 -0.01256,0.02676 -0.0135,0.02893 -0.02725,0.05836 -0.04122,0.08829 -0.0044,0.0095 -0.0088,0.01899 -0.01323,0.0285 -0.01295,0.02807 -0.02611,0.0566 -0.03946,0.08555 -0.0047,0.01013 -0.0093,0.02026 -0.01394,0.03041 -0.0124,0.02722 -0.02497,0.05483 -0.03772,0.08283 -0.0049,0.01083 -0.0098,0.02166 -0.01471,0.03251 -0.01184,0.02636 -0.02384,0.05307 -0.03599,0.08013 -0.0052,0.0116 -0.01039,0.02321 -0.01553,0.03483 -0.01129,0.0255 -0.02271,0.05132 -0.03427,0.07744 -0.0055,0.01245 -0.01098,0.02491 -0.01642,0.03739 -0.01073,0.02465 -0.02159,0.04957 -0.03257,0.07478 -0.0058,0.01339 -0.01162,0.0268 -0.01737,0.04023 -0.01018,0.02379 -0.02047,0.04784 -0.03087,0.07213 -0.0062,0.01445 -0.01232,0.02891 -0.0184,0.0434 -0.0096,0.02294 -0.01936,0.04611 -0.02919,0.06951 -0.0066,0.01562 -0.01306,0.03127 -0.01951,0.04694 -0.0091,0.0221 -0.01826,0.0444 -0.02751,0.0669 -0.007,0.01694 -0.01387,0.03391 -0.0207,0.0509 -0.0085,0.02125 -0.01716,0.04269 -0.02585,0.06431 -0.0074,0.01843 -0.01473,0.03688 -0.02198,0.05537 -0.008,0.02041 -0.01607,0.041 -0.0242,0.06174 -0.0079,0.02011 -0.01567,0.04025 -0.02336,0.06043 -0.0075,0.01958 -0.01499,0.03931 -0.02256,0.05918 -0.0084,0.02202 -0.01667,0.04407 -0.02484,0.06617 -0.0069,0.01875 -0.01391,0.03764 -0.02094,0.05665 -0.0089,0.0242 -0.01775,0.04844 -0.02642,0.07274 -0.0064,0.01793 -0.01284,0.03597 -0.01932,0.05414 -0.0095,0.0267 -0.01889,0.05346 -0.02809,0.08028 -0.0059,0.01711 -0.01177,0.03432 -0.01772,0.05164 -0.01015,0.0296 -0.0201,0.05926 -0.02985,0.08899 -0.0053,0.01629 -0.01072,0.03268 -0.01612,0.04917 -0.01081,0.03296 -0.02137,0.066 -0.03167,0.09912 -0.0048,0.01548 -0.0097,0.03105 -0.01454,0.04671 -0.01148,0.03689 -0.02266,0.07388 -0.03352,0.110966 -0.0043,0.01468 -0.0086,0.02944 -0.01297,0.04427 -0.01217,0.04153 -0.02394,0.08318 -0.03533,0.124927 -0.0038,0.01388 -0.0076,0.02784 -0.01141,0.04186 -0.01282,0.04703 -0.02515,0.0942 -0.03697,0.141497 -0.0033,0.01309 -0.0066,0.02624 -0.0099,0.03946 -0.0134,0.05362 -0.02616,0.107393 -0.03828,0.161316 -0.0028,0.0123 -0.0055,0.02466 -0.0083,0.03708 -0.01383,0.06155 -0.02681,0.123297 -0.03894,0.185208 -0.0023,0.01152 -0.0045,0.02309 -0.0068,0.03471 -0.01396,0.07121 -0.02679,0.14263 -0.03849,0.214241 -0.0018,0.01075 -0.0035,0.02154 -0.0053,0.03237 -0.01357,0.08303 -0.02562,0.16631 -0.03615,0.249785 -0.0013,0.01 -0.0025,0.01999 -0.0038,0.03005 -0.01231,0.09763 -0.02253,0.195515 -0.03066,0.293583 -7.64e-4,0.0092 -0.0015,0.01846 -0.0023,0.02774 -0.0096,0.115741 -0.01626,0.231706 -0.01999,0.347783 -2.73e-4,0.0085 -5.46e-4,0.01694 -8.2e-4,0.02546 -0.0045,0.138242 -0.0047,0.27659 -8.86e-4,0.41485 2.16e-4,0.0077 4.32e-4,0.01544 6.48e-4,0.02319 0.0046,0.166054 0.01527,0.331892 0.03187,0.497179 6.99e-4,0.007 0.0014,0.01394 0.0021,0.02094 0.02007,0.199816 0.04886,0.398668 0.08627,0.595973 0.0012,0.0062 0.0024,0.01246 0.0035,0.01871 0.04534,0.23912 0.1033,0.475688 0.173629,0.708686 0.0017,0.0055 0.0033,0.01099 0.005,0.0165 0.08481,0.280989 0.187476,0.556306 0.307341,0.824226 0.0021,0.0048 0.0043,0.0095 0.0064,0.01431 0.142109,0.317641 0.308057,0.624119 0.496384,0.916735 0.0026,0.004 0.0052,0.0081 0.0078,0.01214 0.215781,0.335274 0.460248,0.651271 0.73058,0.944344 0.0031,0.0033 0.0061,0.0067 0.0092,0.01 0.293617,0.318316 0.616601,0.608346 0.96456,0.866145 0.0035,0.0026 0.0071,0.0052 0.0106,0.0079 0.352999,0.261533 0.730235,0.488808 1.126429,0.678644 0.004,0.0019 0.008,0.0038 0.01198,0.0057 0.37435,0.17937 0.764187,0.324627 1.164637,0.433956 0.0044,0.0012 0.0089,0.0024 0.01334,0.0036 0.356206,0.09725 0.719692,0.165768 1.086858,0.204875 0.0049,5.21e-4 0.0098,0.001 0.01469,0.0016 0.313203,0.03336 0.628355,0.04524 0.943181,0.03556 0.0053,-1.64e-4 0.01068,-3.28e-4 0.01604,-4.93e-4 0.26236,-0.0081 0.524064,-0.0311 0.783801,-0.06897 0.0058,-8.43e-4 0.01157,-0.0017 0.01737,-0.0025 0.214479,-0.03128 0.427375,-0.07264 0.637962,-0.123945 0.0062,-0.0015 0.01245,-0.003 0.01868,-0.0046 0.173893,-0.04237 0.346078,-0.09148 0.516153,-0.147237 0.0067,-0.0022 0.01332,-0.0044 0.01999,-0.0066 0.141175,-0.04628 0.280822,-0.0971 0.418716,-0.152395 0.0071,-0.0028 0.01419,-0.0057 0.02129,-0.0085 0.115362,-0.04626 0.229454,-0.09562 0.34215,-0.148037 0.0075,-0.0035 0.01504,-0.007 0.02257,-0.0105 0.09512,-0.04424 0.189221,-0.09065 0.282226,-0.13918 0.0079,-0.0041 0.01589,-0.0083 0.02385,-0.01244 0.07922,-0.04134 0.157621,-0.08421 0.235172,-0.128587 0.0084,-0.0048 0.01674,-0.0096 0.02511,-0.01437 0.06663,-0.03813 0.132629,-0.07738 0.197954,-0.117712 0.0088,-0.0054 0.01757,-0.01085 0.02636,-0.01628 0.0566,-0.03494 0.112685,-0.07071 0.168248,-0.107274 0.0092,-0.0061 0.0184,-0.01211 0.0276,-0.01816 0.04851,-0.03192 0.09662,-0.06446 0.144305,-0.0976 0.0096,-0.0067 0.01922,-0.01335 0.02883,-0.02003 0.04193,-0.02914 0.08354,-0.05874 0.124813,-0.0888 0.01001,-0.0073 0.02003,-0.01459 0.03004,-0.02188 0.03653,-0.02661 0.07279,-0.05357 0.108791,-0.08088 0.01042,-0.0079 0.02083,-0.01581 0.03125,-0.02371 0.03205,-0.02432 0.06388,-0.04892 0.0955,-0.07379 0.01082,-0.0085 0.02163,-0.01702 0.03244,-0.02552 0.0283,-0.02227 0.05643,-0.04475 0.08438,-0.06746 0.01121,-0.0091 0.02242,-0.01821 0.03362,-0.02732 0.02514,-0.02043 0.05014,-0.04103 0.07499,-0.06181 0.0116,-0.0097 0.0232,-0.0194 0.03479,-0.02909 0.02246,-0.01878 0.0448,-0.0377 0.06701,-0.05676 0.01199,-0.01029 0.02398,-0.02057 0.03595,-0.03084 0.02016,-0.0173 0.04022,-0.03471 0.06018,-0.05224 0.01238,-0.01087 0.02474,-0.02173 0.0371,-0.03258 0.01818,-0.01597 0.03628,-0.03203 0.05429,-0.04818 0.01276,-0.01144 0.0255,-0.02287 0.03824,-0.0343 0.01646,-0.01477 0.03286,-0.02962 0.04918,-0.04454 0.01313,-0.01201 0.02625,-0.02401 0.03936,-0.03599 0.01497,-0.01369 0.02988,-0.02744 0.04473,-0.04126 0.01351,-0.01257 0.027,-0.02513 0.04047,-0.03767 0.01366,-0.01271 0.02726,-0.02548 0.04082,-0.0383 0.01388,-0.01313 0.02773,-0.02624 0.04158,-0.03933 0.0125,-0.01183 0.02496,-0.0237 0.03737,-0.03562 0.01424,-0.01368 0.02846,-0.02734 0.04267,-0.04097 0.01148,-0.01102 0.02292,-0.02209 0.03432,-0.03319 0.0146,-0.01422 0.02919,-0.02842 0.04375,-0.04259 0.01057,-0.01029 0.0211,-0.02062 0.03161,-0.03097 0.01496,-0.01476 0.0299,-0.02949 0.04481,-0.0442 0.0098,-0.0096 0.01948,-0.01927 0.02918,-0.02895 0.01532,-0.01529 0.03061,-0.03055 0.04587,-0.04578 0.009,-0.009 0.01803,-0.01805 0.02701,-0.02711 0.01567,-0.01581 0.03131,-0.0316 0.04692,-0.04735 0.0084,-0.0084 0.01672,-0.01692 0.02505,-0.02541 0.01602,-0.01633 0.032,-0.03263 0.04795,-0.04889 0.004,-0.0041 0.008,-0.0081 0.01193,-0.0122 0.0743,-0.07614 0.145361,-0.150095 0.212745,-0.220985 0.31028,-0.326707 0.594423,-0.64169 0.843646,-0.922318 0.451097,-0.508621 0.87951,-1.008954 1.278265,-1.478887 0.538391,-0.634993 1.066594,-1.26763 1.575374,-1.877952 0.639374,-0.767202 1.248732,-1.500554 1.870485,-2.243222 0.675347,-0.806685 1.338684,-1.592925 2.002808,-2.365168 0.560574,-0.651678 1.111157,-1.281374 1.661505,-1.892617 0.431043,-0.478526 0.849288,-0.931842 1.26406,-1.363847 0.07187,-0.07483 0.143683,-0.149039 0.214786,-0.221902 0.01886,-0.01926 0.04442,-0.04538 0.06989,-0.07141 0.01843,-0.01873 0.04374,-0.04444 0.06896,-0.07006 0.01792,-0.0181 0.04298,-0.0434 0.06793,-0.0686 0.01739,-0.01746 0.04218,-0.04234 0.06686,-0.06711 0.01684,-0.0168 0.04135,-0.04124 0.06575,-0.06558 0.01627,-0.01612 0.04049,-0.04012 0.06461,-0.06402 0.01566,-0.01542 0.0396,-0.03897 0.06342,-0.06241 0.01504,-0.0147 0.03867,-0.03779 0.06218,-0.06076 0.01439,-0.01396 0.03771,-0.03658 0.0609,-0.05908 0.01371,-0.0132 0.0367,-0.03534 0.05957,-0.05735 0.01299,-0.01241 0.03566,-0.03406 0.05818,-0.05558 0.01225,-0.0116 0.03457,-0.03275 0.05674,-0.05376 0.01147,-0.01077 0.03343,-0.0314 0.05524,-0.05189 0.01065,-0.0099 0.03224,-0.03002 0.05367,-0.04998 0.0098,-0.009 0.031,-0.0286 0.05204,-0.04802 0.0089,-0.0081 0.0297,-0.02714 0.05034,-0.04601 0.0079,-0.0072 0.02834,-0.02564 0.04856,-0.04394 0.0069,-0.0062 0.02691,-0.0241 0.0467,-0.04182 0.0059,-0.0052 0.02541,-0.02252 0.04475,-0.03965 0.0048,-0.0042 0.02384,-0.02089 0.0427,-0.03741 0.0036,-0.0031 0.02219,-0.01921 0.04055,-0.03512 0.0024,-0.002 0.02044,-0.01749 0.0383,-0.03276 0.0011,-8.97e-4 0.0186,-0.01571 0.03593,-0.03034 -3.29e-4,2.74e-4 0.01666,-0.01389 0.03342,-0.02785 -0.0018,0.0015 0.01461,-0.012 0.03078,-0.02529 0.01639,-0.01327 0.03251,-0.02632 0.04836,-0.03914 l -0.04086,0.03281 c 0.0051,-0.0041 0.01017,-0.0081 0.01521,-0.01212 0.01012,-0.0081 0.02023,-0.01612 0.03032,-0.02416 -0.0071,0.0055 0.0074,-0.0058 0.0219,-0.01717 -0.009,0.0069 0.0048,-0.0037 0.01857,-0.01431 -0.01106,0.0084 0.002,-0.0015 0.01503,-0.01137 -0.01327,0.0098 -9.9e-4,7.35e-4 0.01125,-0.0084 -0.01565,0.01138 -0.0042,0.0031 0.0072,-0.0052 -0.0182,0.01296 -0.0076,0.0054 0.0029,-0.0021 -0.02096,0.01458 -0.01134,0.0079 -0.0017,0.0012 -0.02395,0.01626 -0.01532,0.0104 -0.0067,0.0046 -0.02717,0.01797 -0.01962,0.01298 -0.01209,0.008 -0.03068,0.01973 -0.02427,0.01561 -0.01788,0.0115 -0.03449,0.02152 -0.02931,0.01829 -0.02414,0.01507 -0.03863,0.02334 -0.03477,0.02101 -0.03092,0.01869 -0.04315,0.02518 -0.04072,0.02376 -0.03829,0.02235 -0.04808,0.02702 -0.04719,0.02652 -0.0463,0.02602 4.04e-4,-2.18e-4 8.09e-4,-4.36e-4 0.0012,-6.54e-4 l -0.113045,0.05963 c 0.01793,-0.0092 0.03558,-0.01835 0.05294,-0.0273 l -0.12203,0.06141 c 0.01763,-0.0087 0.03496,-0.01716 0.05197,-0.02551 l -0.131939,0.06305 c 0.01734,-0.0081 0.03433,-0.01596 0.05098,-0.0237 l -0.142873,0.06446 c 0.01704,-0.0075 0.03371,-0.01475 0.04998,-0.02187 l -0.154936,0.06556 c 0.01676,-0.0069 0.03308,-0.01353 0.04897,-0.02002 l -0.168243,0.06622 c 0.01648,-0.0062 0.03247,-0.01229 0.04795,-0.01815 l -0.182902,0.06631 c 0.01622,-0.0056 0.03187,-0.01105 0.04691,-0.01626 l -0.199022,0.06563 c 0.01599,-0.005 0.03129,-0.0098 0.04587,-0.01436 l -0.216694,0.06395 c 0.01582,-0.0044 0.03078,-0.0085 0.04481,-0.01243 l -0.235984,0.061 c 0.01579,-0.0038 0.03039,-0.0073 0.04374,-0.01049 A 6.9022889,6.9022889 90 0 0 67.034913,52.01672 Z"
       id="path-1-1"
       inkscape:path-effect="#path-effect3;#path-effect4"
       inkscape:original-d="M 68.644068,58.728814 C 64.957062,59.540231 49.482394,81.797923 54.152542,72.457627"
       style="fill:#ffffff;fill-opacity:1;fill-rule:nonzero;stroke:none;stroke-width:0;stroke-linecap:round;stroke-linejoin:round;stroke-dashoffset:2.26772" />
    <path
       d="m 41.810751,62.487959 c 0.807081,0.629229 2.133342,1.643965 3.998148,2.971272 0.960865,0.683868 1.973813,1.38637 3.068137,2.128192 0.563674,0.382104 1.184745,0.798934 1.88705,1.26509 1.344907,0.892716 2.624951,1.726388 4.321191,2.828896 1.060568,0.689425 2.257006,1.466637 3.405888,2.225199 0.911789,0.602114 1.828958,1.215559 2.734812,1.838955 0.792412,0.54543 1.551499,1.081464 2.283806,1.619198 0.667873,0.490529 1.27712,0.955818 1.844206,1.409757 0.553284,0.442998 1.022712,0.84031 1.432264,1.204772 0.462312,0.411505 0.793827,0.733094 1.012291,0.951535 a 7.6679691,7.6679691 90 0 0 10.84359,-10.8447 c -0.396722,-0.396682 -0.944604,-0.925845 -1.660117,-1.562724 -0.625204,-0.55637 -1.299458,-1.125111 -2.043561,-1.720892 -0.759642,-0.608075 -1.540574,-1.203217 -2.351122,-1.798536 -0.887382,-0.651605 -1.778081,-1.279809 -2.666663,-1.891434 -1.014888,-0.698432 -2.019489,-1.369956 -2.979028,-2.003604 -1.204161,-0.79506 -2.449867,-1.604207 -3.498349,-2.285775 -1.696816,-1.102881 -2.921186,-1.900458 -4.198057,-2.748012 -0.663304,-0.44027 -1.242926,-0.82933 -1.763049,-1.181911 -1.010123,-0.684744 -1.92632,-1.32044 -2.7805,-1.928377 -1.646486,-1.171914 -2.791141,-2.048757 -3.461591,-2.571463 a 7.6679691,7.6679691 90 0 0 -9.429346,12.094562 z"
       id="path-1-5"
       inkscape:path-effect="#path-effect5;#path-effect6"
       inkscape:original-d="m 46.525424,56.440678 c 9.450055,7.367923 20.719296,13.092178 26.694915,19.067797"
       style="fill:#ffffff;fill-opacity:1;fill-rule:nonzero;stroke:none;stroke-width:0;stroke-linecap:round;stroke-linejoin:round;stroke-dashoffset:2.26772" />
    <path
       d="m 133.30894,55.273211 c -0.0106,0.0015 -0.0221,0.0031 -0.0344,0.0049 -0.13931,0.01988 -0.27795,0.04423 -0.41571,0.073 -0.0113,0.0024 -0.0232,0.0049 -0.0359,0.0075 -0.12276,0.02565 -0.24476,0.0548 -0.36586,0.08743 -0.0119,0.0032 -0.0243,0.0066 -0.0373,0.01005 -0.10791,0.02908 -0.21507,0.0609 -0.32136,0.09545 -0.0125,0.004 -0.0254,0.0082 -0.0387,0.01258 -0.0949,0.03082 -0.18898,0.0638 -0.28232,0.09891 -0.013,0.0049 -0.0264,0.0099 -0.0401,0.01509 -0.0835,0.03139 -0.16629,0.06448 -0.24842,0.09924 -0.0135,0.0057 -0.0273,0.01158 -0.0415,0.01758 -0.0736,0.03117 -0.14669,0.06368 -0.21914,0.09752 -0.014,0.0065 -0.0283,0.01322 -0.0429,0.02004 -0.0652,0.03043 -0.12981,0.06193 -0.19393,0.09448 -0.0145,0.0074 -0.0292,0.01485 -0.0443,0.02248 -0.0579,0.02937 -0.11528,0.0596 -0.17224,0.09067 -0.015,0.0082 -0.0302,0.01646 -0.0456,0.02489 -0.0516,0.02813 -0.10275,0.05695 -0.15354,0.08645 -0.0154,0.009 -0.0311,0.01806 -0.047,0.02728 -0.0461,0.02679 -0.0919,0.05415 -0.1374,0.08206 -0.0159,0.0098 -0.032,0.01964 -0.0483,0.02964 -0.0414,0.02543 -0.0826,0.05132 -0.12342,0.07766 -0.0163,0.01054 -0.0329,0.0212 -0.0496,0.03199 -0.0373,0.02408 -0.0744,0.04853 -0.11128,0.07336 -0.0168,0.01131 -0.0338,0.02275 -0.0509,0.03431 -0.0338,0.02276 -0.0673,0.04584 -0.10069,0.06922 -0.0172,0.01208 -0.0346,0.02428 -0.0522,0.0366 -0.0307,0.0215 -0.0611,0.04326 -0.0914,0.06529 -0.0177,0.01284 -0.0355,0.0258 -0.0534,0.03887 -0.0279,0.0203 -0.0557,0.04083 -0.0833,0.06157 -0.0181,0.0136 -0.0363,0.02731 -0.0547,0.04111 -0.0255,0.01917 -0.0509,0.03853 -0.0761,0.05807 -0.0185,0.01434 -0.0372,0.02879 -0.0559,0.04333 -0.0234,0.01811 -0.0466,0.03637 -0.0698,0.0548 -0.0189,0.01508 -0.038,0.03026 -0.0572,0.04553 -0.0215,0.01711 -0.0429,0.03436 -0.0641,0.05174 -0.0194,0.01581 -0.0388,0.03172 -0.0584,0.04771 -0.0198,0.01618 -0.0395,0.03248 -0.0591,0.04889 -0.0198,0.01654 -0.0396,0.03316 -0.0596,0.04985 -0.0183,0.01531 -0.0365,0.03072 -0.0546,0.04623 -0.0202,0.01725 -0.0404,0.03458 -0.0608,0.05198 -0.017,0.0145 -0.0338,0.02908 -0.0506,0.04375 -0.0206,0.01796 -0.0412,0.03599 -0.0619,0.05408 -0.0157,0.01374 -0.0314,0.02755 -0.047,0.04144 -0.021,0.01866 -0.042,0.03738 -0.0631,0.05616 -0.0146,0.01303 -0.0292,0.02613 -0.0437,0.03929 -0.0214,0.01935 -0.0428,0.03875 -0.0642,0.05821 -0.0136,0.01237 -0.0272,0.0248 -0.0408,0.03729 -0.0217,0.02003 -0.0435,0.04011 -0.0653,0.06024 -0.0128,0.01176 -0.0255,0.02356 -0.0381,0.03542 -0.0221,0.02071 -0.0443,0.04146 -0.0665,0.06224 -0.0119,0.01118 -0.0238,0.0224 -0.0357,0.03367 -0.0225,0.02138 -0.045,0.04279 -0.0676,0.06422 -0.0112,0.01064 -0.0224,0.02132 -0.0335,0.03204 -0.0229,0.02204 -0.0457,0.0441 -0.0687,0.06618 -0.0105,0.01014 -0.021,0.02031 -0.0314,0.03052 -0.0232,0.02269 -0.0465,0.0454 -0.0697,0.06811 -0.01,0.0097 -0.0197,0.01936 -0.0296,0.02909 -0.0236,0.02334 -0.0472,0.04668 -0.0708,0.07002 -0.009,0.0092 -0.0186,0.01847 -0.0279,0.02775 -0.0239,0.02398 -0.0479,0.04795 -0.0718,0.07191 -0.009,0.0088 -0.0176,0.01764 -0.0263,0.0265 -0.0243,0.02461 -0.0486,0.0492 -0.0728,0.07377 -0.008,0.0084 -0.0166,0.01686 -0.0249,0.02532 -0.0246,0.02523 -0.0493,0.05043 -0.0738,0.0756 -0.008,0.0081 -0.0157,0.01612 -0.0235,0.02422 -0.025,0.02585 -0.0499,0.05165 -0.0748,0.07742 -0.007,0.0077 -0.0149,0.01543 -0.0223,0.02317 -0.0253,0.02645 -0.0506,0.05286 -0.0758,0.0792 -0.007,0.0074 -0.0141,0.01478 -0.0211,0.02219 -0.009,0.0098 -0.0187,0.01967 -0.028,0.0295 -0.0161,0.01697 -0.0324,0.03413 -0.0488,0.05147 -0.007,0.0071 -0.0134,0.01417 -0.0201,0.02127 -0.0255,0.02714 -0.0514,0.05471 -0.0777,0.08271 -0.006,0.0068 -0.0127,0.01359 -0.0191,0.0204 -0.0259,0.02774 -0.0521,0.05589 -0.0787,0.08443 -0.006,0.0065 -0.0121,0.01304 -0.0182,0.01958 -0.0262,0.02833 -0.0527,0.05704 -0.0796,0.08612 -0.006,0.0063 -0.0115,0.01252 -0.0173,0.0188 -0.0265,0.02891 -0.0534,0.05818 -0.0805,0.08778 -0.006,0.006 -0.011,0.01203 -0.0165,0.01807 -0.0268,0.02949 -0.054,0.0593 -0.0814,0.08943 -0.005,0.0058 -0.0105,0.01157 -0.0158,0.01737 -0.0272,0.03005 -0.0546,0.0604 -0.0823,0.09105 -0.005,0.0056 -0.01,0.01113 -0.015,0.01671 -0.0275,0.0306 -0.0552,0.06148 -0.0832,0.09265 -0.002,0.0027 -0.005,0.0054 -0.007,0.0081 -0.0991,0.110795 -0.19738,0.221706 -0.295,0.332872 -0.4916,0.56002 -0.96156,1.118681 -1.41343,1.667385 -0.69405,0.84339 -1.36584,1.688497 -2.02309,2.529055 -0.70869,0.90673 -1.40603,1.816123 -2.09849,2.728063 -1.31277,1.729159 -2.60132,3.459492 -3.88876,5.184905 -0.60828,0.815072 -1.21625,1.629244 -1.82482,2.436667 -0.51297,0.680182 -1.01666,1.343652 -1.52184,1.992405 -0.29138,0.373713 -0.56405,0.718346 -0.8319,1.043509 -0.12771,0.154778 -0.23373,0.280056 -0.32793,0.386645 -0.004,0.0039 -0.0151,0.01695 -0.0267,0.02999 0.002,-0.0025 -0.008,0.0094 -0.0192,0.02132 0.004,-0.0048 -0.005,0.0059 -0.0152,0.01667 0.007,-0.0074 -0.002,0.0022 -0.0108,0.0117 0.01,-0.01014 0.002,-0.0019 -0.006,0.0063 0.0126,-0.01318 0.006,-0.0063 -5.3e-4,5.56e-4 0.0161,-0.01653 0.0109,-0.01114 0.006,-0.0058 0.0202,-0.02026 0.0164,-0.01646 0.0126,-0.01266 0.0249,-0.02443 0.0228,-0.02236 0.0207,-0.02028 -0.002,0.0014 -0.003,0.0029 -0.005,0.0043 l 0.0696,-0.06563 c -0.0112,0.01042 -0.0225,0.02086 -0.0337,0.03131 l 0.0802,-0.07328 c -0.0107,0.0096 -0.0215,0.0193 -0.0322,0.02896 l 0.0932,-0.08222 c -0.0102,0.0089 -0.0205,0.01772 -0.0307,0.02659 l 0.10952,-0.09269 c -0.01,0.0081 -0.0195,0.01612 -0.0292,0.02419 l 0.13016,-0.104979 c -0.009,0.0073 -0.0185,0.01451 -0.0277,0.02177 l 0.15672,-0.119394 c -0.009,0.0064 -0.0174,0.01288 -0.0262,0.01933 l 0.19154,-0.1362 c -0.008,0.0056 -0.0164,0.01124 -0.0246,0.01686 l 0.23799,-0.155459 c -0.008,0.0048 -0.0154,0.0096 -0.0231,0.01437 l 0.3012,-0.176656 c -0.007,0.004 -0.0143,0.0079 -0.0215,0.01185 l 0.38877,-0.197815 c -0.007,0.0031 -0.0133,0.0062 -0.0199,0.0093 l 0.51168,-0.213504 c -0.006,0.0022 -0.0122,0.0045 -0.0183,0.0067 l 0.68415,-0.2106 c -0.006,0.0014 -0.0111,0.0028 -0.0167,0.0042 l 0.91855,-0.160643 c -0.005,5.15e-4 -0.01,0.001 -0.0151,0.0015 l 1.20518,-0.01243 c -0.004,-3.66e-4 -0.009,-7.3e-4 -0.0134,-0.0011 l 1.46746,0.29069 c -0.004,-0.0013 -0.008,-0.0025 -0.0117,-0.0038 l 1.54005,0.723978 c -0.003,-0.0022 -0.007,-0.0043 -0.0101,-0.0064 l 1.30551,1.098336 c -0.003,-0.0031 -0.006,-0.0061 -0.008,-0.0092 l 0.88292,1.220204 c -0.002,-0.004 -0.004,-0.0079 -0.007,-0.01188 l 0.49473,1.111192 c -0.002,-0.0049 -0.003,-0.0098 -0.005,-0.01464 l 0.23713,0.911558 c -0.001,-0.0058 -0.002,-0.01163 -0.003,-0.01742 l 0.0921,0.717128 c -5e-4,-0.0068 -9.9e-4,-0.01351 -0.001,-0.02023 l 0.0169,0.559506 c 10e-5,-0.0077 2e-4,-0.0154 2.9e-4,-0.02306 l -0.0202,0.439685 c 6.9e-4,-0.0087 0.001,-0.01731 0.002,-0.02591 l -0.0374,0.350172 c 0.001,-0.0096 0.003,-0.01923 0.004,-0.02879 l -0.0442,0.28313 c 0.002,-0.01061 0.004,-0.02117 0.006,-0.03169 l -0.0458,0.232361 c 0.002,-0.01159 0.005,-0.02313 0.007,-0.03462 l -0.0448,0.193366 c 0.003,-0.01259 0.006,-0.02511 0.009,-0.03757 l -0.0426,0.162965 c 0.004,-0.01359 0.007,-0.0271 0.0112,-0.04054 l -0.0399,0.138917 c 0.004,-0.0146 0.009,-0.02911 0.013,-0.04354 l -0.037,0.119631 c 0.005,-0.01562 0.01,-0.03114 0.0149,-0.04656 l -0.0342,0.103968 c 4.4e-4,-0.0013 8.9e-4,-0.0026 0.001,-0.0039 -0.0146,0.0413 -0.0132,0.03718 -0.0117,0.03306 -0.0123,0.03344 -0.01,0.02678 -0.007,0.02014 -0.0102,0.02665 -0.007,0.01769 -0.003,0.0088 -0.008,0.02072 -0.004,0.0096 5.6e-4,-0.0014 -0.006,0.01549 -9.8e-4,0.0024 0.004,-0.01058 -0.004,0.01083 0.002,-0.0041 0.008,-0.01895 -0.003,0.0066 0.004,-0.01008 0.0113,-0.02666 -0.001,0.0028 0.007,-0.01559 0.0146,-0.03382 3e-4,-6.79e-4 0.009,-0.02071 0.0179,-0.04052 0.002,-0.0039 0.0114,-0.02551 0.021,-0.04684 0.003,-0.0069 0.0137,-0.03005 0.024,-0.05285 0.004,-0.0097 0.0158,-0.03437 0.027,-0.05858 0.006,-0.01242 0.018,-0.0385 0.0299,-0.06408 0.007,-0.01498 0.0201,-0.04249 0.0328,-0.06938 0.008,-0.01744 0.0221,-0.04637 0.0356,-0.07452 0.0104,-0.02159 0.0258,-0.05355 0.0407,-0.08443 0.0429,-0.08845 0.0861,-0.176509 0.12879,-0.262445 0.0159,-0.03186 0.0351,-0.07042 0.0532,-0.106814 a 6.5723452,6.5723452 90 0 0 -11.76538,-5.861634 c -0.0181,0.0364 -0.0373,0.07495 -0.0576,0.115577 -0.0634,0.127631 -0.12668,0.256394 -0.19257,0.392498 -0.002,0.0036 -0.004,0.0073 -0.005,0.01092 -0.0157,0.03266 -0.0321,0.06655 -0.049,0.101613 -0.004,0.0076 -0.007,0.01522 -0.0109,0.02284 -0.0152,0.03174 -0.0308,0.06448 -0.0469,0.09818 -0.004,0.0082 -0.008,0.01631 -0.0116,0.02448 -0.0145,0.03077 -0.0294,0.06238 -0.0447,0.09477 -0.004,0.0088 -0.008,0.01753 -0.0123,0.0263 -0.0139,0.02978 -0.0281,0.06025 -0.0427,0.09139 -0.004,0.0094 -0.009,0.01887 -0.0131,0.02833 -0.0132,0.02876 -0.0268,0.05811 -0.0406,0.08803 -0.005,0.01018 -0.009,0.02038 -0.014,0.03059 -0.0126,0.02773 -0.0255,0.05597 -0.0385,0.0847 -0.005,0.01103 -0.01,0.02207 -0.0149,0.03312 -0.012,0.02669 -0.0241,0.05383 -0.0365,0.08139 -0.005,0.01198 -0.0107,0.02397 -0.016,0.03597 -0.0113,0.02566 -0.0228,0.05169 -0.0344,0.0781 -0.006,0.01305 -0.0115,0.02611 -0.0171,0.0392 -0.0107,0.02462 -0.0215,0.04957 -0.0324,0.07484 -0.006,0.01426 -0.0123,0.02855 -0.0184,0.04286 -0.01,0.02358 -0.0202,0.04745 -0.0304,0.0716 -0.007,0.01565 -0.0132,0.03134 -0.0198,0.04704 -0.009,0.02254 -0.0188,0.04534 -0.0284,0.06839 -0.007,0.01725 -0.0143,0.03453 -0.0213,0.05185 -0.009,0.02151 -0.0175,0.04324 -0.0264,0.0652 -0.008,0.0191 -0.0154,0.03823 -0.023,0.0574 -0.008,0.02048 -0.0162,0.04116 -0.0245,0.06203 -0.008,0.02125 -0.0167,0.04254 -0.0248,0.06387 -0.007,0.01946 -0.015,0.03909 -0.0225,0.05889 -0.009,0.02376 -0.0181,0.04758 -0.0269,0.07145 -0.007,0.01844 -0.0137,0.03703 -0.0206,0.05577 -0.01,0.02674 -0.0196,0.05354 -0.0291,0.08041 -0.006,0.01743 -0.0124,0.03499 -0.0187,0.05268 -0.0108,0.03029 -0.0213,0.06065 -0.0316,0.0911 -0.006,0.01642 -0.0112,0.03296 -0.0168,0.04961 -0.0117,0.03456 -0.0231,0.06922 -0.0342,0.103968 -0.005,0.01542 -0.01,0.03094 -0.0149,0.04656 -0.0127,0.03976 -0.0251,0.07964 -0.037,0.119631 -0.004,0.01443 -0.009,0.02894 -0.013,0.04354 -0.0138,0.04616 -0.0271,0.09247 -0.0399,0.138917 -0.004,0.01344 -0.007,0.02695 -0.0112,0.04054 -0.0149,0.05414 -0.0291,0.108463 -0.0426,0.162965 -0.003,0.01246 -0.006,0.02498 -0.009,0.03757 -0.0159,0.06423 -0.0309,0.128688 -0.0448,0.193366 -0.002,0.01148 -0.005,0.02302 -0.007,0.03462 -0.0167,0.07717 -0.0319,0.154638 -0.0458,0.23236 -0.002,0.01052 -0.004,0.02108 -0.006,0.03169 -0.0168,0.09404 -0.0315,0.188443 -0.0442,0.283129 -0.001,0.0096 -0.003,0.01915 -0.004,0.02879 -0.0156,0.116369 -0.028,0.233136 -0.0374,0.350172 -6.8e-4,0.0086 -0.001,0.01724 -0.002,0.02591 -0.0117,0.146294 -0.0184,0.29294 -0.0202,0.439685 -1e-4,0.0077 -1.9e-4,0.01535 -2.9e-4,0.02306 -0.002,0.186655 0.003,0.373331 0.0169,0.559506 4.9e-4,0.0067 9.8e-4,0.01346 0.001,0.02023 0.0175,0.240547 0.0483,0.479962 0.0921,0.717128 0.001,0.0058 0.002,0.0116 0.003,0.01742 0.0571,0.309122 0.13639,0.613779 0.23713,0.911559 0.002,0.0049 0.003,0.0097 0.005,0.01464 0.1302,0.38487 0.29584,0.756905 0.49473,1.111192 0.002,0.004 0.004,0.0079 0.007,0.01188 0.24655,0.439183 0.54286,0.848681 0.88292,1.220204 0.003,0.003 0.006,0.0061 0.008,0.0091 0.38556,0.421228 0.82453,0.790538 1.30551,1.098336 0.003,0.0021 0.007,0.0043 0.0101,0.0064 0.47975,0.30701 0.99756,0.550433 1.54005,0.723978 0.004,0.0012 0.008,0.0025 0.0118,0.0038 0.47645,0.152418 0.96888,0.249964 1.46746,0.29069 0.004,3.64e-4 0.009,7.29e-4 0.0134,0.0011 0.40123,0.03277 0.8047,0.02861 1.20517,-0.01243 0.005,-5.14e-4 0.01,-0.001 0.0151,-0.0015 0.30959,-0.03173 0.61657,-0.08542 0.91855,-0.160643 0.006,-0.0014 0.0111,-0.0028 0.0167,-0.0042 0.2317,-0.05772 0.4601,-0.128026 0.68415,-0.2106 0.006,-0.0022 0.0122,-0.0045 0.0183,-0.0067 0.17348,-0.06394 0.3442,-0.135171 0.51168,-0.213504 0.007,-0.0031 0.0133,-0.0062 0.0199,-0.0093 0.13175,-0.06162 0.26141,-0.127594 0.38877,-0.197814 0.007,-0.004 0.0143,-0.0079 0.0215,-0.01185 0.10194,-0.05621 0.20238,-0.115114 0.3012,-0.176656 0.008,-0.0048 0.0154,-0.0096 0.0231,-0.01437 0.0804,-0.0501 0.15979,-0.10193 0.23799,-0.15546 0.008,-0.0056 0.0164,-0.01124 0.0246,-0.01686 0.0647,-0.04425 0.1285,-0.08966 0.19153,-0.1362 0.009,-0.0064 0.0174,-0.01289 0.0262,-0.01933 0.0528,-0.03901 0.10508,-0.07882 0.15672,-0.119394 0.009,-0.0073 0.0185,-0.01452 0.0277,-0.02177 0.0438,-0.03444 0.0872,-0.06943 0.13016,-0.104979 0.01,-0.0081 0.0195,-0.01614 0.0292,-0.02419 0.0368,-0.0305 0.0733,-0.0614 0.10952,-0.09269 0.0102,-0.0089 0.0205,-0.01774 0.0307,-0.02659 0.0313,-0.02711 0.0624,-0.05452 0.0932,-0.08222 0.0108,-0.0097 0.0215,-0.01932 0.0322,-0.02896 0.0269,-0.02421 0.0537,-0.04864 0.0802,-0.07329 0.0113,-0.01045 0.0225,-0.02089 0.0337,-0.03131 0.0234,-0.02171 0.0466,-0.04358 0.0696,-0.06563 0.0117,-0.01123 0.0235,-0.02244 0.0352,-0.03364 0.0204,-0.01955 0.0407,-0.03922 0.0609,-0.05903 0.0122,-0.012 0.0244,-0.02398 0.0366,-0.03594 0.018,-0.01767 0.0359,-0.03545 0.0537,-0.05333 0.0127,-0.01277 0.0254,-0.0255 0.038,-0.03821 0.016,-0.01604 0.0319,-0.03216 0.0477,-0.04836 0.0132,-0.01352 0.0263,-0.02701 0.0395,-0.04047 0.0143,-0.01461 0.0284,-0.02928 0.0425,-0.04402 0.0137,-0.01427 0.0273,-0.0285 0.0409,-0.04269 0.0128,-0.01335 0.0255,-0.02676 0.0382,-0.04021 0.0141,-0.01501 0.0282,-0.02998 0.0422,-0.0449 0.0115,-0.01224 0.023,-0.02453 0.0344,-0.03685 0.0146,-0.01574 0.0291,-0.03144 0.0436,-0.04708 0.0104,-0.01126 0.0208,-0.02255 0.0312,-0.03388 0.015,-0.01647 0.03,-0.03288 0.045,-0.04923 0.009,-0.01038 0.0189,-0.02079 0.0284,-0.03123 0.0155,-0.01719 0.0309,-0.03431 0.0463,-0.05137 0.009,-0.0096 0.0173,-0.01921 0.0259,-0.02886 0.016,-0.0179 0.0318,-0.03573 0.0477,-0.05347 0.005,-0.0053 0.009,-0.01053 0.014,-0.01581 0.23751,-0.268183 0.45289,-0.524985 0.63593,-0.746837 0.37998,-0.461276 0.73501,-0.911307 1.05819,-1.32582 0.57061,-0.732772 1.12252,-1.460195 1.649,-2.158308 0.63087,-0.836993 1.25617,-1.674421 1.86378,-2.488598 1.30076,-1.743271 2.5513,-3.42248 3.82299,-5.097524 0.66787,-0.87957 1.32617,-1.737833 1.98527,-2.581117 0.61444,-0.785812 1.21445,-1.539926 1.8156,-2.270424 0.39237,-0.476456 0.7695,-0.923843 1.14275,-1.349036 0.0706,-0.08042 0.14081,-0.159644 0.2098,-0.236772 0.0216,-0.02406 0.0468,-0.05216 0.0718,-0.08002 0.0175,-0.01935 0.0423,-0.04681 0.0669,-0.07401 0.0167,-0.01838 0.0411,-0.04518 0.0653,-0.07171 0.0159,-0.01738 0.0399,-0.0435 0.0636,-0.06935 0.0151,-0.01634 0.0386,-0.04178 0.0619,-0.06693 0.0142,-0.01527 0.0373,-0.04001 0.06,-0.06443 0.0133,-0.01416 0.0359,-0.03818 0.0582,-0.06187 0.013,-0.01374 0.026,-0.02736 0.0388,-0.04086 0.006,-0.0061 0.0116,-0.01225 0.0174,-0.01838 0.0109,-0.01141 0.0325,-0.03395 0.0541,-0.05652 0.01,-0.01017 0.0309,-0.03193 0.0519,-0.05372 0.009,-0.0089 0.0291,-0.02984 0.0496,-0.05083 0.007,-0.0075 0.0273,-0.02768 0.0473,-0.04785 0.006,-0.0061 0.0254,-0.02544 0.0447,-0.04478 0.005,-0.0046 0.0234,-0.02312 0.042,-0.0416 0.003,-0.0031 0.0212,-0.02071 0.0392,-0.03831 0.002,-0.0015 0.0189,-0.01821 0.0362,-0.0349 -1.8e-4,1.73e-4 0.0164,-0.0156 0.033,-0.03136 -0.002,0.0019 0.0138,-0.01289 0.0296,-0.02769 -0.004,0.0038 0.0109,-0.01006 0.0259,-0.02388 -0.006,0.0057 0.008,-0.0071 0.022,-0.01991 -0.009,0.0078 0.005,-0.004 0.0177,-0.01578 -0.0113,0.0099 9.2e-4,-7.98e-4 0.0131,-0.01147 -0.0142,0.01215 -0.003,0.0026 0.008,-0.007 -0.0174,0.01453 -0.007,0.0061 0.003,-0.0023 -0.0209,0.01704 -0.012,0.0098 -0.003,0.0026 -0.0247,0.01969 -0.0172,0.01372 -0.01,0.0078 -0.029,0.02248 -0.023,0.01781 -0.017,0.01314 -0.0338,0.02542 -0.0294,0.02209 -0.025,0.01876 -0.0392,0.02851 -0.0365,0.02656 -0.0339,0.02462 -0.0453,0.03175 -0.0445,0.03124 -0.0438,0.03073 8e-5,-5.4e-5 1.6e-4,-1.08e-4 2.4e-4,-1.62e-4 l -0.11128,0.07336 c 0.0167,-0.01079 0.0333,-0.02145 0.0496,-0.03199 l -0.12342,0.07766 c 0.0163,-0.01001 0.0324,-0.01989 0.0483,-0.02965 l -0.1374,0.08206 c 0.0159,-0.0092 0.0315,-0.01832 0.047,-0.02728 l -0.15355,0.08645 c 0.0155,-0.0084 0.0307,-0.01673 0.0456,-0.02489 l -0.17224,0.09067 c 0.015,-0.0076 0.0298,-0.01512 0.0443,-0.02248 l -0.19394,0.09448 c 0.0146,-0.0068 0.0289,-0.0135 0.0429,-0.02004 l -0.21914,0.09752 c 0.0142,-0.006 0.028,-0.01186 0.0415,-0.01758 l -0.24841,0.09924 c 0.0138,-0.0052 0.0271,-0.01021 0.0401,-0.01509 l -0.28232,0.09891 c 0.0134,-0.0043 0.0263,-0.0085 0.0387,-0.01258 l -0.32136,0.09545 c 0.013,-0.0035 0.0254,-0.0068 0.0373,-0.01005 l -0.36586,0.08743 c 0.0126,-0.0026 0.0246,-0.0051 0.0359,-0.0075 l -0.41572,0.073 c 0.0123,-0.0018 0.0238,-0.0034 0.0344,-0.0049 a 6.5723452,6.5723452 90 0 0 -1.8567,-13.0129 z"
       id="path-1-2"
       inkscape:path-effect="#path-effect7;#path-effect8"
       inkscape:original-d="m 134.23729,61.779661 c -2.87261,0.307928 -21.78651,29.081494 -16.77966,19.067797"
       style="fill:#ffffff;fill-opacity:1;fill-rule:nonzero;stroke:none;stroke-width:0;stroke-linecap:round;stroke-linejoin:round;stroke-dashoffset:2.26772" />
    <path
       d="m 115.65885,72.205888 c 0.008,-0.0023 0.017,-0.0046 0.0257,-0.007 -0.0542,0.01381 -0.0451,0.01151 -0.036,0.0092 -0.053,0.01258 -0.0436,0.01033 -0.034,0.0081 -0.0519,0.0114 -0.0419,0.0092 -0.0319,0.007 -0.0507,0.01028 -0.0403,0.0082 -0.0298,0.006 -0.0494,0.0092 -0.0385,0.0072 -0.0275,0.0051 -0.0482,0.0082 -0.0368,0.0062 -0.0253,0.0043 -0.0468,0.0072 -0.0349,0.0054 -0.023,0.0035 -0.0455,0.0063 -0.0331,0.0046 -0.0206,0.0029 -0.0441,0.0054 -0.0312,0.0038 -0.0182,0.0022 -0.0427,0.0046 -0.0293,0.0032 -0.0158,0.0017 -0.0413,0.0039 -0.0274,0.0026 -0.0134,0.0013 -0.0399,0.0032 -0.0255,0.002 -0.011,8.67e-4 -0.0385,0.0025 -0.0235,0.0015 -0.008,5.53e-4 -0.037,0.0019 -0.0216,0.0011 -0.006,3.1e-4 -0.0356,0.0013 -0.0196,7.42e-4 -0.004,1.36e-4 -0.0341,8.38e-4 -0.0177,4.34e-4 -0.001,2.7e-5 -0.0327,3.79e-4 -0.0157,1.82e-4 0.001,-1.5e-5 -0.0313,-3.6e-5 -0.0138,-1.6e-5 0.004,4e-6 -0.0298,-4.07e-4 -0.0118,-1.62e-4 0.006,8.5e-5 -0.0284,-7.36e-4 -0.01,-2.58e-4 0.009,2.23e-4 -0.027,-0.001 -0.008,-3.05e-4 0.011,4.17e-4 -0.0256,-0.0013 -0.006,-3.05e-4 0.0134,6.65e-4 -0.0242,-0.0015 -0.004,-2.62e-4 0.0157,9.64e-4 -0.0228,-0.0017 -0.002,-1.77e-4 0.018,0.0013 -0.0215,-0.0018 -6.3e-4,-5.2e-5 0.0203,0.0017 -0.0202,-0.0019 0.001,1.11e-4 0.0226,0.0021 -0.0189,-0.002 0.003,3.11e-4 0.0248,0.0026 -0.0176,-0.002 0.005,5.44e-4 0.027,0.0031 -0.0163,-0.0021 0.006,8.11e-4 0.0291,0.0037 -0.015,-0.0021 0.008,0.0011 0.0312,0.0043 -0.0138,-0.002 0.01,0.0014 0.0333,0.0049 -0.0126,-0.002 0.0114,0.0018 0.0354,0.0055 -0.0114,-0.0019 0.013,0.0022 0.0374,0.0062 -0.0102,-0.0018 0.0145,0.0026 0.0394,0.0069 -0.009,-0.0017 0.0161,0.003 0.0413,0.0077 -0.008,-0.0016 0.0176,0.0034 0.0432,0.0084 -0.007,-0.0014 0.0191,0.0039 0.0451,0.0092 -0.006,-0.0012 0.0205,0.0044 0.0469,0.01 -0.005,-0.0011 0.022,0.0049 0.0487,0.01079 -0.004,-8.56e-4 0.0233,0.0054 0.0504,0.01162 -0.003,-6.47e-4 0.0247,0.0059 0.0521,0.01246 -0.002,-4.24e-4 0.026,0.0064 0.0538,0.01331 -7.5e-4,-1.92e-4 0.0274,0.007 0.0554,0.01418 2e-4,5.2e-5 0.0286,0.0076 0.057,0.01505 0.001,3.05e-4 0.0299,0.0081 0.0586,0.01594 0.002,5.67e-4 0.0311,0.0087 0.0601,0.01683 0.003,8.37e-4 0.0323,0.0093 0.0616,0.01773 0.004,0.0011 0.0335,0.0099 0.0631,0.01864 0.005,0.0014 0.0346,0.01048 0.0645,0.01955 0.005,0.0017 0.0357,0.01109 0.0659,0.02047 0.006,0.002 0.0368,0.0117 0.0673,0.02138 0.007,0.0023 0.0379,0.01231 0.0686,0.02231 0.008,0.0026 0.0389,0.01293 0.0699,0.02323 0.009,0.0029 0.0399,0.01355 0.0712,0.02415 0.009,0.0032 0.0409,0.01417 0.0725,0.02508 0.01,0.0035 0.0419,0.01479 0.0737,0.026 0.0107,0.0039 0.0429,0.01542 0.0748,0.02693 0.0114,0.0042 0.0438,0.01604 0.076,0.02785 0.0121,0.0045 0.0447,0.01667 0.0771,0.02876 0.0127,0.0048 0.0456,0.01729 0.0782,0.02968 0.0134,0.0052 0.0464,0.01792 0.0793,0.03059 0.014,0.0055 0.0473,0.01854 0.0803,0.0315 0.0146,0.0058 0.0481,0.01916 0.0814,0.03241 0.0152,0.0062 0.0489,0.01979 0.0823,0.03331 0.0158,0.0065 0.0497,0.02041 0.0833,0.03421 0.0164,0.0068 0.0505,0.02103 0.0842,0.0351 0.0169,0.0072 0.0512,0.02165 0.0852,0.03598 0.0175,0.0075 0.052,0.02227 0.0861,0.03686 0.0215,0.0094 0.0429,0.01863 0.0641,0.02783 0.008,0.0033 0.0152,0.0066 0.0228,0.0099 0.018,0.0079 0.0528,0.02323 0.0878,0.0386 0.0185,0.0082 0.0535,0.02383 0.0886,0.03946 0.019,0.0086 0.0541,0.02442 0.0894,0.04031 0.0194,0.0089 0.0548,0.025 0.0902,0.04116 0.0199,0.0092 0.0554,0.02558 0.0909,0.042 0.0204,0.0095 0.056,0.02616 0.0917,0.04283 0.0208,0.0098 0.0566,0.02673 0.0924,0.04365 0.0212,0.01013 0.0571,0.0273 0.0931,0.04446 0.0216,0.01044 0.0577,0.02786 0.0937,0.04527 0.022,0.01075 0.0582,0.02841 0.0944,0.04607 0.0224,0.01105 0.0587,0.02896 0.095,0.04686 0.0228,0.01135 0.0592,0.02951 0.0957,0.04764 0.0232,0.01165 0.0597,0.03005 0.0963,0.04841 0.0235,0.01195 0.0602,0.03058 0.0968,0.04917 0.0239,0.01225 0.0607,0.03111 0.0974,0.04993 0.0242,0.01254 0.0611,0.03163 0.0979,0.05067 0.0246,0.01283 0.0616,0.03215 0.0985,0.05141 0.0249,0.01311 0.062,0.03266 0.099,0.05213 0.0252,0.0134 0.0624,0.03316 0.0995,0.05285 0.0255,0.01368 0.0628,0.03366 0.1,0.05356 0.0258,0.01396 0.0632,0.03416 0.10041,0.05425 0.0261,0.01424 0.0636,0.03465 0.10086,0.05494 0.0264,0.01451 0.064,0.03513 0.10128,0.05562 0.0267,0.01479 0.0643,0.03561 0.1017,0.05629 0.027,0.01506 0.0647,0.03609 0.10209,0.05695 0.0273,0.01533 0.065,0.03656 0.10247,0.0576 0.0276,0.0156 0.0654,0.03702 0.10284,0.05823 0.0295,0.01682 0.069,0.03937 0.10809,0.06166 0.1033,0.05916 0.20553,0.118346 0.3066,0.177444 0.10606,0.06201 0.21083,0.123915 0.31419,0.185571 0.68408,0.408109 1.36045,0.837191 2.02877,1.28079 0.80047,0.531427 1.5859,1.08147 2.35471,1.641825 0.8401,0.612426 1.65842,1.235842 2.45299,1.862606 0.79161,0.624528 1.55624,1.249688 2.29306,1.871164 0.58879,0.496712 1.15091,0.983486 1.68879,1.46168 0.40247,0.357936 0.77736,0.698455 1.13161,1.028474 0.28489,0.265682 0.52324,0.492934 0.73772,0.705158 0.006,0.006 0.0164,0.01627 0.0263,0.02612 0.0106,0.01059 0.0206,0.02058 0.03,0.02993 a 7.6456234,7.6456234 90 0 0 10.80014,-10.824942 c -0.0111,-0.01109 -0.0231,-0.02308 -0.036,-0.03592 -0.004,-0.004 -0.008,-0.008 -0.012,-0.01196 -0.0117,-0.01163 -0.0241,-0.02393 -0.0371,-0.03688 -0.003,-0.003 -0.006,-0.0059 -0.009,-0.0089 -0.36086,-0.357254 -0.71926,-0.697512 -1.07407,-1.028387 -0.4553,-0.424157 -0.91845,-0.844493 -1.39674,-1.269845 -0.6415,-0.570321 -1.30372,-1.143616 -1.99023,-1.722762 -0.85946,-0.72491 -1.75325,-1.455742 -2.68176,-2.188282 -0.93162,-0.734867 -1.90447,-1.476398 -2.91647,-2.214135 -0.92517,-0.67432 -1.8945,-1.353897 -2.90493,-2.024718 -0.84275,-0.559375 -1.72777,-1.121835 -2.65186,-1.673131 -0.14063,-0.08389 -0.28384,-0.168511 -0.42986,-0.253888 -0.14138,-0.08266 -0.28553,-0.166112 -0.43233,-0.25016 -0.003,-0.002 -0.007,-0.0039 -0.0104,-0.0059 -0.0408,-0.02329 -0.0822,-0.04687 -0.12397,-0.07071 -0.007,-0.004 -0.014,-0.0079 -0.0209,-0.0119 -0.0409,-0.02315 -0.0822,-0.04655 -0.12395,-0.07019 -0.007,-0.004 -0.0142,-0.008 -0.0213,-0.012 -0.0409,-0.023 -0.0822,-0.04622 -0.12392,-0.06965 -0.007,-0.004 -0.0144,-0.0081 -0.0216,-0.01211 -0.0409,-0.02284 -0.0822,-0.04588 -0.12389,-0.06911 -0.007,-0.0041 -0.0146,-0.0082 -0.022,-0.01221 -0.041,-0.02267 -0.0823,-0.04553 -0.12385,-0.06855 -0.007,-0.0041 -0.0149,-0.0082 -0.0223,-0.01231 -0.041,-0.0225 -0.0823,-0.04517 -0.1238,-0.06799 -0.008,-0.0042 -0.0151,-0.0083 -0.0227,-0.01242 -0.041,-0.02233 -0.0822,-0.0448 -0.12374,-0.06741 -0.008,-0.0042 -0.0154,-0.0084 -0.0231,-0.01252 -0.041,-0.02215 -0.0822,-0.04443 -0.12368,-0.06683 -0.008,-0.0042 -0.0156,-0.0084 -0.0235,-0.01263 -0.041,-0.02197 -0.0822,-0.04405 -0.12361,-0.06624 -0.008,-0.0043 -0.0159,-0.0085 -0.0239,-0.01273 -0.041,-0.02178 -0.0822,-0.04366 -0.12354,-0.06563 -0.008,-0.0043 -0.0162,-0.0086 -0.0243,-0.01284 -0.041,-0.02159 -0.0821,-0.04327 -0.12346,-0.06502 -0.008,-0.0043 -0.0164,-0.0086 -0.0247,-0.01294 -0.041,-0.02139 -0.0821,-0.04286 -0.12337,-0.0644 -0.008,-0.0044 -0.0167,-0.0087 -0.0251,-0.01305 -0.041,-0.02119 -0.0821,-0.04245 -0.12327,-0.06377 -0.009,-0.0044 -0.017,-0.0088 -0.0255,-0.01315 -0.041,-0.02099 -0.082,-0.04204 -0.12316,-0.06313 -0.009,-0.0044 -0.0173,-0.0089 -0.026,-0.01326 -0.0409,-0.02078 -0.082,-0.04162 -0.12305,-0.06248 -0.009,-0.0045 -0.0176,-0.0089 -0.0264,-0.01336 -0.0409,-0.02057 -0.0819,-0.04118 -0.12293,-0.06182 -0.009,-0.0045 -0.0179,-0.009 -0.0269,-0.01346 -0.0409,-0.02036 -0.0818,-0.04075 -0.12281,-0.06115 -0.009,-0.0045 -0.0183,-0.0091 -0.0274,-0.01357 -0.0409,-0.02014 -0.0818,-0.04031 -0.12267,-0.06048 -0.009,-0.0046 -0.0186,-0.0091 -0.0279,-0.01367 -0.0408,-0.01992 -0.0817,-0.03986 -0.12253,-0.05979 -0.009,-0.0046 -0.0189,-0.0092 -0.0284,-0.01377 -0.0408,-0.0197 -0.0816,-0.0394 -0.12239,-0.05909 -0.01,-0.0046 -0.0192,-0.0093 -0.0289,-0.01387 -0.0408,-0.01947 -0.0815,-0.03894 -0.12223,-0.05839 -0.01,-0.0047 -0.0196,-0.0093 -0.0294,-0.01397 -0.0407,-0.01924 -0.0814,-0.03847 -0.12206,-0.05767 -0.01,-0.0047 -0.02,-0.0094 -0.03,-0.01407 -0.0407,-0.01901 -0.0813,-0.03799 -0.12189,-0.05695 -0.0102,-0.0047 -0.0203,-0.0095 -0.0305,-0.01417 -0.0406,-0.01877 -0.0812,-0.03751 -0.12171,-0.05621 -0.0104,-0.0048 -0.0207,-0.0095 -0.0311,-0.01427 -0.0406,-0.01853 -0.0811,-0.03703 -0.12153,-0.05547 -0.0105,-0.0048 -0.0211,-0.0096 -0.0316,-0.01436 -0.0405,-0.01829 -0.081,-0.03653 -0.12134,-0.05472 -0.0107,-0.0048 -0.0215,-0.0097 -0.0322,-0.01445 -0.0405,-0.01804 -0.0809,-0.03603 -0.12113,-0.05396 -0.0109,-0.0049 -0.0219,-0.0097 -0.0328,-0.01454 -0.0405,-0.01779 -0.0808,-0.03553 -0.12094,-0.05319 -0.0111,-0.0049 -0.0223,-0.0098 -0.0335,-0.01463 -0.0132,-0.0057 -0.0264,-0.01146 -0.0396,-0.01717 -0.0268,-0.01163 -0.0538,-0.02337 -0.0812,-0.03523 -0.0114,-0.0049 -0.0227,-0.0098 -0.0341,-0.01471 -0.0396,-0.01697 -0.0798,-0.03418 -0.1205,-0.05161 -0.0116,-0.005 -0.0232,-0.0099 -0.0348,-0.01479 -0.0396,-0.01673 -0.0797,-0.03367 -0.12027,-0.05082 -0.0118,-0.005 -0.0236,-0.0099 -0.0354,-0.01487 -0.0396,-0.01648 -0.0796,-0.03315 -0.12003,-0.05001 -0.012,-0.005 -0.0241,-0.01 -0.0361,-0.01494 -0.0395,-0.01622 -0.0794,-0.03262 -0.11979,-0.04919 -0.0123,-0.005 -0.0246,-0.01004 -0.0368,-0.01501 -0.0395,-0.01596 -0.0793,-0.03209 -0.11954,-0.04836 -0.0125,-0.0051 -0.025,-0.01009 -0.0376,-0.01508 -0.0394,-0.0157 -0.0792,-0.03154 -0.11929,-0.04752 -0.0127,-0.0051 -0.0255,-0.01013 -0.0383,-0.01514 -0.0393,-0.01543 -0.079,-0.03099 -0.11902,-0.04668 -0.013,-0.0051 -0.026,-0.01017 -0.0391,-0.0152 -0.0393,-0.01516 -0.0789,-0.03043 -0.11875,-0.04582 -0.0133,-0.0051 -0.0266,-0.0102 -0.0399,-0.01525 -0.0392,-0.01488 -0.0787,-0.02987 -0.11847,-0.04495 -0.0135,-0.0051 -0.0271,-0.01023 -0.0406,-0.01529 -0.0391,-0.0146 -0.0785,-0.02929 -0.11819,-0.04408 -0.0138,-0.0052 -0.0276,-0.01026 -0.0415,-0.01533 -0.0391,-0.01431 -0.0784,-0.02871 -0.11789,-0.04319 -0.0141,-0.0052 -0.0282,-0.01028 -0.0423,-0.01536 -0.039,-0.01402 -0.0782,-0.02812 -0.11759,-0.0423 -0.0144,-0.0052 -0.0288,-0.0103 -0.0432,-0.01539 -0.0389,-0.01373 -0.078,-0.02753 -0.11729,-0.0414 -0.0147,-0.0052 -0.0294,-0.01031 -0.0441,-0.0154 -0.0388,-0.01343 -0.0778,-0.02693 -0.11696,-0.04048 -0.015,-0.0052 -0.03,-0.01032 -0.045,-0.01541 -0.0387,-0.01313 -0.0776,-0.02632 -0.11665,-0.03956 -0.0153,-0.0052 -0.0306,-0.01032 -0.0459,-0.01541 -0.0386,-0.01283 -0.0774,-0.02571 -0.11631,-0.03863 -0.0156,-0.0052 -0.0312,-0.01031 -0.0468,-0.01539 -0.0385,-0.01252 -0.0772,-0.02508 -0.11598,-0.03769 -0.0159,-0.0052 -0.0319,-0.0103 -0.0478,-0.01537 -0.0384,-0.01221 -0.077,-0.02445 -0.11564,-0.03674 -0.0163,-0.0052 -0.0325,-0.01028 -0.0488,-0.01534 -0.0383,-0.01189 -0.0767,-0.02382 -0.11528,-0.03578 -0.0166,-0.0052 -0.0332,-0.01025 -0.0499,-0.01529 -0.0382,-0.01157 -0.0765,-0.02318 -0.11492,-0.03481 -0.0169,-0.0051 -0.0339,-0.01021 -0.0509,-0.01523 -0.0381,-0.01125 -0.0763,-0.02253 -0.11456,-0.03384 -0.0173,-0.0051 -0.0346,-0.01017 -0.052,-0.01516 -0.038,-0.01093 -0.076,-0.02188 -0.11418,-0.03285 -0.0177,-0.0051 -0.0354,-0.01011 -0.0531,-0.01507 -0.0379,-0.0106 -0.0758,-0.02121 -0.11381,-0.03185 -0.0181,-0.0051 -0.0361,-0.01004 -0.0542,-0.01496 -0.0378,-0.01026 -0.0756,-0.02055 -0.11342,-0.03084 -0.0184,-0.005 -0.0369,-0.01 -0.0554,-0.01484 -0.0376,-0.0099 -0.0753,-0.01987 -0.11303,-0.02983 -0.0188,-0.005 -0.0377,-0.0099 -0.0566,-0.0147 -0.0375,-0.0096 -0.075,-0.01919 -0.11262,-0.0288 -0.0192,-0.0049 -0.0385,-0.0098 -0.0578,-0.01454 -0.0374,-0.0092 -0.0748,-0.0185 -0.11221,-0.02777 -0.0197,-0.0049 -0.0393,-0.0097 -0.059,-0.01436 -0.0373,-0.0089 -0.0745,-0.01781 -0.1118,-0.02672 -0.0201,-0.0048 -0.0402,-0.0095 -0.0603,-0.01416 -0.0371,-0.0086 -0.0742,-0.01711 -0.11137,-0.02567 -0.0205,-0.0047 -0.0411,-0.0094 -0.0616,-0.01394 -0.037,-0.0082 -0.074,-0.0164 -0.11094,-0.02461 -0.021,-0.0046 -0.0419,-0.0092 -0.063,-0.01368 -0.0368,-0.0078 -0.0737,-0.01569 -0.1105,-0.02354 -0.0214,-0.0046 -0.0429,-0.009 -0.0643,-0.01341 -0.0367,-0.0075 -0.0734,-0.01497 -0.11006,-0.02245 -0.0219,-0.0045 -0.0438,-0.0088 -0.0657,-0.0131 -0.0366,-0.0071 -0.0731,-0.01425 -0.10961,-0.02136 -0.0224,-0.0044 -0.0447,-0.0086 -0.0671,-0.01277 -0.0364,-0.0068 -0.0728,-0.01351 -0.10915,-0.02026 -0.0228,-0.0042 -0.0457,-0.0084 -0.0686,-0.01241 -0.0363,-0.0064 -0.0725,-0.01278 -0.10869,-0.01915 -0.0233,-0.0041 -0.0467,-0.0081 -0.0701,-0.01201 -0.0361,-0.006 -0.0722,-0.01203 -0.1082,-0.01803 -0.0238,-0.004 -0.0477,-0.0078 -0.0716,-0.01158 -0.036,-0.0056 -0.0719,-0.01128 -0.10772,-0.0169 -0.0244,-0.0038 -0.0487,-0.0075 -0.0731,-0.01111 -0.0358,-0.0053 -0.0716,-0.01052 -0.10724,-0.01577 -0.0249,-0.0037 -0.0498,-0.0072 -0.0747,-0.01061 -0.0356,-0.0049 -0.0712,-0.0098 -0.10674,-0.01462 -0.0254,-0.0035 -0.0508,-0.0068 -0.0763,-0.01006 -0.0355,-0.0045 -0.0709,-0.009 -0.10624,-0.01346 -0.026,-0.0033 -0.0519,-0.0064 -0.0779,-0.0095 -0.0353,-0.0041 -0.0706,-0.0082 -0.10573,-0.0123 -0.0265,-0.0031 -0.053,-0.006 -0.0796,-0.0088 -0.0352,-0.0037 -0.0703,-0.0074 -0.10521,-0.01112 -0.0271,-0.0029 -0.0542,-0.0056 -0.0813,-0.0082 -0.035,-0.0033 -0.0699,-0.0066 -0.10469,-0.0099 -0.0276,-0.0026 -0.0553,-0.0051 -0.083,-0.0074 -0.0348,-0.0029 -0.0696,-0.0058 -0.10415,-0.0087 -0.0282,-0.0024 -0.0565,-0.0046 -0.0847,-0.0066 -0.0347,-0.0025 -0.0692,-0.005 -0.10361,-0.0075 -0.0288,-0.0021 -0.0576,-0.004 -0.0865,-0.0058 -0.0345,-0.0021 -0.0689,-0.0042 -0.10307,-0.0063 -0.0294,-0.0018 -0.0588,-0.0034 -0.0882,-0.0049 -0.0343,-0.0017 -0.0685,-0.0034 -0.10252,-0.0051 -0.03,-0.0015 -0.06,-0.0028 -0.09,-0.0039 -0.0342,-0.0013 -0.0682,-0.0026 -0.10195,-0.0039 -0.0306,-0.0012 -0.0612,-0.0021 -0.0919,-0.0029 -0.034,-8.8e-4 -0.0678,-0.0018 -0.10138,-0.0026 -0.0312,-8.09e-4 -0.0624,-0.0014 -0.0937,-0.0019 -0.0338,-4.61e-4 -0.0674,-9.2e-4 -0.10081,-0.0014 -0.0318,-4.35e-4 -0.0637,-6.7e-4 -0.0955,-7.07e-4 -0.0336,-3.9e-5 -0.067,-7.7e-5 -0.10022,-1.15e-4 -0.0325,-3.7e-5 -0.0649,1.32e-4 -0.0974,5.08e-4 -0.0335,3.88e-4 -0.0667,7.72e-4 -0.0996,0.0012 -0.0331,3.84e-4 -0.0662,9.82e-4 -0.0992,0.0018 -0.0333,8.18e-4 -0.0663,0.0016 -0.099,0.0024 -0.0337,8.28e-4 -0.0674,0.0019 -0.10108,0.0032 -0.0331,0.0013 -0.0659,0.0025 -0.0984,0.0037 -0.0343,0.0013 -0.0686,0.0028 -0.10294,0.0046 -0.0329,0.0017 -0.0655,0.0034 -0.0978,0.005 -0.0349,0.0018 -0.0699,0.0038 -0.10479,0.0061 -0.0327,0.0021 -0.0651,0.0042 -0.0972,0.0063 -0.0356,0.0023 -0.0711,0.0049 -0.10662,0.0077 -0.0325,0.0026 -0.0647,0.0051 -0.0966,0.0076 -0.0362,0.0029 -0.0723,0.006 -0.10845,0.0094 -0.0324,0.003 -0.0644,0.006 -0.0959,0.009 -0.0368,0.0034 -0.0735,0.0071 -0.11025,0.01111 -0.0322,0.0035 -0.064,0.0069 -0.0953,0.01031 -0.0374,0.004 -0.0747,0.0084 -0.11203,0.01295 -0.032,0.0039 -0.0636,0.0078 -0.0947,0.01165 -0.038,0.0047 -0.0759,0.0096 -0.11377,0.01487 -0.0318,0.0044 -0.0632,0.0087 -0.094,0.013 -0.0385,0.0053 -0.077,0.01096 -0.11548,0.01687 -0.0317,0.0049 -0.0628,0.0097 -0.0933,0.01437 -0.0391,0.006 -0.0782,0.01234 -0.11715,0.01896 -0.0315,0.0054 -0.0624,0.0106 -0.0927,0.01574 -0.0396,0.0067 -0.0792,0.01378 -0.11876,0.02114 -0.0314,0.0058 -0.062,0.01155 -0.092,0.01712 -0.0402,0.0075 -0.0803,0.01528 -0.12031,0.02339 -0.0312,0.0063 -0.0617,0.01251 -0.0913,0.01852 -0.0407,0.0082 -0.0813,0.01682 -0.1218,0.02573 -0.0311,0.0068 -0.0613,0.01348 -0.0906,0.01992 -0.0412,0.009 -0.0822,0.01843 -0.12321,0.02815 -0.0311,0.0074 -0.061,0.01448 -0.0899,0.02133 -0.0416,0.0099 -0.0831,0.02008 -0.12456,0.03065 -0.0311,0.0079 -0.0608,0.0155 -0.0892,0.02275 -0.042,0.01072 -0.084,0.02179 -0.1258,0.03322 -0.0312,0.0085 -0.0607,0.01658 -0.0885,0.02418 a 7.6456234,7.6456234 90 0 0 4.02956,14.75076 z"
       id="path-1-11"
       inkscape:path-effect="#path-effect9;#path-effect10"
       inkscape:original-d="m 113.64407,64.830508 c 7.52174,-2.124384 22.90837,11.467696 25.9322,14.491526"
       style="fill:#ffffff;fill-opacity:1;fill-rule:nonzero;stroke:none;stroke-width:0;stroke-linecap:round;stroke-linejoin:round;stroke-dashoffset:2.26772" />
    <path
       d="m 135.67821,97.939418 c -0.87627,0.375594 -1.49697,0.823544 -1.73697,1.00365 -0.0222,0.01664 -0.0447,0.03284 -0.0668,0.04955 -0.54757,0.413472 -0.95501,0.812724 -1.13792,0.995582 -0.0107,0.01073 -0.0218,0.02113 -0.0325,0.03182 -0.44285,0.44011 -0.81901,0.86211 -1.10069,1.18282 -0.004,0.005 -0.008,0.009 -0.0122,0.0136 -0.46717,0.53017 -0.90655,1.05153 -1.32854,1.55494 -0.54095,0.6442 -1.079,1.29191 -1.61791,1.93697 -0.80705,0.96362 -1.63041,1.93932 -2.46178,2.90303 -1.52247,1.76121 -3.08146,3.4968 -4.69193,5.17003 -1.12132,1.16582 -2.26586,2.29994 -3.44073,3.38643 -0.94824,0.87708 -1.90703,1.7145 -2.88274,2.50211 -0.85678,0.69151 -1.71087,1.33186 -2.56949,1.91426 -0.73821,0.50053 -1.45879,0.94372 -2.16831,1.32707 -0.67061,0.36204 -1.30013,0.65346 -1.89564,0.87828 -0.11933,0.0436 -0.237,0.0837 -0.35153,0.11981 -0.003,0.001 -0.006,0.002 -0.009,0.003 -0.19803,0.065 -0.40704,0.12346 -0.62642,0.17485 -0.43799,0.10719 -0.92363,0.19201 -1.46294,0.25539 -0.62086,0.0736 -1.28217,0.11547 -1.98648,0.13327 -0.49214,0.0132 -0.99682,0.0146 -1.51298,0.007 -0.38556,-0.006 -0.77786,-0.0163 -1.17791,-0.0307 -1.31999,-0.0433 -2.636372,-0.12281 -4.102629,-0.19769 -0.971667,-0.055 -1.99616,-0.10808 -3.048432,-0.13554 -0.403547,-0.0238 -0.643352,-0.0405 -0.791776,-0.068 -0.0036,-6.8e-4 -0.0073,-9.4e-4 -0.01101,-7.1e-4 -0.0037,2.3e-4 -0.0074,4.3e-4 -0.01106,2.7e-4 -0.932725,-0.04 -1.831324,-0.14514 -2.688266,-0.31259 -0.793375,-0.15716 -1.541993,-0.36661 -2.239026,-0.62448 -0.651749,-0.24291 -1.25292,-0.52664 -1.797603,-0.84535 -0.47993,-0.28418 -0.917046,-0.59632 -1.306818,-0.93047 -0.363619,-0.3133 -0.69367,-0.65139 -0.985373,-1.00912 -0.275262,-0.3386 -0.526856,-0.70546 -0.749025,-1.09752 -0.141268,-0.26549 -0.273455,-0.54731 -0.394594,-0.84582 -0.002,-0.005 -0.0044,-0.01 -0.0076,-0.0144 -0.0032,-0.004 -0.0071,-0.008 -0.01074,-0.0122 -0.0036,-0.004 -0.0069,-0.009 -0.0086,-0.0137 -0.0018,-0.005 -0.0018,-0.0107 -0.0015,-0.0161 0.0027,-0.0481 0.0047,-0.0967 0.0057,-0.14572 1.13e-4,-0.006 1.52e-4,-0.0111 -7.09e-4,-0.0166 -8.61e-4,-0.005 -0.0026,-0.0108 -0.0053,-0.0157 -0.0053,-0.01 -0.01404,-0.017 -0.02276,-0.0238 -0.0087,-0.007 -0.01749,-0.0141 -0.02289,-0.0237 -0.0027,-0.005 -0.0045,-0.0101 -0.0054,-0.0156 -9.33e-4,-0.005 -9.73e-4,-0.011 -9.39e-4,-0.0166 2.91e-4,-0.0471 -3.16e-4,-0.0947 -0.002,-0.14279 -1.94e-4,-0.005 -4.56e-4,-0.011 -0.0015,-0.0164 -0.0011,-0.005 -0.003,-0.0106 -0.0056,-0.0154 -0.0054,-0.01 -0.01387,-0.0169 -0.02237,-0.0239 -0.0085,-0.007 -0.01703,-0.0143 -0.02249,-0.0238 -0.0027,-0.005 -0.0047,-0.01 -0.0058,-0.0153 -0.0011,-0.005 -0.0015,-0.0109 -0.0018,-0.0164 -0.0023,-0.0461 -0.0056,-0.0925 -0.01008,-0.13945 -0.001,-0.0108 -0.003,-0.0218 -0.0084,-0.0312 -0.0054,-0.009 -0.01365,-0.0169 -0.02189,-0.024 -0.0082,-0.007 -0.01649,-0.0145 -0.02201,-0.0238 -0.0055,-0.009 -0.0076,-0.0203 -0.0088,-0.0311 -0.0049,-0.0449 -0.01097,-0.0901 -0.01825,-0.1358 -0.0017,-0.0106 -0.0042,-0.0213 -0.0097,-0.0306 -0.0055,-0.009 -0.0134,-0.0168 -0.02135,-0.024 -0.008,-0.007 -0.0159,-0.0147 -0.02148,-0.0239 -0.0056,-0.009 -0.0082,-0.0199 -0.01004,-0.0305 -0.0076,-0.0436 -0.01633,-0.0876 -0.02636,-0.13195 -0.0023,-0.0104 -0.0053,-0.0208 -0.01088,-0.0299 -0.0055,-0.009 -0.01313,-0.0167 -0.02078,-0.0241 -0.0076,-0.007 -0.01529,-0.015 -0.02091,-0.024 -0.0056,-0.009 -0.0088,-0.0194 -0.01126,-0.0297 -0.0102,-0.0423 -0.02158,-0.085 -0.03426,-0.12798 -0.003,-0.0101 -0.0065,-0.0202 -0.01206,-0.0291 -0.0056,-0.009 -0.01286,-0.0167 -0.0202,-0.0242 -0.0073,-0.008 -0.01467,-0.0152 -0.02033,-0.0241 -0.0057,-0.009 -0.0093,-0.0189 -0.01242,-0.0289 -0.0023,-0.007 -0.0046,-0.0147 -0.0069,-0.022 -0.01067,-0.0334 -0.0222,-0.0674 -0.03454,-0.10222 -0.0035,-0.01 -0.0074,-0.0196 -0.01303,-0.0284 -0.0056,-0.009 -0.01267,-0.0165 -0.01978,-0.0242 -0.0071,-0.008 -0.0142,-0.0154 -0.01991,-0.0241 -0.0057,-0.009 -0.0098,-0.0184 -0.01338,-0.0282 -0.01464,-0.0395 -0.03037,-0.0799 -0.04712,-0.12119 -0.0039,-0.01 -0.0081,-0.0191 -0.01381,-0.0277 -0.0057,-0.009 -0.01256,-0.0164 -0.01951,-0.0241 -0.0069,-0.008 -0.01387,-0.0154 -0.01963,-0.024 -0.0058,-0.009 -0.01013,-0.018 -0.01415,-0.0275 -0.01638,-0.0388 -0.03369,-0.0784 -0.05189,-0.1186 -0.0042,-0.009 -0.0087,-0.0186 -0.01447,-0.0271 -0.0057,-0.008 -0.01249,-0.0162 -0.01931,-0.0239 -0.0068,-0.008 -0.01362,-0.0153 -0.01942,-0.0238 -0.0058,-0.008 -0.01045,-0.0176 -0.0148,-0.0269 -0.01788,-0.0382 -0.03657,-0.0769 -0.05604,-0.11629 -0.0045,-0.009 -0.0093,-0.0181 -0.01503,-0.0265 -0.0058,-0.008 -0.01244,-0.016 -0.01916,-0.0237 -0.0067,-0.008 -0.01342,-0.0153 -0.01927,-0.0236 -0.0059,-0.008 -0.01073,-0.0172 -0.01535,-0.0263 -0.0192,-0.0375 -0.03913,-0.0756 -0.05974,-0.1142 -0.0095,-0.0177 -0.0213,-0.0341 -0.03456,-0.0492 -0.01327,-0.0151 -0.02527,-0.0314 -0.03498,-0.049 -0.02039,-0.037 -0.04144,-0.0744 -0.06309,-0.11227 -0.0099,-0.0173 -0.02177,-0.0334 -0.0349,-0.0483 -0.01313,-0.015 -0.02518,-0.0309 -0.0353,-0.0481 -0.02148,-0.0364 -0.04355,-0.0733 -0.06617,-0.11045 -0.01025,-0.0169 -0.02218,-0.0326 -0.0352,-0.0474 -0.01302,-0.0148 -0.02512,-0.0305 -0.03559,-0.0472 -0.02248,-0.0359 -0.04549,-0.0722 -0.06901,-0.10874 -0.01056,-0.0164 -0.02254,-0.0319 -0.03546,-0.0465 -0.01292,-0.0146 -0.02507,-0.03 -0.03584,-0.0463 -0.02341,-0.0354 -0.04731,-0.0711 -0.07167,-0.10711 -0.01083,-0.016 -0.02285,-0.0312 -0.03568,-0.0456 -0.01283,-0.0144 -0.02502,-0.0295 -0.03605,-0.0453 -0.02429,-0.0349 -0.04902,-0.0701 -0.07417,-0.10555 -0.01107,-0.0156 -0.02313,-0.0304 -0.03588,-0.0447 -0.01275,-0.0142 -0.02497,-0.029 -0.03623,-0.0444 -0.02511,-0.0345 -0.05064,-0.0691 -0.07654,-0.10404 -0.01127,-0.0152 -0.02336,-0.0297 -0.03604,-0.0438 -0.01268,-0.014 -0.02492,-0.0284 -0.03638,-0.0435 -0.0259,-0.034 -0.05217,-0.0682 -0.07879,-0.10259 -0.01144,-0.0148 -0.02356,-0.029 -0.03617,-0.0428 -0.01261,-0.0138 -0.02487,-0.0279 -0.0365,-0.0425 -0.02664,-0.0336 -0.05363,-0.0673 -0.08094,-0.10118 -0.01159,-0.0144 -0.02373,-0.0283 -0.03627,-0.0419 -0.01254,-0.0136 -0.02482,-0.0274 -0.03658,-0.0416 -0.02736,-0.0331 -0.05503,-0.0664 -0.08299,-0.0998 -0.02344,-0.028 -0.04921,-0.054 -0.07298,-0.0817 -0.02804,-0.0327 -0.05637,-0.0655 -0.08497,-0.0985 -0.02365,-0.0272 -0.04908,-0.0529 -0.07305,-0.0798 -0.02869,-0.0323 -0.05766,-0.0647 -0.08687,-0.0971 -0.02383,-0.0265 -0.04894,-0.0518 -0.07308,-0.078 -0.02933,-0.0319 -0.0589,-0.0638 -0.0887,-0.0959 -0.02397,-0.0258 -0.04879,-0.0507 -0.07305,-0.0762 -0.02994,-0.0315 -0.06011,-0.063 -0.09048,-0.0946 -0.02407,-0.0251 -0.04862,-0.0496 -0.07297,-0.0744 -0.03053,-0.0311 -0.06127,-0.0622 -0.09219,-0.0934 -0.02415,-0.0243 -0.04844,-0.0486 -0.07285,-0.0726 -0.03111,-0.0307 -0.0624,-0.0614 -0.09386,-0.0922 -0.0242,-0.0237 -0.04824,-0.0475 -0.07269,-0.0709 -0.03166,-0.0303 -0.06349,-0.0606 -0.09547,-0.091 -0.02422,-0.023 -0.04802,-0.0464 -0.07249,-0.0692 -0.0322,-0.0299 -0.06456,-0.0598 -0.09704,-0.0898 -0.02423,-0.0223 -0.04779,-0.0454 -0.07225,-0.0675 -0.03273,-0.0295 -0.06559,-0.0591 -0.09857,-0.0886 -0.01215,-0.0109 -0.02397,-0.0221 -0.03605,-0.0331 -0.170779,-0.15517 -0.342604,-0.30621 -0.515254,-0.45333 -0.17353,-0.14788 -0.347815,-0.29172 -0.522642,-0.43171 -0.234625,-0.1883 -0.470175,-0.36969 -0.705927,-0.54444 -1.146993,-0.85504 -2.313569,-1.56637 -3.443633,-2.16517 -1.187139,-0.62868 -2.371866,-1.15372 -3.524275,-1.59947 -1.316532,-0.50904 -2.62499,-0.92813 -3.905483,-1.27852 -1.41316,-0.38649 -2.819262,-0.69689 -4.207809,-0.94581 -1.403577,-0.25129 -2.808488,-0.44347 -4.211664,-0.57992 -1.18839,-0.11499 -2.392502,-0.192 -3.611075,-0.22302 -0.930366,-0.0229 -1.89453,-0.0202 -2.886079,0.0232 -0.821481,0.037 -1.73579,0.10337 -2.706889,0.23559 -0.0063,8.6e-4 -0.01261,0.002 -0.01891,0.003 -0.60522,0.0844 -1.416928,0.21751 -2.314986,0.45741 -0.01103,0.003 -0.02208,0.006 -0.03309,0.009 -0.457883,0.12502 -1.24028,0.35628 -2.121563,0.76756 -0.0122,0.006 -0.02442,0.0113 -0.03658,0.0171 -0.424866,0.2016 -1.160227,0.57807 -1.958874,1.19135 -0.0057,0.004 -0.01142,0.009 -0.01709,0.0131 -0.268836,0.20917 -0.58086,0.47311 -0.908333,0.79738 -0.0252,0.025 -0.05271,0.0474 -0.07977,0.0703 -0.02706,0.0229 -0.05019,0.0502 -0.0697,0.0798 -0.0061,0.009 -0.01224,0.0186 -0.01829,0.0279 -0.02043,0.0313 -0.04211,0.062 -0.06833,0.0887 -0.02622,0.0267 -0.0561,0.0494 -0.08584,0.0721 -0.02974,0.0227 -0.05917,0.046 -0.08435,0.0737 -0.02518,0.0276 -0.04519,0.0595 -0.06385,0.0919 -0.0054,0.009 -0.01075,0.0187 -0.01606,0.028 -0.01996,0.035 -0.0414,0.0694 -0.06821,0.0994 -0.02681,0.0301 -0.058,0.0558 -0.089,0.0816 -0.03101,0.0257 -0.06163,0.0523 -0.08719,0.0834 -0.02557,0.0311 -0.04499,0.0668 -0.06285,0.10286 -0.0047,0.009 -0.0093,0.0188 -0.01382,0.0281 -0.01904,0.0389 -0.0398,0.0772 -0.06688,0.11098 -0.02708,0.0338 -0.05933,0.063 -0.09137,0.0921 -0.03204,0.0291 -0.0636,0.0592 -0.08919,0.0941 -0.02559,0.0349 -0.04396,0.0745 -0.06051,0.11452 -0.0039,0.009 -0.0078,0.0188 -0.01156,0.0281 -0.01759,0.0429 -0.03714,0.0853 -0.06406,0.12307 -0.02691,0.0378 -0.05988,0.0707 -0.0926,0.10357 -0.03272,0.0328 -0.06487,0.0667 -0.09002,0.10569 -0.02515,0.039 -0.0419,0.0826 -0.05657,0.12662 -0.0031,0.009 -0.0062,0.0187 -0.0093,0.028 -0.01552,0.0469 -0.03325,0.0935 -0.05945,0.13539 -0.0262,0.0419 -0.0594,0.0789 -0.09232,0.11577 -0.03293,0.0369 -0.06515,0.0748 -0.08929,0.11799 -0.02414,0.0431 -0.03863,0.0909 -0.0508,0.13878 -0.0024,0.009 -0.0047,0.0187 -0.0071,0.0279 -0.01279,0.0508 -0.02804,0.10134 -0.05286,0.14745 -0.02483,0.0461 -0.05764,0.0873 -0.09015,0.12839 -0.03251,0.041 -0.06418,0.0833 -0.08664,0.13061 -0.02246,0.0473 -0.03403,0.0989 -0.04304,0.15052 -0.0016,0.009 -0.0032,0.0186 -0.0048,0.0277 -0.0094,0.0543 -0.02147,0.10848 -0.0442,0.15865 -0.02272,0.0502 -0.05438,0.0956 -0.08573,0.14092 -0.03135,0.0453 -0.0617,0.0918 -0.08175,0.14309 -0.02005,0.0513 -0.02804,0.10637 -0.03327,0.16119 -8.84e-4,0.009 -0.0018,0.0185 -0.0026,0.0275 -0.0054,0.0571 -0.01368,0.11446 -0.03352,0.16831 -0.01984,0.0539 -0.0495,0.10342 -0.07884,0.15275 -0.02934,0.0493 -0.05752,0.0999 -0.07443,0.15476 -0.01691,0.0549 -0.02074,0.11275 -0.02167,0.17013 -1.5e-4,0.009 -2.97e-4,0.0183 -4.48e-4,0.0273 -9.93e-4,0.0592 -0.0049,0.11881 -0.02113,0.17574 -0.01622,0.0569 -0.04298,0.11019 -0.06941,0.16316 -0.02643,0.053 -0.05157,0.10717 -0.06465,0.16491 -0.01309,0.0577 -0.01235,0.1176 -0.0086,0.17668 5.72e-4,0.009 0.0011,0.0181 0.0017,0.0269 0.0037,0.0603 0.0044,0.12119 -0.0076,0.18036 -0.01198,0.0592 -0.03496,0.11544 -0.05762,0.1714 -0.02267,0.0559 -0.04392,0.11306 -0.05264,0.1728 -0.0087,0.0597 -0.0032,0.12055 0.0053,0.18032 0.0013,0.009 0.0025,0.0179 0.0037,0.0266 0.0064,0.046 0.01155,0.0923 0.01021,0.13867 -0.0013,0.0464 -0.0086,0.0924 -0.01792,0.13788 -0.01856,0.0909 -0.03603,0.18227 -0.0412,0.27494 -0.05954,1.06624 0.0532,2.25188 0.445065,3.46759 0.422639,1.3106 1.116275,2.48404 2.003603,3.45938 1.019664,1.12138 2.101902,1.77177 2.838091,2.13556 0.003,0.001 0.006,0.003 0.0091,0.005 0.92889,0.45812 1.738904,0.67202 2.167963,0.77173 0.0073,0.002 0.01461,0.003 0.02193,0.005 0.659636,0.15234 1.20815,0.2115 1.460156,0.23612 0.0054,5.2e-4 0.01077,0.001 0.01615,0.002 0.496676,0.0488 0.757158,0.0561 0.821119,0.059 0.09164,0.005 -0.01926,0.001 -0.282557,-0.0405 -0.0049,-7.8e-4 -0.0098,-0.001 -0.01473,-0.002 -0.191448,-0.031 -0.610888,-0.10638 -1.138659,-0.2826 -0.0034,-0.001 -0.0068,-0.002 -0.01026,-0.003 -0.30104,-0.10137 -0.651823,-0.2397 -1.032385,-0.42991 a 9.0202157,9.0202157 90 0 0 8.065466,-16.13708 c -0.467131,-0.23348 -0.913209,-0.41096 -1.320784,-0.54788 -0.0034,-0.001 -0.0068,-0.002 -0.01027,-0.003 -0.72856,-0.24297 -1.360154,-0.36407 -1.784339,-0.43125 -0.0049,-7.7e-4 -0.0098,-0.002 -0.01473,-0.002 -0.538355,-0.0838 -1.002133,-0.11822 -1.212924,-0.13428 -0.275491,-0.0205 -0.366576,-0.0307 -0.231748,-0.0188 0.0054,4.8e-4 0.01076,0.001 0.01615,0.002 0.03998,0.003 0.353244,0.0305 0.792505,0.1313 0.0073,0.002 0.01461,0.003 0.02193,0.005 0.27491,0.0633 0.924997,0.22843 1.704384,0.61245 0.003,0.002 0.006,0.003 0.0091,0.005 0.621992,0.30705 1.592691,0.88295 2.522589,1.90568 l -0.01998,-0.022 c 0.822714,0.89862 1.465283,1.98124 1.85563,3.19109 0.356256,1.10458 0.455315,2.16858 0.402859,3.11256 -0.0052,0.093 0.0011,0.18615 0.0031,0.2793 0.001,0.0466 -0.0012,0.0934 -0.01005,0.13912 -0.0089,0.0457 -0.0249,0.0897 -0.04199,0.13307 0.0032,-0.008 0.0065,-0.0166 0.0099,-0.025 l -0.112561,0.70487 c 0.0039,-0.008 0.0079,-0.0161 0.01193,-0.0242 l -0.163829,0.68049 c 0.0046,-0.008 0.0092,-0.0156 0.01386,-0.0235 l -0.208463,0.64595 c 0.0052,-0.008 0.01042,-0.0151 0.01571,-0.0228 l -0.244952,0.60385 c 0.0058,-0.007 0.01161,-0.0146 0.01749,-0.0221 l -0.27269,0.55697 c 0.0064,-0.007 0.01277,-0.0142 0.01923,-0.0214 l -0.291864,0.50793 c 0.0069,-0.007 0.0139,-0.0138 0.02091,-0.0208 l -0.303247,0.45895 c 0.0075,-0.007 0.01501,-0.0135 0.02257,-0.0203 l -0.307959,0.41167 c 0.008,-0.007 0.01609,-0.0132 0.02419,-0.0199 l -0.307257,0.36725 c 0.0086,-0.006 0.01717,-0.0129 0.0258,-0.0194 l -0.302372,0.32635 c 0.0091,-0.006 0.01823,-0.0127 0.02739,-0.0191 l -0.149469,0.15012 c -0.277441,0.27516 -0.535892,0.49344 -0.748665,0.65951 -0.0057,0.004 -0.01139,0.009 -0.01708,0.0131 -0.618178,0.47525 -1.154113,0.74226 -1.372174,0.84661 -0.01214,0.006 -0.02439,0.0114 -0.03658,0.0171 -0.493167,0.23114 -0.783353,0.3033 -0.829202,0.31762 -0.0109,0.003 -0.0221,0.006 -0.03309,0.009 -0.109758,0.0308 -0.106859,0.023 0.100254,-0.003 l -0.01891,0.003 c 0.268636,-0.0342 0.604107,-0.0611 1.046215,-0.0783 0.499994,-0.0192 1.039805,-0.0199 1.619253,-0.003 0.750885,0.0218 1.52035,0.0728 2.304863,0.15139 0.923372,0.0924 1.841425,0.22096 2.748532,0.38588 0.897317,0.16336 1.764831,0.35912 2.599235,0.58963 0.756945,0.20944 1.464808,0.44163 2.124214,0.69868 0.577498,0.22547 1.091873,0.46018 1.548281,0.70375 0.435328,0.23254 0.783502,0.45526 1.059241,0.66248 0.05316,0.041 0.103475,0.0814 0.150049,0.12026 0.03446,0.029 0.06673,0.0571 0.09683,0.084 0.02993,0.0268 0.05768,0.0524 0.08329,0.0767 l -0.03605,-0.0331 c 0.03207,0.0305 0.06413,0.061 0.09616,0.0912 l -0.07225,-0.0674 c 0.03178,0.0307 0.06353,0.0613 0.09525,0.0917 l -0.07249,-0.0692 c 0.03149,0.0309 0.06294,0.0616 0.09435,0.0921 l -0.07269,-0.0709 c 0.01901,0.0189 0.03801,0.0377 0.05699,0.0565 0.01877,0.0189 0.03751,0.0376 0.05623,0.0564 l -0.07297,-0.0744 c 0.03065,0.0313 0.06124,0.0624 0.09176,0.0934 l -0.07305,-0.0762 c 0.03039,0.0315 0.06071,0.0627 0.09095,0.0937 l -0.07308,-0.078 c 0.03014,0.0316 0.0602,0.063 0.09017,0.0941 l -0.07305,-0.0798 c 0.0299,0.0318 0.05972,0.0632 0.08943,0.0944 l -0.07298,-0.0817 c 0.02968,0.0319 0.05926,0.0635 0.08873,0.0947 l -0.07285,-0.0835 c 0.02948,0.032 0.05885,0.0637 0.08809,0.095 l -0.07266,-0.0854 c 0.0293,0.0321 0.05847,0.0639 0.08751,0.0953 l -0.07242,-0.0872 c 0.02914,0.0323 0.05814,0.0641 0.087,0.0955 l -0.07211,-0.0891 c 0.02901,0.0323 0.05787,0.0642 0.08658,0.0956 l -0.07173,-0.0909 c 0.02892,0.0324 0.05768,0.0644 0.08627,0.0957 l -0.07129,-0.0928 c 0.02887,0.0325 0.05757,0.0645 0.08608,0.0958 l -0.07079,-0.0946 c 0.02888,0.0326 0.05757,0.0645 0.08606,0.0958 l -0.0702,-0.0964 c 0.02896,0.0326 0.05771,0.0645 0.08622,0.0956 l -0.06955,-0.0982 c 0.02912,0.0326 0.05801,0.0645 0.08664,0.0954 l -0.06881,-0.0999 c 0.0294,0.0326 0.05853,0.0643 0.08739,0.095 l -0.06799,-0.10164 c 0.02982,0.0326 0.05934,0.0641 0.08855,0.0944 l -0.06709,-0.10329 c 0.03044,0.0325 0.06055,0.0637 0.09031,0.0936 l -0.0661,-0.10487 c 0.02569,0.0265 0.05112,0.0519 0.07628,0.0763 0.0055,0.005 0.01108,0.0107 0.01663,0.016 l -0.06502,-0.10636 c 0.03204,0.0313 0.0644,0.0614 0.09703,0.0902 l -0.06382,-0.10775 c 0.03365,0.0306 0.06762,0.0598 0.101837,0.088 l -0.06252,-0.109 c 0.03533,0.0298 0.07095,0.0584 0.106809,0.0858 l -0.06112,-0.11012 c 0.03703,0.0292 0.07433,0.0571 0.111822,0.0839 l -0.05961,-0.1111 c 0.0387,0.0285 0.07763,0.0559 0.116691,0.0823 l -0.058,-0.11193 c 0.04026,0.0281 0.08069,0.055 0.121167,0.0811 l -0.02844,-0.0564 c 0.453497,0.8509 0.949759,1.66656 1.484463,2.44374 0.800214,1.18564 1.692059,2.28667 2.656307,3.29262 1.021162,1.06723 2.118611,2.02132 3.261309,2.86108 1.219744,0.89846 2.491445,1.66628 3.779593,2.31377 1.452538,0.73394 2.936305,1.31976 4.41465,1.77848 1.576227,0.49088 3.163491,0.8429 4.735275,1.07827 1.694912,0.25581 3.392127,0.37931 5.073452,0.3876 l -0.02207,-4.3e-4 c 0.433805,-0.012 0.818961,-0.0397 1.003882,-0.0555 0.795101,-0.0133 1.620162,-0.004 2.539675,0.0164 1.239299,0.0351 2.895145,0.0987 4.374963,0.12124 0.48531,0.006 0.98741,0.009 1.50066,0.006 0.68607,-0.004 1.40918,-0.0188 2.15634,-0.0521 1.06025,-0.0487 2.21565,-0.13633 3.42275,-0.29923 1.05009,-0.14249 2.17757,-0.3468 3.34373,-0.64982 0.60485,-0.15927 1.22365,-0.34595 1.84966,-0.5647 l -0.01,0.003 c 0.28225,-0.0999 0.56176,-0.20358 0.83898,-0.31081 1.35266,-0.51651 2.61618,-1.1183 3.78879,-1.7531 1.24343,-0.67356 2.41197,-1.39897 3.50923,-2.14175 1.27714,-0.86507 2.48161,-1.76999 3.61831,-2.6838 1.29605,-1.04254 2.52417,-2.11316 3.68886,-3.18468 1.44306,-1.32863 2.81111,-2.67964 4.10804,-4.02034 1.86186,-1.92652 3.61922,-3.87719 5.27214,-5.77994 0.90621,-1.04076 1.7896,-2.07756 2.62205,-3.06116 0.59141,-0.69636 1.0661,-1.25853 1.60274,-1.8865 0.41705,-0.48582 0.75702,-0.87828 1.09241,-1.24958 l -0.0122,0.0136 c 0.12298,-0.13446 0.21233,-0.2298 0.27839,-0.29815 -0.0695,0.0615 -0.16842,0.14436 -0.29357,0.2394 -0.0221,0.0168 -0.0449,0.0326 -0.0668,0.0495 -0.11154,0.086 -0.63224,0.4698 -1.39988,0.79883 a 7.9584592,7.9584592 90 0 0 -6.2707,-14.629642 z"
       id="path-1-18"
       inkscape:path-effect="#path-effect13;#path-effect14"
       inkscape:original-d="m 138.81356,105.25424 c -1.7277,0.72427 -15.53167,20.93993 -28.22034,25.16949 -5.0818,1.69393 -11.421649,0.76271 -16.779661,0.76271 -7.429074,0 -14.797139,-2.89936 -18.305084,-9.91525 -4.858486,-9.71697 -27.457628,-9.85813 -27.457628,-7.62712 0,0.80397 1.569044,0.40316 2.288136,0.76271"
       style="fill:#ffffff;fill-opacity:1;fill-rule:nonzero;stroke:none;stroke-width:0;stroke-linecap:round;stroke-linejoin:round;stroke-dashoffset:2.26772" />
  </g>
</svg>
