<?xml version="1.0" encoding="UTF-8" standalone="no"?>
<!-- Created with Inkscape (http://www.inkscape.org/) -->

<svg
   width="512"
   height="512"
   viewBox="0 0 512 512"
   version="1.1"
   id="svg1"
   inkscape:version="1.4 (e7c3feb1, 2024-10-09)"
   sodipodi:docname="fullscreen.svg"
   xmlns:inkscape="http://www.inkscape.org/namespaces/inkscape"
   xmlns:sodipodi="http://sodipodi.sourceforge.net/DTD/sodipodi-0.dtd"
   xmlns="http://www.w3.org/2000/svg"
   xmlns:svg="http://www.w3.org/2000/svg">
  <sodipodi:namedview
     id="namedview1"
     pagecolor="#ffffff"
     bordercolor="#000000"
     borderopacity="0.25"
     inkscape:showpageshadow="2"
     inkscape:pageopacity="0.0"
     inkscape:pagecheckerboard="0"
     inkscape:deskcolor="#d1d1d1"
     inkscape:document-units="px"
     inkscape:zoom="0.45857415"
     inkscape:cx="121.02732"
     inkscape:cy="256.22901"
     inkscape:window-width="1344"
     inkscape:window-height="684"
     inkscape:window-x="0"
     inkscape:window-y="25"
     inkscape:window-maximized="0"
     inkscape:current-layer="layer1" />
  <defs
     id="defs1" />
  <g
     inkscape:label="Слой 1"
     inkscape:groupmode="layer"
     id="layer1">
    <path
       style="fill:#ffffff;stroke-width:44.185;stroke-dasharray:none;stroke:#ffffff;stroke-opacity:1;stroke-linecap:round"
       id="path3"
       d="m 158.79935,49.490213 c -9.33228,-0.42427 -18.67714,-0.29467 -27.98989,0.50366 -3.31035,0.28378 -6.6055,0.7233 -9.90825,1.08495 -7.65191,1.15069 -13.52285,1.70661 -20.930829,4.14474 -9.653014,3.17702 -19.233551,8.50011 -25.985061,16.24684 -2.214729,2.54119 -3.835293,5.54448 -5.752939,8.31672 -1.351419,3.17055 -2.965604,6.24155 -4.054255,9.51165 -1.986228,5.96625 -3.22335,13.464197 -3.62857,19.745487 -0.288394,4.47037 -0.168051,11.70857 0.931372,16.22891 0.539099,2.21654 1.613844,4.26734 2.420766,6.40101 -0.702887,1.47817 14.228862,8.5784 14.931749,7.10023 v 0 c -0.3025,-1.81763 -0.573629,-3.64076 -0.907502,-5.45289 -0.459009,-2.49132 -1.170541,-4.94067 -1.470884,-7.45606 -1.118512,-9.36759 -0.274409,-19.17282 2.718102,-28.142077 1.052837,-3.15559 2.651947,-6.10182 3.97792,-9.15273 5.070988,-7.21734 5.56973,-9.11456 12.68117,-14.51928 11.534421,-8.7662 24.977611,-11.63456 39.079921,-12.98041 3.43106,-0.23321 6.85747,-0.5497 10.29318,-0.69962 10.24111,-0.44691 20.60287,-0.0474 30.66059,2.04075 1.2792,-1.68951 -15.78739,-14.61138 -17.06659,-12.92188 z" />
    <path
       style="fill:#ffffff;stroke-width:44.185;stroke-dasharray:none;stroke:#ffffff;stroke-opacity:1;stroke-linecap:round"
       id="path4"
       d="m 355.49305,59.962243 c 5.29559,-1.28568 10.82118,-1.09341 16.22272,-0.89278 10.44317,0.28647 20.69374,2.2351 30.78721,4.79672 1.34645,0.40238 2.71363,0.74102 4.03936,1.20714 2.20655,0.77582 6.07812,2.492 8.17104,3.5218 1.25762,0.61881 4.92678,2.67343 3.71828,1.96347 -17.35452,-10.19524 -17.88457,-10.67464 -11.12378,-6.03058 5.23469,4.01688 8.70405,9.48192 11.42786,15.3905 2.47878,5.57965 3.6002,11.53356 4.31049,17.55343 0.38094,5.046617 -0.028,10.111337 -0.96231,15.075207 -0.55546,2.5817 -1.28784,5.12009 -1.97778,7.66786 -0.63572,2.32555 -0.84508,1.70098 1.76121,3.20908 -0.76834,1.46275 14.00774,9.22417 14.77608,7.76141 v 0 c 2.77981,1.37858 2.17203,1.5318 2.47503,-0.78456 0.40004,-2.69383 1.19046,-5.2986 1.59151,-7.98954 0.6947,-5.22498 0.94383,-10.52146 0.75351,-15.78878 -0.53165,-6.23171 -1.79155,-12.357847 -4.11786,-18.186957 -2.67148,-6.1611 -5.95844,-12.0292 -11.15284,-16.43397 -8.93718,-6.8016 -3.23175,-2.65544 -23.38587,-13.9583 -5.00737,-2.80824 -10.54589,-4.80579 -16.08832,-6.21474 -10.16882,-2.21999 -20.46707,-3.87049 -30.87755,-4.37548 -5.9384,-0.18351 -11.89692,-0.43509 -17.82764,-0.19065 -1.25722,1.7304 16.22244,14.43012 17.47965,12.69972 z" />
    <path
       style="fill:#ffffff;stroke-width:44.185;stroke-dasharray:none;stroke:#ffffff;stroke-opacity:1;stroke-linecap:round"
       id="path5"
       d="m 58.742425,360.76863 c -0.277575,6.6255 -0.70268,13.25401 -0.479177,19.8884 0.07676,2.27855 0.250536,4.5528 0.375804,6.82919 0.487561,9.13128 1.712999,18.41848 5.042183,27.00508 2.153061,5.55315 3.151077,6.55114 6.328734,11.43917 3.751308,4.6339 8.259675,8.60599 13.47613,11.52526 7.135167,3.99303 14.242882,8.05345 21.581061,11.65983 1.68823,0.82968 7.89949,2.0471 9.82453,2.45841 5.86914,1.18246 11.88285,1.14945 17.83632,0.87268 3.27345,-0.18678 1.65839,0.22589 -2.95175,-4.03677 0.48418,-0.69702 -6.55676,-5.58799 -7.04094,-4.89097 v 0 c -6.43565,-3.77049 -3.75836,-3.86108 -7.27004,-3.42514 -5.43992,0.54919 -10.91741,0.64644 -16.306276,-0.47419 -1.485202,-0.33027 -2.988046,-0.58935 -4.455607,-0.99081 -1.642556,-0.44932 -6.1611,-2.66349 -4.865062,-1.55888 3.504427,2.98683 7.845851,4.82535 11.683345,7.3701 1.57157,1.04216 -3.313519,-1.81156 -4.881271,-2.85945 -4.924589,-3.29162 -5.076068,-3.86795 -9.260427,-8.07866 -3.442121,-4.74907 -4.419892,-5.54485 -6.754526,-11.04258 -3.555534,-8.37277 -4.725906,-17.52126 -5.247458,-26.51975 -0.134623,-8.3582 -0.151537,-16.92347 2.442499,-24.97092 1.009749,-1.88862 -18.068322,-12.08864 -19.078072,-10.2 z" />
    <path
       style="fill:#ffffff;stroke-width:44.185;stroke-dasharray:none;stroke:#ffffff;stroke-opacity:1;stroke-linecap:round"
       id="path6"
       d="m 418.02874,361.00582 c 0.85513,5.97921 2.36187,11.83245 3.12103,17.83455 0.29076,2.29874 0.47994,4.60919 0.7199,6.91379 0.497,9.43907 0.43343,19.18353 -2.87486,28.1802 -1.85271,5.03834 -2.75455,5.76841 -5.73841,10.0585 -1.29208,1.28778 -2.47269,2.69804 -3.87622,3.86334 -8.07446,6.70388 -18.70804,9.09931 -28.6897,11.26464 -8.49564,1.9175 -17.20985,1.82958 -25.82698,2.57661 -4.12367,0.32063 -8.26186,0.53612 -12.38172,0.90861 -0.80188,0.0725 -1.90107,-0.35534 -2.39953,0.27697 -0.43522,0.55208 0.38901,1.35111 0.5835,2.02667 -0.84753,1.2053 11.32782,9.76667 12.17535,8.56137 v 0 c 1.42082,0.48437 2.78422,1.19198 4.26244,1.45311 0.7339,0.12965 1.47456,-0.21872 2.21434,-0.30896 4.04041,-0.49289 8.09837,-0.80302 12.16236,-1.01803 8.32358,-0.42791 16.52041,-2.17725 24.6873,-3.74745 10.24867,-2.39497 21.4259,-4.88926 29.63822,-11.95863 1.46322,-1.25957 2.65284,-2.80582 3.97926,-4.20874 1.07682,-1.66865 2.3138,-3.24423 3.23047,-5.00596 5.513,-10.59536 5.4993,-22.97906 5.4807,-34.59616 -0.0785,-2.25476 -0.11748,-4.51124 -0.23556,-6.76427 -0.29004,-5.53415 -1.03766,-11.04091 -1.1443,-16.58454 0.9628,-1.88957 -18.12481,-11.61519 -19.08759,-9.72562 z" />
  </g>
</svg>
