<?xml version="1.0" encoding="UTF-8" standalone="no"?>
<!-- Created with Inkscape (http://www.inkscape.org/) -->

<svg
   width="512"
   height="512"
   viewBox="0 0 512 512"
   version="1.1"
   id="svg1"
   xmlns:xlink="http://www.w3.org/1999/xlink"
   xmlns="http://www.w3.org/2000/svg"
   xmlns:svg="http://www.w3.org/2000/svg">
  <defs
     id="defs1">
    <linearGradient
       id="swatch4">
      <stop
         style="stop-color:#acc656;stop-opacity:1;"
         offset="0"
         id="stop4" />
    </linearGradient>
    <clipPath
       clipPathUnits="userSpaceOnUse"
       id="clipPath11">
      <use
         x="0"
         y="0"
         xlink:href="#g10"
         id="use11" />
    </clipPath>
    <clipPath
       clipPathUnits="userSpaceOnUse"
       id="clipPath13">
      <use
         x="0"
         y="0"
         xlink:href="#g12"
         id="use13" />
    </clipPath>
    <clipPath
       clipPathUnits="userSpaceOnUse"
       id="clipPath15">
      <use
         x="0"
         y="0"
         xlink:href="#g14"
         id="use15" />
    </clipPath>
  </defs>
  <g
     id="layer4">
    <path
       style="fill:#acc656;fill-opacity:1;fill-rule:evenodd;stroke:none;stroke-width:5.71672;stroke-linecap:round;stroke-miterlimit:0;stroke-dashoffset:2.26772;paint-order:markers fill stroke"
       d="m 161.88528,301.25837 c 3.12269,-30.53565 -20.61028,-22.38422 -19.31425,-53.02136 0.68653,-16.22945 49.9026,-156.487809 49.43625,-180.909669 -0.8084,-42.333938 121.30866,91.359659 216.03014,169.281489 40.78579,33.55209 -246.15214,64.64954 -246.15214,64.64954 z"
       id="path4" />
    <g
       id="g15"
       clip-path="url(#clipPath15)">
      <g
         id="g14">
        <path
           style="fill:#acc656;fill-opacity:1;fill-rule:evenodd;stroke:none;stroke-width:5.71672;stroke-linecap:round;stroke-miterlimit:0;stroke-dashoffset:2.26772;paint-order:markers fill stroke"
           d="m 161.88528,301.25837 c 3.12269,-30.53565 -20.61028,-22.38422 -19.31425,-53.02136 0.68653,-16.22945 49.9026,-156.487809 49.43625,-180.909669 -0.8084,-42.333938 121.30866,91.359659 216.03014,169.281489 40.78579,33.55209 -246.15214,64.64954 -246.15214,64.64954 z"
           id="path2" />
      </g>
      <path
         style="fill:#3ca4a2;fill-opacity:1;fill-rule:evenodd;stroke-width:4.685;stroke-linecap:round;stroke-miterlimit:0;stroke-dashoffset:2.26772;paint-order:markers fill stroke"
         d="m 201.01535,91.456606 c 9.76387,51.100714 28.31099,118.736454 62.0714,160.755954 61.623,76.69831 112.77516,-48.1762 36.42074,-29.5855 -106.16009,25.84775 -225.397711,64.3799 -225.397711,64.3799 L 162.8133,86.203725 c 15.64857,-35.424562 30.93689,-32.770448 38.20205,5.252881 z"
         id="path15"
         transform="matrix(1.0644011,0,0,1,-2.0051805,0)" />
    </g>
    <path
       style="fill:#f1cebd;fill-opacity:1;stroke:none;stroke-width:5.8135;stroke-linecap:round;stroke-miterlimit:0;stroke-dashoffset:2.26772;paint-order:markers fill stroke"
       d="m 356.4169,293.01807 c 16.79642,3.41498 105.9267,14.27083 93.6318,36.20181 -10.71898,19.11997 -50.49515,18.60934 -65.37046,32.25006 -8.1398,7.46421 -11.38709,32.25801 -20.6608,43.56363 -30.7268,37.4592 -113.2713,61.67395 -154.36019,32.82085 -17.33154,-12.17042 -30.32437,-37.67373 -46.26641,-47.83824 -14.83112,-9.45619 -82.50891,23.1201 -78.51589,-1.9413 3.96156,-24.86403 56.94792,-48.70376 64.75155,-52.10951 24.34204,-10.6236 21.87332,-39.54685 44.60416,-60.39108 56.91271,-52.18911 162.18624,17.44378 162.18624,17.44378 z"
       id="path3" />
    <path
       style="fill:#f05064;fill-opacity:1;stroke:none;stroke-width:6.00353;stroke-linecap:round;stroke-miterlimit:0;stroke-dashoffset:2.26772;paint-order:markers fill stroke"
       d="m 338.44945,299.03798 c -2.64829,52.90903 -122.12406,74.83745 -158.7438,38.21771 -8.81714,-8.81714 -19.20493,16.28118 -30.35783,21.85763 -43.23396,21.61697 -130.96778,-0.71206 -115.359727,-63.14428 7.861023,-31.44409 27.815477,-56.32138 61.929947,-63.14427 13.02962,-2.60593 32.94018,-2.35177 44.92959,3.64294 1.22246,0.61122 15.76729,8.53773 15.78607,8.50019 44.39747,-88.79497 148.86963,-118.77012 199.14733,-18.2147 0.35242,0.70484 9.60574,-22.70947 29.14351,-25.50058 29.88147,-4.26878 81.68701,-1.78859 89.85916,29.14352 36.51324,138.20495 -136.33425,68.64184 -136.33425,68.64184 z"
       id="path10" />
    <g
       id="g11"
       clip-path="url(#clipPath11)">
      <g
         id="g10">
        <path
           style="fill:#f1cebd;fill-opacity:1;stroke:none;stroke-width:5.8135;stroke-linecap:round;stroke-miterlimit:0;stroke-dashoffset:2.26772;paint-order:markers fill stroke"
           d="m 356.4169,293.01807 c 16.79642,3.41498 105.9267,14.27083 93.6318,36.20181 -10.71898,19.11997 -50.49515,18.60934 -65.37046,32.25006 -8.1398,7.46421 -11.38709,32.25801 -20.6608,43.56363 -30.7268,37.4592 -113.2713,61.67395 -154.36019,32.82085 -17.33154,-12.17042 -30.32437,-37.67373 -46.26641,-47.83824 -14.83112,-9.45619 -82.50891,23.1201 -78.51589,-1.9413 3.96156,-24.86403 56.94792,-48.70376 64.75155,-52.10951 24.34204,-10.6236 21.87332,-39.54685 44.60416,-60.39108 56.91271,-52.18911 162.18624,17.44378 162.18624,17.44378 z"
           id="path11" />
      </g>
      <path
         style="fill:#968796;fill-opacity:1;stroke:none;stroke-width:6.00353;stroke-linecap:round;stroke-miterlimit:0;stroke-dashoffset:2.26772;paint-order:markers fill stroke"
         d="m 341.36125,310.6499 c -2.64829,52.90903 -122.12406,74.83745 -158.7438,38.21771 -8.81714,-8.81714 -19.20493,16.28118 -30.35783,21.85763 -43.23396,21.61697 -130.967779,-0.71206 -115.359726,-63.14428 7.861023,-31.44409 27.815477,-56.32138 61.929947,-63.14427 13.029619,-2.60593 32.940179,-2.35177 44.929589,3.64294 1.22246,0.61122 15.76729,8.53773 15.78607,8.50019 44.39747,-88.79497 148.86963,-118.77012 199.14733,-18.2147 0.35242,0.70484 9.60574,-22.70947 29.14351,-25.50058 29.88147,-4.26878 81.68701,-1.78859 89.85916,29.14352 36.51324,138.20495 -136.33425,68.64184 -136.33425,68.64184 z"
         id="path1" />
    </g>
    <g
       id="g13"
       clip-path="url(#clipPath13)">
      <g
         id="g12">
        <path
           style="fill:#60150c;fill-opacity:1;stroke:none;stroke-width:6.00353;stroke-linecap:round;stroke-miterlimit:0;stroke-dashoffset:2.26772;paint-order:markers fill stroke"
           d="m 338.44945,299.03798 c -2.64829,52.90903 -122.12406,74.83745 -158.7438,38.21771 -8.81714,-8.81714 -19.20493,16.28118 -30.35783,21.85763 -43.23396,21.61697 -130.96778,-0.71206 -115.359727,-63.14428 7.861023,-31.44409 27.815477,-56.32138 61.929947,-63.14427 13.02962,-2.60593 32.94018,-2.35177 44.92959,3.64294 1.22246,0.61122 15.76729,8.53773 15.78607,8.50019 44.39747,-88.79497 148.86963,-118.77012 199.14733,-18.2147 0.35242,0.70484 9.60574,-22.70947 29.14351,-25.50058 29.88147,-4.26878 81.68701,-1.78859 89.85916,29.14352 36.51324,138.20495 -136.33425,68.64184 -136.33425,68.64184 z"
           id="path5" />
      </g>
      <path
         style="fill:#f05064;fill-opacity:1;stroke:none;stroke-width:6.00353;stroke-linecap:round;stroke-miterlimit:0;stroke-dashoffset:2.26772;paint-order:markers fill stroke"
         d="m 338.44945,264.35634 c -2.64829,52.90903 -122.12406,74.83745 -158.7438,38.21771 -8.81714,-8.81714 -19.20493,16.28118 -30.35783,21.85763 -43.23396,21.61697 -130.96778,-0.71206 -115.359727,-63.14428 7.861023,-31.44409 27.815477,-56.32138 61.929947,-63.14427 13.02962,-2.60593 32.94018,-2.35177 44.92959,3.64294 1.22246,0.61122 15.76729,8.53773 15.78607,8.50019 44.39747,-88.79497 148.86963,-118.770123 199.14733,-18.2147 0.35242,0.70484 9.60574,-22.70947 29.14351,-25.50058 29.88147,-4.26878 81.68701,-1.78859 89.85916,29.14352 36.51324,138.20495 -136.33425,68.64184 -136.33425,68.64184 z"
         id="path12" />
    </g>
  </g>
</svg>
