<?xml version="1.0" encoding="UTF-8" standalone="no"?>
<!-- Created with Inkscape (http://www.inkscape.org/) -->

<svg
   width="120"
   height="120"
   viewBox="0 0 120 120"
   version="1.1"
   id="svg1"
   inkscape:version="1.3.2 (091e20e, 2023-11-25)"
   sodipodi:docname="new.svg"
   xmlns:inkscape="http://www.inkscape.org/namespaces/inkscape"
   xmlns:sodipodi="http://sodipodi.sourceforge.net/DTD/sodipodi-0.dtd"
   xmlns="http://www.w3.org/2000/svg"
   xmlns:svg="http://www.w3.org/2000/svg">
  <sodipodi:namedview
     id="namedview1"
     pagecolor="#505050"
     bordercolor="#eeeeee"
     borderopacity="1"
     inkscape:showpageshadow="0"
     inkscape:pageopacity="0"
     inkscape:pagecheckerboard="0"
     inkscape:deskcolor="#505050"
     inkscape:document-units="px"
     inkscape:zoom="3.0728613"
     inkscape:cx="23.593646"
     inkscape:cy="38.075263"
     inkscape:window-width="1280"
     inkscape:window-height="675"
     inkscape:window-x="0"
     inkscape:window-y="25"
     inkscape:window-maximized="1"
     inkscape:current-layer="layer1" />
  <defs
     id="defs1">
    <clipPath
       clipPathUnits="userSpaceOnUse"
       id="clipPath4">
      <g
         inkscape:label="Clip"
         id="use4" />
    </clipPath>
  </defs>
  <g
     inkscape:label="Layer 1"
     inkscape:groupmode="layer"
     id="layer1">
    <path
       id="rect1-2"
       style="fill:#1e0528;fill-opacity:1;stroke:#ffffff;stroke-width:3;stroke-linecap:round;stroke-linejoin:round;stroke-dasharray:none;stroke-dashoffset:2.26772;stroke-opacity:1"
       d="M 8.3236795,43.728813 H 104.61718 c 2.66846,0 4.81672,2.647144 4.81672,5.935301 v 20.671772 c 0,3.288157 -2.14826,5.935301 -4.81672,5.935301 H 8.3236795 c -7.220634,0 4.0759005,-4.473435 4.0759005,-13.631813 v -3.713356 c 0,-8.897479 -10.767212,-15.197205 -4.0759005,-15.197205 z"
       sodipodi:nodetypes="sssssssss" />
    <path
       sodipodi:type="star"
       style="fill:#ffffff;fill-opacity:1;stroke:none;stroke-width:2.37808;stroke-linecap:round;stroke-linejoin:round;stroke-dasharray:none;stroke-dashoffset:2.26772;stroke-opacity:1"
       id="path4-2-98"
       inkscape:flatsided="false"
       sodipodi:sides="5"
       sodipodi:cx="57.350048"
       sodipodi:cy="21.774616"
       sodipodi:r1="12.589026"
       sodipodi:r2="6.2945113"
       sodipodi:arg1="1.5220545"
       sodipodi:arg2="2.150373"
       inkscape:rounded="0.22"
       inkscape:randomized="0"
       d="m 57.963417,34.348691 c -1.837002,0.08961 -2.521845,-6.300224 -4.060683,-7.307491 -1.538837,-1.007267 -7.668911,0.92177 -8.321801,-0.797632 -0.652888,-1.719402 5.212577,-4.345294 5.695018,-6.120078 0.482441,-1.774784 -3.24648,-7.008726 -1.812985,-8.160985 1.433495,-1.152259 5.743395,3.614685 7.580397,3.525076 1.837003,-0.08961 5.662477,-5.253402 7.201315,-4.246135 1.538837,1.007267 -1.662963,6.579293 -1.010075,8.298695 0.652889,1.719402 6.746084,3.761945 6.263643,5.536729 -0.482441,1.774784 -6.771163,0.451541 -8.204658,1.6038 -1.433495,1.152259 -1.493168,7.578411 -3.330171,7.668021 z"
       inkscape:transform-center-x="-0.78734483"
       inkscape:transform-center-y="0.15086399"
       transform="matrix(0.41804312,0.71414456,-0.71414456,0.41804312,87.446841,9.7901834)" />
    <text
       xml:space="preserve"
       style="font-size:21.0128px;opacity:1;fill:#ffffff;fill-opacity:1;stroke:none;stroke-width:9.45575;stroke-linecap:round;stroke-linejoin:round;stroke-dasharray:none;stroke-dashoffset:2.26772;stroke-opacity:1"
       x="53.525524"
       y="67.638687"
       id="text4"><tspan
         sodipodi:role="line"
         id="tspan4"
         x="53.525524"
         y="67.638687"
         style="font-style:normal;font-variant:normal;font-weight:bold;font-stretch:normal;font-family:'Comic Sans MS';-inkscape-font-specification:'Comic Sans MS Bold';text-align:center;text-anchor:middle;stroke-width:9.45575">NEW!</tspan></text>
  </g>
</svg>
