<?xml version="1.0" encoding="UTF-8" standalone="no"?>
<!-- Created with Inkscape (http://www.inkscape.org/) -->

<svg
   width="180"
   height="180"
   viewBox="0 0 180 180"
   version="1.1"
   id="svg1"
   inkscape:version="1.3.2 (091e20e, 2023-11-25)"
   sodipodi:docname="arts.svg"
   xmlns:inkscape="http://www.inkscape.org/namespaces/inkscape"
   xmlns:sodipodi="http://sodipodi.sourceforge.net/DTD/sodipodi-0.dtd"
   xmlns="http://www.w3.org/2000/svg"
   xmlns:svg="http://www.w3.org/2000/svg">
  <sodipodi:namedview
     id="namedview1"
     pagecolor="#505050"
     bordercolor="#eeeeee"
     borderopacity="1"
     inkscape:showpageshadow="0"
     inkscape:pageopacity="0"
     inkscape:pagecheckerboard="0"
     inkscape:deskcolor="#505050"
     inkscape:document-units="px"
     inkscape:zoom="1.2618168"
     inkscape:cx="51.90928"
     inkscape:cy="131.9526"
     inkscape:window-width="1280"
     inkscape:window-height="772"
     inkscape:window-x="0"
     inkscape:window-y="28"
     inkscape:window-maximized="0"
     inkscape:current-layer="layer1" />
  <defs
     id="defs1">
    <inkscape:path-effect
       effect="powerstroke"
       id="path-effect11"
       is_visible="true"
       lpeversion="1.3"
       scale_width="1"
       interpolator_type="CentripetalCatmullRom"
       interpolator_beta="0.75"
       start_linecap_type="round"
       end_linecap_type="round"
       offset_points="15.090542,4.4536188 | 114.49952,5.3494593"
       linejoin_type="spiro"
       miter_limit="4"
       not_jump="true"
       sort_points="true"
       message="&lt;b&gt;Ctrl + click&lt;/b&gt; on existing node and move it" />
    <inkscape:path-effect
       effect="simplify"
       id="path-effect10"
       is_visible="true"
       lpeversion="1.3"
       threshold="0.012"
       steps="1"
       smooth_angles="0"
       helper_size="0"
       simplify_individual_paths="false"
       simplify_just_coalesce="false"
       step="1" />
    <inkscape:path-effect
       effect="powerstroke"
       id="path-effect9"
       is_visible="true"
       lpeversion="1.3"
       scale_width="1"
       interpolator_type="CentripetalCatmullRom"
       interpolator_beta="0.75"
       start_linecap_type="round"
       end_linecap_type="round"
       offset_points="8.258004,6.54941"
       linejoin_type="spiro"
       miter_limit="4"
       not_jump="true"
       sort_points="true"
       message="&lt;b&gt;Ctrl + click&lt;/b&gt; on existing node and move it" />
    <inkscape:path-effect
       effect="simplify"
       id="path-effect8"
       is_visible="true"
       lpeversion="1.3"
       threshold="0.012"
       steps="1"
       smooth_angles="0"
       helper_size="0"
       simplify_individual_paths="false"
       simplify_just_coalesce="false"
       step="1" />
  </defs>
  <g
     inkscape:label="Layer 1"
     inkscape:groupmode="layer"
     id="layer1"
     transform="matrix(1.3481691,0,0,1.3481691,-38.169602,-31.330008)">
    <g
       id="g11">
      <ellipse
         style="fill:#fff096;fill-opacity:1;stroke-width:0;stroke-linecap:round;stroke-linejoin:round;stroke-dashoffset:2.26772"
         id="path1"
         cx="85.392494"
         cy="67.852554"
         rx="28.875078"
         ry="29.579344" />
      <path
         style="fill:#acc656;fill-opacity:1;stroke-width:0;stroke-linecap:round;stroke-linejoin:round;stroke-dashoffset:2.26772"
         d="M 64.837849,128.03195 102.09146,61.343933 140.84057,128.45936 Z"
         id="path2"
         sodipodi:nodetypes="cccc" />
      <g
         id="g3"
         transform="translate(11.384016,-2.0602058)">
        <circle
           style="fill:#e1cde1;fill-opacity:1;stroke-width:0;stroke-linecap:round;stroke-linejoin:round;stroke-dashoffset:2.26772"
           id="path3"
           cx="45.265816"
           cy="98.71965"
           r="16.839502" />
        <circle
           style="fill:#e1cde1;fill-opacity:1;stroke-width:0;stroke-linecap:round;stroke-linejoin:round;stroke-dashoffset:2.26772"
           id="path3-5"
           cx="65.395164"
           cy="90.643105"
           r="16.839502" />
        <circle
           style="fill:#e1cde1;fill-opacity:1;stroke-width:0;stroke-linecap:round;stroke-linejoin:round;stroke-dashoffset:2.26772"
           id="path3-6"
           cx="83.198769"
           cy="97.238297"
           r="16.839502" />
      </g>
      <path
         d="m 135.31556,116.4863 c -1.07819,1.40366 -2.37686,3.04552 -3.80086,4.69641 -1.06861,1.2388 -2.27558,2.56213 -3.5999,3.86432 -1.0777,1.05969 -2.26446,2.13615 -3.55431,3.16062 -1.08118,0.8589 -2.25331,1.69556 -3.5115,2.46126 -1.05544,0.64259 -2.18493,1.24315 -3.38192,1.76963 -0.7357,0.32397 -1.50877,0.62518 -2.31728,0.89442 -0.006,0.002 -0.0122,0.004 -0.0184,0.006 -0.41846,0.1416 -0.80735,0.29253 -1.14966,0.42891 -0.4374,0.17455 -0.91553,0.37416 -1.34944,0.54733 -0.54574,0.21829 -1.02683,0.39872 -1.48168,0.53838 -0.32701,0.10024 -0.60765,0.16907 -0.85351,0.21019 -0.20192,0.0336 -0.34749,0.0424 -0.44591,0.0403 -0.0754,-0.002 -0.11049,-0.0116 -0.0945,-0.008 0.0138,0.003 0.0443,0.0112 0.087,0.0329 l -0.01,-0.005 c 0.0396,0.02 0.0454,0.0253 0.0132,0.001 -0.006,-0.005 -0.0131,-0.009 -0.0196,-0.0136 -0.0625,-0.0444 -0.1187,-0.0873 -0.16899,-0.12833 -0.003,-0.003 -0.006,-0.005 -0.009,-0.008 -0.0303,-0.0255 -0.0583,-0.0504 -0.0839,-0.0745 -0.0254,-0.024 -0.0477,-0.0468 -0.067,-0.068 -0.0174,-0.0193 -0.0318,-0.0367 -0.0431,-0.0519 l 0.0288,0.031 c -0.0209,-0.0257 -0.0422,-0.0521 -0.0639,-0.0791 l 0.0577,0.0638 c -0.0201,-0.026 -0.0405,-0.0525 -0.0612,-0.0796 l 0.0575,0.0662 c -0.0192,-0.0262 -0.0388,-0.0529 -0.0586,-0.0801 l 0.0573,0.0686 c -0.0184,-0.0264 -0.0371,-0.0532 -0.056,-0.0805 l 0.0569,0.0711 c -0.0176,-0.0265 -0.0354,-0.0535 -0.0534,-0.0809 l 0.0565,0.0735 c -0.0168,-0.0267 -0.0337,-0.0538 -0.0509,-0.0812 l 0.0559,0.0759 c -0.016,-0.0268 -0.0321,-0.054 -0.0484,-0.0815 l 0.0551,0.0783 c -0.0152,-0.0269 -0.0305,-0.0542 -0.0459,-0.0818 l 0.0543,0.0807 c -0.0144,-0.0271 -0.0289,-0.0544 -0.0435,-0.0821 l 0.0533,0.0831 c -0.0136,-0.0272 -0.0273,-0.0546 -0.0411,-0.0823 l 0.0522,0.0854 c -0.0128,-0.0272 -0.0257,-0.0547 -0.0387,-0.0825 l 0.0509,0.0876 c -0.012,-0.0273 -0.0242,-0.0549 -0.0364,-0.0827 l 0.0495,0.0898 c -0.0113,-0.0274 -0.0226,-0.055 -0.034,-0.0829 l 0.048,0.0919 c -0.0105,-0.0275 -0.0211,-0.0551 -0.0317,-0.083 l 0.0464,0.0939 c -0.01,-0.0275 -0.0196,-0.0553 -0.0295,-0.0832 l 0.0446,0.0957 c -0.009,-0.0276 -0.0181,-0.0554 -0.0272,-0.0833 l 0.0427,0.0975 c -0.008,-0.0276 -0.0166,-0.0554 -0.025,-0.0834 l 0.0407,0.0991 c -0.008,-0.0277 -0.0152,-0.0555 -0.0228,-0.0835 l 0.0386,0.10057 c -0.007,-0.0277 -0.0137,-0.0556 -0.0206,-0.0836 l 0.0364,0.1019 c -0.006,-0.0277 -0.0123,-0.0557 -0.0184,-0.0837 l 0.0341,0.10305 c -0.005,-0.0278 -0.0109,-0.0557 -0.0163,-0.0838 l 0.0318,0.10404 c -0.005,-0.0278 -0.009,-0.0558 -0.0142,-0.0838 l 0.0294,0.10486 c -0.004,-0.0278 -0.008,-0.0558 -0.0121,-0.0839 l 0.0269,0.1055 c -0.003,-0.0279 -0.007,-0.0558 -0.0101,-0.084 l 0.0244,0.10597 c -0.003,-0.0279 -0.005,-0.0559 -0.008,-0.084 l 0.0219,0.10624 c -0.002,-0.0279 -0.004,-0.0559 -0.006,-0.084 l 0.01,0.0532 c 0.008,0.0236 0.0144,0.0465 0.0203,0.0685 0.006,0.0218 0.0108,0.0423 0.0151,0.0612 0.004,0.0248 0.008,0.0469 0.0105,0.0637 0.001,0.0483 -6.1e-4,0.0544 0.0118,0.0192 0.0254,-0.0864 0.0886,-0.26152 0.24965,-0.55043 0.17548,-0.31479 0.41427,-0.66744 0.73187,-1.07427 0.34284,-0.43882 0.73714,-0.88684 1.18501,-1.35752 0.54891,-0.5774 1.1438,-1.15152 1.78521,-1.74066 0.94955,-0.87379 1.9468,-1.72956 3.00848,-2.62851 0.72754,-0.61487 1.52713,-1.28371 2.29761,-1.94564 0.54994,-0.47165 1.1309,-0.97823 1.71089,-1.51567 0.48181,-0.44689 1.024,-0.9688 1.55785,-1.56071 0.003,-0.003 0.006,-0.007 0.009,-0.0105 0.33857,-0.37585 0.78234,-0.89726 1.19593,-1.53937 0.18669,-0.28551 0.35438,-0.58147 0.50164,-0.879 l -0.0116,0.024 c 0.212,-0.42591 0.38754,-0.83201 0.52714,-1.16428 0.2453,-0.59099 0.43138,-1.07259 0.5902,-1.43186 0.0649,-0.14136 0.1201,-0.25287 0.16874,-0.34235 0.42203,-0.83687 0.71937,-1.70103 0.91267,-2.5563 0.20338,-0.90275 0.29913,-1.82816 0.28357,-2.75526 -0.0137,-0.81579 -0.11381,-1.66274 -0.32874,-2.51546 -0.18321,-0.72767 -0.45715,-1.48732 -0.85659,-2.23581 -0.3604,-0.6761 -0.83253,-1.35852 -1.43992,-1.98499 -0.5231,-0.541 -1.13786,-1.02869 -1.83362,-1.42517 -0.6933,-0.39619 -1.43266,-0.68008 -2.17922,-0.85656 -0.70792,-0.1683 -1.40046,-0.23424 -2.04451,-0.233 l 0.0182,-1e-4 c -0.61503,-0.001 -1.31158,0.037 -2.05245,0.16305 -0.57528,0.0968 -1.16835,0.24611 -1.76214,0.4607 -0.53048,0.19065 -1.02299,0.42029 -1.47011,0.66519 -0.57539,0.31585 -1.06964,0.65385 -1.43671,0.91428 -0.34848,0.24716 -0.64047,0.46461 -0.88645,0.64198 -0.28079,0.20335 -0.52932,0.37697 -0.76476,0.53083 l 0.01,-0.007 c -0.26981,0.17602 -0.54359,0.35525 -0.81889,0.53707 -2.05268,1.38096 -4.08072,2.81219 -6.07259,4.30195 -1.05538,0.78745 -2.10044,1.59127 -3.133274,2.4133 -1.019549,0.81158 -1.959753,1.66433 -2.830591,2.5141 -0.996519,0.97347 -1.927793,1.96808 -2.802287,2.9364 -1.205828,1.33771 -2.430426,2.76975 -3.524073,4.01798 -0.958049,1.09266 -1.877812,2.11866 -2.816712,3.08819 -0.771665,0.79574 -1.534283,1.53028 -2.309471,2.19971 -0.709447,0.61215 -1.41551,1.15714 -2.127569,1.62935 -0.653773,0.43332 -1.307091,0.80088 -1.958739,1.09841 -0.584843,0.26688 -1.174087,0.47983 -1.761395,0.63706 -0.200952,0.0514 -0.300898,0.0713 -0.331019,0.073 -0.0024,1.4e-4 -0.0048,4.9e-4 -0.0072,0.001 -0.0023,6e-4 -0.0047,0.001 -0.0071,0.002 -0.196303,0.0342 -0.428584,0.048 -0.691203,0.03 -0.301412,-0.0202 -0.621358,-0.0805 -0.947196,-0.18416 -0.335131,-0.10663 -0.651407,-0.25149 -0.936956,-0.426 -0.249544,-0.15311 -0.455883,-0.31768 -0.619081,-0.48098 -0.143469,-0.14418 -0.240515,-0.27533 -0.302013,-0.381 -0.05327,-0.0924 -0.07842,-0.16351 -0.08781,-0.20526 -0.0085,-0.039 -0.01057,-0.0716 -0.0084,-0.0956 0.002,-0.0314 0.0064,-0.0792 0.02386,-0.14586 0.01112,-0.0341 0.04465,-0.14824 0.155227,-0.35649 0.123703,-0.23367 0.304615,-0.5134 0.567458,-0.85592 0.287471,-0.37447 0.628794,-0.76562 1.031271,-1.19136 0.48347,-0.51159 1.011207,-1.02579 1.588466,-1.56915 0.775812,-0.73084 1.553272,-1.43176 2.408165,-2.21598 0.958401,-0.87954 1.968227,-1.82042 2.956357,-2.82674 0.781987,-0.79598 1.572195,-1.65437 2.327391,-2.58759 0.673955,-0.83285 1.335222,-1.74404 1.933393,-2.74239 0.530796,-0.88547 1.017992,-1.85088 1.412532,-2.89425 0.396126,-1.04614 0.693788,-2.1619 0.853434,-3.32522 0.113902,-0.82085 0.15646,-1.64866 0.129184,-2.46923 -0.01662,-0.5303 -0.06222,-1.05227 -0.132861,-1.56174 -0.0553,-0.40282 -0.126041,-0.79626 -0.209497,-1.17879 -0.08838,-0.40474 -0.191021,-0.79743 -0.304609,-1.17682 -0.121118,-0.40423 -0.254945,-0.79435 -0.397684,-1.16932 -0.0011,-0.003 -0.0023,-0.006 -0.0039,-0.008 -0.0016,-0.003 -0.0034,-0.005 -0.0051,-0.008 -0.0017,-0.003 -0.0031,-0.005 -0.0038,-0.008 -7.12e-4,-0.003 -6.21e-4,-0.006 -3.84e-4,-0.009 3.64e-4,-0.005 -0.06502,-0.2069 -0.237046,-0.57376 l 0.0084,0.0178 C 89.124651,100.3373 88.672477,99.718627 88.245311,99.241098 87.728554,98.664233 87.190887,98.2268 86.726935,97.900139 86.150488,97.495469 85.587883,97.190287 85.091039,96.95588 84.769103,96.804547 84.45638,96.673893 84.15292,96.559058 c -0.306407,-0.11595 -0.607838,-0.217464 -0.901213,-0.30692 -0.685387,-0.208203 -1.368172,-0.363636 -2.043223,-0.474939 -0.614833,-0.101059 -1.252528,-0.170773 -1.910916,-0.197214 -0.503708,-0.02005 -1.059303,-0.01703 -1.652071,0.03529 -0.419477,0.03727 -0.920314,0.103791 -1.467544,0.236472 -0.0033,8.09e-4 -0.0067,0.0016 -0.01,0.0025 -0.385976,0.09409 -0.908773,0.248292 -1.480198,0.517249 l 0.03099,-0.01452 c -0.571642,0.264603 -0.837964,0.45956 -0.857097,0.470518 -0.0132,0.0076 -0.02581,0.01609 -0.03868,0.0242 -0.849011,0.535379 -1.577793,1.116589 -2.179136,1.634113 -0.730658,0.630891 -1.389357,1.270906 -1.982949,1.876604 -0.716413,0.73222 -1.388777,1.46789 -2.020488,2.17908 -0.83642,0.94266 -1.642493,1.88949 -2.413418,2.80237 -1.542872,1.82847 -2.945066,3.52181 -4.423815,5.19723 -0.820835,0.92941 -1.628308,1.81151 -2.44719,2.64716 -0.653001,0.66583 -1.293596,1.28218 -1.938384,1.84871 -0.5422,0.4759 -1.062314,0.89457 -1.574386,1.25813 -0.468107,0.33186 -0.888236,0.58817 -1.274703,0.7808 -0.346694,0.17248 -0.607445,0.26277 -0.793201,0.3068 -0.101222,0.024 -0.164842,0.0298 -0.191921,0.031 -0.0098,5.4e-4 -0.01571,6.2e-4 -0.0183,7.4e-4 -0.0021,1.3e-4 -0.0028,2.8e-4 -0.0021,6e-4 6.92e-4,3.2e-4 0.0023,7.5e-4 0.0048,0.001 0.0025,6.7e-4 0.0055,0.002 0.0088,0.003 0.43996,0.0885 0.758287,0.22986 0.935265,0.32057 0.212305,0.10896 0.336161,0.20371 0.362983,0.22484 0.04301,0.0337 0.03502,0.0332 -0.04339,-0.0436 -0.123396,-0.12119 -0.255175,-0.26651 -0.528866,-0.56923 -0.118514,-0.13041 -0.30991,-0.34205 -0.522663,-0.55871 -0.0094,-0.01 -0.01868,-0.0191 -0.02817,-0.0286 -0.07623,-0.0757 -0.04163,-0.043 0.01949,0.0282 l -0.02383,-0.0273 c 0.09494,0.10877 0.166569,0.22485 0.218978,0.3453 0.04812,0.11037 0.05545,0.16996 0.05641,0.18084 -7.84e-4,-5.9e-4 -0.01067,-0.0788 -0.0017,-0.21966 0.01111,-0.1723 0.04395,-0.39488 0.110235,-0.67553 0.08071,-0.34033 0.197717,-0.71045 0.350624,-1.11277 0.190329,-0.49963 0.421092,-1.00844 0.683461,-1.52548 0.325384,-0.6403 0.687771,-1.26971 1.073029,-1.8848 0.434981,-0.69385 0.891427,-1.35687 1.357057,-1.98589 0.408527,-0.55162 0.811526,-1.06023 1.209014,-1.53004 0.291651,-0.34455 0.557632,-0.64164 0.808964,-0.90483 0.06688,-0.0703 0.128435,-0.13336 0.184186,-0.18912 a 5.3494593,5.3494593 90 0 0 -7.56545,-7.565102 c -0.113137,0.113141 -0.229243,0.231579 -0.349742,0.357012 -0.42585,0.44486 -0.83536,0.90355 -1.241196,1.38121 -0.556389,0.65596 -1.103117,1.34526 -1.644427,2.07387 -0.616848,0.83116 -1.231893,1.72083 -1.828202,2.66911 -0.526141,0.83728 -1.053643,1.74526 -1.54997,2.71811 -0.397707,0.78013 -0.793636,1.63694 -1.147497,2.5602 -0.281498,0.73527 -0.553456,1.55608 -0.767217,2.44629 -0.173235,0.7228 -0.321113,1.54353 -0.383045,2.43523 -0.05242,0.75817 -0.0465,1.62218 0.09148,2.54504 0.120405,0.80724 0.346877,1.68237 0.735681,2.56267 0.373322,0.84846 0.883491,1.66161 1.521239,2.39151 0.197835,0.22824 0.385477,0.41741 0.461252,0.49443 l -0.02817,-0.0286 c 0.04433,0.0466 0.08625,0.0925 0.223927,0.24584 0.198676,0.22113 0.556068,0.62412 0.947666,1.01227 0.262667,0.26036 0.610163,0.58566 1.033321,0.91316 0.327454,0.25296 0.767641,0.56096 1.31489,0.8411 0.464772,0.23752 1.086872,0.4968 1.844006,0.64876 0.197597,0.0399 0.396281,0.0742 0.596806,0.1028 0.197245,0.0282 0.395709,0.0508 0.595057,0.0679 0.196918,0.0169 0.394163,0.0283 0.591411,0.0342 0.261134,0.008 0.520822,0.006 0.77838,-0.004 0.783322,-0.0322 1.529627,-0.14597 2.22497,-0.31032 1.166493,-0.27603 2.21024,-0.69681 3.113067,-1.146 1.003153,-0.50001 1.903421,-1.06909 2.705571,-1.63803 0.885176,-0.62871 1.698202,-1.29106 2.448537,-1.95014 0.895439,-0.78725 1.73238,-1.59718 2.521331,-2.40236 0.990615,-1.01163 1.929331,-2.04047 2.828124,-3.05914 1.58417,-1.79585 3.120432,-3.65057 4.578546,-5.3798 0.756197,-0.89665 1.493064,-1.76268 2.237396,-2.60294 0.56265,-0.63482 1.110409,-1.23361 1.661263,-1.79808 0.462593,-0.47349 0.895317,-0.89061 1.320165,-1.25886 0.365376,-0.31587 0.651913,-0.53306 0.892951,-0.68626 l -0.03868,0.0242 c 0.169808,-0.10615 0.09059,-0.0337 -0.278528,0.1368 l 0.03099,-0.0145 c -0.271488,0.1273 -0.475296,0.1795 -0.539048,0.19434 -0.0033,7.8e-4 -0.0067,0.002 -0.01,0.002 -0.108833,0.0256 -0.14597,0.0244 -0.109607,0.02 0.04156,-0.005 0.131908,-0.0101 0.276673,-0.006 0.17781,0.006 0.378636,0.0243 0.598105,0.0586 0.237347,0.0373 0.461387,0.0877 0.667791,0.14849 0.08581,0.0252 0.16379,0.0509 0.231645,0.0756 0.06724,0.0245 0.123358,0.0475 0.169821,0.0683 0.07374,0.0327 0.08327,0.0424 0.04644,0.0147 -0.0289,-0.0218 -0.147586,-0.11038 -0.294613,-0.27641 -0.127263,-0.14404 -0.312449,-0.3856 -0.47547,-0.73683 l 0.0084,0.0178 c -0.006,-0.013 -0.0117,-0.0253 -0.01703,-0.037 0.04512,0.11706 0.086,0.23264 0.122591,0.34659 0.04307,0.13384 0.0802,0.26536 0.111394,0.3943 0.02956,0.1218 0.05391,0.2417 0.07311,0.35943 0.0236,0.14867 0.03913,0.29533 0.0467,0.43924 0.01033,0.22055 0.002,0.44418 -0.02583,0.66783 -0.0403,0.31643 -0.123472,0.66076 -0.258731,1.02764 -0.138112,0.37484 -0.330019,0.77664 -0.584541,1.20872 -0.289906,0.49127 -0.646538,0.99934 -1.075511,1.53635 -0.481671,0.60204 -1.027722,1.2076 -1.642997,1.84077 -0.784484,0.80577 -1.625744,1.59944 -2.553775,2.45845 -0.766471,0.71002 -1.66136,1.52631 -2.502666,2.3268 -0.648007,0.61799 -1.336751,1.29406 -2.016613,2.02341 -0.561674,0.60393 -1.154156,1.2828 -1.723394,2.03848 -0.511198,0.6801 -1.045857,1.47684 -1.513023,2.39003 -0.424819,0.83157 -0.821241,1.81595 -1.059981,2.93065 -0.188407,0.88608 -0.275003,1.81516 -0.233697,2.7655 0.03905,0.91136 0.196016,1.8169 0.46305,2.68789 0.290216,0.94995 0.704407,1.83454 1.201038,2.63469 0.552104,0.89079 1.20474,1.67582 1.905284,2.35444 0.784933,0.76073 1.643651,1.4025 2.534885,1.93282 1.01217,0.60233 2.090825,1.0766 3.206496,1.41749 1.083181,0.33048 2.226424,0.54313 3.403675,0.60667 1.03295,0.0552 2.109738,-0.004 3.195141,-0.21392 l -0.01425,0.003 c 0.457355,-0.0889 0.860681,-0.19922 1.136523,-0.27751 1.165355,-0.32176 2.286171,-0.74057 3.355978,-1.2387 1.188392,-0.5525 2.303673,-1.19779 3.343495,-1.89698 1.127374,-0.75759 2.17042,-1.58058 3.137592,-2.42523 1.054343,-0.92057 2.032795,-1.87878 2.948636,-2.83343 1.1093,-1.15567 2.153282,-2.3339 3.142117,-3.47176 1.208008,-1.38912 2.271316,-2.646 3.412926,-3.92202 0.78864,-0.88256 1.56109,-1.71312 2.34751,-2.4896 0.68505,-0.67671 1.36395,-1.29545 2.05255,-1.85069 0.94135,-0.75729 1.89917,-1.50216 2.87174,-2.2358 1.84001,-1.38414 3.72635,-2.72375 5.65199,-4.02703 0.25146,-0.17376 0.50516,-0.34758 0.76414,-0.52443 0.003,-0.002 0.007,-0.004 0.01,-0.007 0.40439,-0.27523 0.78208,-0.55139 1.12514,-0.80914 0.30664,-0.23044 0.56586,-0.43065 0.78063,-0.58969 0.24073,-0.17785 0.3586,-0.25481 0.43845,-0.30399 0.0439,-0.0283 0.0613,-0.0377 0.0509,-0.0374 -0.007,-0.001 0.007,-0.0105 0.0408,-0.0197 0.062,-0.0145 0.18127,-0.0314 0.3788,-0.0355 0.003,-7e-5 0.006,-2.1e-4 0.009,-2.9e-4 0.003,-9e-5 0.006,0 0.009,1.9e-4 -0.0442,-0.003 -0.13799,-0.0106 -0.2661,-0.0438 -0.13405,-0.0345 -0.28508,-0.0932 -0.44052,-0.18506 -0.14901,-0.0879 -0.26832,-0.18946 -0.36005,-0.28826 -0.10016,-0.10733 -0.14832,-0.19423 -0.16707,-0.23566 -0.0167,-0.0372 -0.0105,-0.047 0.008,0.008 0.0186,0.0586 0.0376,0.15269 0.0438,0.2805 0.006,0.14271 -0.005,0.29147 -0.0335,0.43672 -0.0264,0.13512 -0.0626,0.23877 -0.0946,0.31077 -0.1464,0.30053 -0.2722,0.58715 -0.37948,0.84403 -0.27616,0.64846 -0.4755,1.19172 -0.64447,1.61413 -0.10181,0.25822 -0.17628,0.43644 -0.24433,0.58391 -0.002,0.004 -0.004,0.008 -0.005,0.0122 -0.002,0.004 -0.004,0.008 -0.006,0.0118 0.02,-0.0336 0.0457,-0.0737 0.0782,-0.11814 -0.007,0.0167 -0.085,0.13359 -0.25809,0.3335 l 0.009,-0.0105 c -0.25559,0.29111 -0.56068,0.59824 -0.94433,0.96255 -0.43971,0.41573 -0.91056,0.83587 -1.41852,1.28025 -0.72574,0.63231 -1.44908,1.24544 -2.2243,1.90986 -1.07412,0.91857 -2.19313,1.88637 -3.2928,2.90836 -0.7439,0.69339 -1.49886,1.42932 -2.23603,2.21643 -0.59648,0.63857 -1.20226,1.3322 -1.7814,2.08853 -0.52316,0.68504 -1.06025,1.46565 -1.5363,2.34629 -0.41967,0.77951 -0.83738,1.71916 -1.1036,2.7992 -0.14233,0.58563 -0.2429,1.22515 -0.2661,1.90679 -0.006,0.24149 -0.002,0.48734 0.0124,0.73606 0.0119,0.18634 0.0299,0.37352 0.0544,0.56101 0.0246,0.18854 0.0556,0.3767 0.0931,0.56399 0.002,0.009 0.003,0.0178 0.004,0.0268 0.001,0.009 0.003,0.0178 0.006,0.0264 0.009,0.0268 0.0173,0.0536 0.0258,0.0802 0.006,0.0173 0.009,0.0352 0.0106,0.0532 0.002,0.018 0.005,0.0359 0.0113,0.053 0.009,0.0267 0.0185,0.0532 0.0277,0.0797 0.006,0.0172 0.01,0.035 0.0118,0.0531 0.002,0.018 0.006,0.0358 0.0126,0.0529 0.01,0.0265 0.0197,0.0529 0.0295,0.0792 0.006,0.0171 0.0104,0.0349 0.0131,0.0529 0.003,0.018 0.007,0.0357 0.0138,0.0526 0.0105,0.0264 0.021,0.0526 0.0314,0.0788 0.007,0.0169 0.0112,0.0346 0.0143,0.0525 0.003,0.0179 0.008,0.0356 0.015,0.0523 0.0111,0.0262 0.0222,0.0523 0.0332,0.0783 0.007,0.0167 0.012,0.0343 0.0155,0.0522 0.004,0.0178 0.009,0.0353 0.0162,0.0519 0.0118,0.0261 0.0235,0.052 0.0351,0.0778 0.007,0.0166 0.0127,0.034 0.0167,0.0517 0.004,0.0177 0.01,0.035 0.0174,0.0514 0.0124,0.0259 0.0247,0.0517 0.037,0.0773 0.008,0.0163 0.0135,0.0335 0.0178,0.0511 0.004,0.0175 0.0104,0.0347 0.0185,0.0508 0.013,0.0258 0.026,0.0514 0.0389,0.0769 0.008,0.0161 0.0142,0.0331 0.0189,0.0504 0.005,0.0174 0.0112,0.0343 0.0196,0.0501 0.0137,0.0256 0.0273,0.0511 0.0408,0.0764 0.008,0.0158 0.0148,0.0326 0.02,0.0497 0.005,0.0171 0.0119,0.0338 0.0207,0.0494 0.0143,0.0255 0.0285,0.0508 0.0426,0.0759 0.009,0.0155 0.0155,0.032 0.021,0.0489 0.006,0.0169 0.0126,0.0333 0.0217,0.0486 0.015,0.0253 0.0298,0.0505 0.0446,0.0755 0.009,0.0152 0.0161,0.0314 0.022,0.048 0.006,0.0166 0.0133,0.0327 0.0226,0.0477 0.0156,0.0252 0.0311,0.0502 0.0465,0.075 0.009,0.0149 0.0166,0.0308 0.0229,0.0471 0.006,0.0163 0.014,0.0321 0.0235,0.0468 0.0163,0.025 0.0324,0.0499 0.0484,0.0746 0.009,0.0145 0.0171,0.0301 0.0237,0.0461 0.007,0.016 0.0146,0.0314 0.0243,0.0458 0.0169,0.0249 0.0337,0.0496 0.0503,0.0742 0.01,0.0142 0.0176,0.0294 0.0245,0.0451 0.007,0.0157 0.0152,0.0308 0.0251,0.0447 0.0176,0.0248 0.035,0.0494 0.0522,0.0737 0.01,0.0138 0.018,0.0287 0.0252,0.044 0.007,0.0153 0.0157,0.03 0.0258,0.0436 0.0182,0.0247 0.0363,0.0491 0.0542,0.0733 0.01,0.0135 0.0183,0.0279 0.0258,0.0429 0.007,0.0149 0.0162,0.0293 0.0264,0.0425 0.0189,0.0245 0.0376,0.0488 0.0561,0.0729 0.01,0.0131 0.0187,0.0272 0.0264,0.0417 0.008,0.0146 0.0166,0.0285 0.0269,0.0414 0.0196,0.0244 0.0389,0.0486 0.058,0.0725 0.0101,0.0127 0.019,0.0264 0.0269,0.0405 0.008,0.0142 0.017,0.0277 0.0274,0.0402 0.0203,0.0243 0.0403,0.0484 0.06,0.0721 0.0102,0.0123 0.0192,0.0256 0.0273,0.0393 0.008,0.0138 0.0173,0.0269 0.0278,0.039 0.0209,0.0242 0.0416,0.0481 0.062,0.0718 0.0103,0.0119 0.0194,0.0248 0.0277,0.0382 0.008,0.0133 0.0177,0.0261 0.0282,0.0378 0.0216,0.0241 0.0429,0.0479 0.0639,0.0714 0.0103,0.0115 0.0195,0.024 0.028,0.0369 0.009,0.0129 0.0179,0.0252 0.0285,0.0366 0.0223,0.024 0.0443,0.0477 0.0659,0.0711 0.0103,0.0112 0.0196,0.0232 0.0283,0.0357 0.009,0.0125 0.0182,0.0244 0.0287,0.0354 0.023,0.024 0.0456,0.0476 0.0678,0.0708 0.0103,0.0108 0.0197,0.0224 0.0284,0.0345 0.009,0.0121 0.0183,0.0235 0.0289,0.0341 0.0237,0.0239 0.047,0.0474 0.0698,0.0706 0.0103,0.0104 0.0197,0.0217 0.0286,0.0333 0.009,0.0116 0.0185,0.0227 0.029,0.0329 0.0244,0.0239 0.0483,0.0473 0.0717,0.0704 0.0102,0.0101 0.0197,0.0209 0.0287,0.0321 0.009,0.0112 0.0186,0.0219 0.029,0.0318 0.0251,0.0239 0.0497,0.0473 0.0736,0.0702 0.005,0.005 0.01,0.01 0.0146,0.0153 0.005,0.005 0.009,0.0106 0.0142,0.0157 0.13482,0.14045 0.26809,0.27102 0.39758,0.39197 0.14226,0.133 0.28183,0.2561 0.41632,0.36954 0.13538,0.1143 0.26751,0.22038 0.39443,0.31843 0.0131,0.0101 0.0261,0.0201 0.0391,0.0301 0.20416,0.15713 0.40603,0.30206 0.60265,0.4357 l -0.0196,-0.0136 c 0.25084,0.17285 0.54549,0.35968 0.8812,0.53763 l -0.01,-0.005 c 0.64334,0.34406 1.30846,0.59127 1.96778,0.75457 0.74036,0.18407 1.45559,0.25769 2.10509,0.26728 0.75434,0.0113 1.45162,-0.0625 2.05971,-0.16517 0.73275,-0.1239 1.40288,-0.30057 1.98486,-0.47927 0.8028,-0.2468 1.54697,-0.53214 2.17025,-0.78121 0.48538,-0.1938 0.85123,-0.34706 1.33758,-0.54125 0.28302,-0.11214 0.49836,-0.19345 0.69057,-0.25818 1.08023,-0.35863 2.10976,-0.75854 3.0856,-1.18665 1.589,-0.69717 3.06695,-1.48298 4.42591,-2.30833 1.61795,-0.98244 3.09381,-2.03666 4.4221,-3.08951 1.58273,-1.25449 3.00624,-2.54642 4.26268,-3.77942 1.54306,-1.51448 2.92011,-3.02459 4.1039,-4.39495 1.57715,-1.8261 2.98896,-3.6117 4.12388,-5.08923 a 4.4536188,4.4536188 90 0 0 -7.06386,-5.42592 z"
         id="path-1"
         inkscape:path-effect="#path-effect10;#path-effect11"
         inkscape:original-d="m 138.84749,119.19926 c -6.07842,7.91388 -12.89658,15.21455 -22.26799,18.33835 -2.47595,0.82532 -6.38509,3.16594 -9.16918,1.30988 -8.874365,-5.91624 10.03861,-16.14756 12.22557,-20.52148 0.46587,-0.93174 0.83043,-2.09749 1.30988,-3.05639 1.4771,-2.9542 0.50031,-7.42267 -3.05639,-7.42267 -2.71635,0 -3.50138,1.16992 -5.67615,2.61977 -3.14953,2.09968 -6.42584,4.44206 -9.60581,6.98603 -7.393138,5.91452 -12.708931,16.82184 -22.26799,19.21161 -4.85802,1.2145 -11.080138,-2.67075 -10.042429,-7.8593 1.49441,-7.47204 19.039376,-13.7477 14.408702,-25.32438 -0.908693,-2.27173 -6.326092,-3.10306 -7.859292,-2.18314 -6.582345,3.94941 -17.001998,23.05922 -25.324385,21.39474 -0.998942,-0.19979 -1.959698,-1.52307 -2.619764,-2.18314 -4.102072,-4.10207 2.951131,-13.86681 6.112782,-17.02846"
         style="fill:#6eb4ff;fill-opacity:1;fill-rule:nonzero;stroke:none;stroke-width:0;stroke-linecap:round;stroke-linejoin:round;stroke-dashoffset:2.26772"
         transform="matrix(1,0,0,0.61069591,-4.0408273,53.787074)" />
    </g>
    <path
       style="fill:#f05064;fill-opacity:1;stroke-width:0;stroke-linecap:round;stroke-linejoin:round;stroke-dashoffset:2.26772"
       id="path11"
       d="m 105.09022,73.49339 c 0.90129,-0.645369 1.80975,-1.297972 2.64582,-2.029265 1.28978,-1.207061 2.30021,-2.64289 3.28414,-4.097782 0.41199,-0.681179 0.89902,-1.333058 1.22594,-2.063529 0.32963,-0.736511 0.54426,-1.540795 0.76168,-2.31526 0.19235,-1.183371 0.67219,-2.388806 0.54767,-3.608526 -0.0263,-0.25798 -0.10217,-0.508477 -0.15326,-0.762716 -0.39533,-1.543311 -1.40412,-2.703561 -2.51656,-3.786124 -2.76859,-2.458962 -6.67447,-4.124158 -9.61953,-5.749085 -0.47332,-0.261153 -1.439533,-0.389354 -1.979803,-0.456817 -1.57992,-0.209931 -2.64066,0.200835 -4.04378,0.837852 -1.35546,0.654715 -2.52492,1.597019 -3.643402,2.589315 -0.907847,0.79949 -1.701442,1.736751 -2.31315,2.780389 -0.565389,0.891164 -0.983628,1.856609 -1.66455,2.670016 -0.137735,0.150644 -0.272013,0.307746 -0.433071,0.43477 -0.02359,0.01861 -0.08126,0.08045 -0.07415,0.05126 0.03054,-0.125378 0.03448,-0.417456 0.148711,-0.357425 3.054272,1.605095 5.984732,3.435506 8.977092,5.153259 -0.4017,-0.363115 -0.18599,-1.669416 -0.18244,-2.173368 -0.002,-0.765938 0.0553,-1.567374 -0.12374,-2.321091 -0.11277,-0.474678 -0.22878,-0.670504 -0.42998,-1.106781 -0.67579,-1.190942 -1.73142,-2.080313 -2.773212,-2.940074 -3.160493,-2.331188 -1.596386,-1.21062 -9.370356,-5.346033 -0.448346,-0.238501 -1.888603,-0.218761 -2.376428,-0.135982 -0.299068,0.05075 -0.582812,0.168512 -0.874219,0.252768 -2.042619,0.6675 -3.568923,2.090119 -4.967244,3.658662 -1.363714,1.733103 -2.584383,3.61432 -3.490612,5.627384 -0.85408,2.116166 -1.050987,4.382334 -1.099044,6.640234 -0.0021,0.391689 -0.0047,0.783376 -0.0064,1.175067 -0.0032,0.737423 -0.02163,1.502943 0.04538,2.23896 0.108449,1.19107 0.392238,2.359684 0.646072,3.52522 0.339379,1.484245 0.716539,2.967236 1.295596,4.37944 0.370636,0.903906 0.585771,1.259925 1.041342,2.121058 1.256128,2.135657 2.957195,3.929573 4.806164,5.555813 0.842944,0.737122 1.736651,1.426917 2.714141,1.978659 6.514276,3.676965 6.664505,4.739336 11.473963,5.709897 0.769987,0.03905 1.446597,0.118552 2.214467,-0.0221 1.57096,-0.287756 3.0347,-1.136946 4.38023,-1.948604 1.724083,-1.282863 3.471493,-2.551977 4.904663,-4.163378 1.07749,-1.151891 2.21062,-2.255559 3.45906,-3.221144 0.99001,-0.753547 2.13059,-1.275303 3.30157,-1.678683 0.40957,-0.102531 0.95669,-0.35046 1.3135,0.02561 0.0767,0.08089 0.27561,0.337286 0.17815,0.283113 -2.97046,-1.651176 -5.88806,-3.395694 -8.83209,-5.09354 0.89226,0.608788 1.0365,1.705935 1.13887,2.703397 0.11018,1.020307 -0.12597,2.004129 -0.31542,2.995475 -0.0731,0.426244 -0.11463,0.858442 0.0513,1.27288 0.10073,0.251564 0.42799,0.734561 0.66212,0.87064 3.19258,1.855549 6.43872,3.617366 9.65807,5.426049 1.52423,0.195279 2.67688,-0.416358 3.93859,-1.172919 1.28908,-0.884761 2.35506,-2.031488 3.36507,-3.214401 0.8807,-1.256354 1.87056,-2.438638 3.0392,-3.435674 1.21171,-0.796047 2.13766,-1.168258 3.5987,-1.01457 0.18699,0.05359 0.38284,0.08262 0.56096,0.160777 0.16783,0.07364 0.62684,0.379923 0.46699,0.290253 -2.91523,-1.635364 -5.82283,-3.284324 -8.73362,-4.927589 -0.11283,-0.0637 0.23283,0.11568 0.33973,0.188886 0.36364,0.249002 0.31234,0.257745 0.54781,0.639538 0.33131,0.943343 0.0941,1.929042 -0.0839,2.878771 -0.19107,0.878329 -0.10582,1.93109 0.77112,2.432475 3.21053,1.835602 6.46085,3.60072 9.69128,5.401079 0.95965,0.08156 1.98697,0.09583 2.9291,-0.148299 0.37672,-0.09762 1.26881,-0.450599 1.62903,-0.5884 1.7911,-0.759091 2.99712,-1.950952 4.20509,-3.429166 0.85288,-1.077843 1.61082,-2.219827 2.77331,-2.988542 0.88971,-0.411381 1.61662,-0.469607 2.55682,-0.242713 0.1103,0.0259 0.22718,0.0321 0.33091,0.0777 0.17423,0.07658 0.58644,0.479605 0.42079,0.385902 -3.04837,-1.761123 -6.09673,-3.522246 -9.14509,-5.28337 0.30797,0.160892 0.17536,0.06509 0.40565,0.276221 0.32455,0.416123 0.57479,0.856451 0.99292,1.188011 0.39343,0.406533 0.80526,0.794512 1.17524,1.226182 0.37756,0.528641 0.70346,1.094308 1.00707,1.66724 0.36023,0.722086 1.50013,1.052701 2.06511,1.34096 1.0633,0.542511 2.12719,1.083895 3.19078,1.625843 0,0 0.27098,0.134136 0.27098,0.134136 v 0 c 1.0559,0.47587 2.10675,0.963106 3.1677,1.427611 0.49312,0.215901 0.98422,0.440251 1.49394,0.613354 0.0649,0.02204 0.15417,0.01154 0.20223,-0.03734 0.11412,-0.116092 -0.1079,-0.498226 -0.17521,-0.580375 -0.39622,-0.597955 -0.82085,-1.16482 -1.18559,-1.785377 -0.24284,-0.528522 -0.53603,-1.055758 -1.02347,-1.396002 -0.3296,-0.427611 -0.80972,-0.571716 -1.03475,-1.099996 -0.0585,-0.0886 -0.11931,-0.175687 -0.17543,-0.265802 -0.0613,-0.09848 -0.0775,-0.239761 -0.17679,-0.299814 -6.16681,-3.730649 -6.27987,-5.710901 -10.55707,-5.657493 -1.00809,0.120995 -2.00654,0.408675 -2.81111,1.052506 -1.00459,0.997991 -1.67073,2.254262 -2.4721,3.411271 -1.11646,1.386809 -2.29653,2.276223 -3.97778,2.897689 -1.51354,0.452584 -2.96099,0.569228 -4.4451,-0.08254 2.88088,1.665192 5.78146,3.296737 8.64263,4.995576 0.25423,0.15095 -0.581,-0.143294 -0.83912,-0.287488 -0.40143,-0.224255 -0.47069,-0.568782 -0.47182,-1.001687 0.11846,-1.116148 0.41762,-2.222596 0.29785,-3.351088 -0.0786,-0.445965 -0.1221,-1.22511 -0.57943,-1.49506 -3.55904,-2.100773 -6.60312,-5.625359 -10.73572,-5.499801 -1.44805,0.211775 -2.8136,0.704211 -3.92012,1.695385 -1.1324,1.091929 -1.98407,2.419468 -3.00781,3.609334 -0.94855,1.123428 -2.04279,2.080191 -3.31388,2.830343 -1.12048,0.622871 -2.29416,0.887861 -3.50296,0.312664 2.85994,1.663083 5.73819,3.295071 8.57982,4.98925 0.12415,0.07402 -0.28292,-0.06592 -0.41612,-0.122055 -0.21525,-0.09071 -0.58024,-0.303716 -0.63693,-0.560512 -0.026,-0.117593 -0.002,-0.24084 -0.003,-0.36126 -0.0268,-1.109614 -0.0215,-2.213453 0.0672,-3.320877 -0.0855,-1.138907 -0.14603,-2.305226 -0.62704,-3.360875 -3.14131,-1.869171 -6.24888,-3.79625 -9.42394,-5.607515 -0.14538,-0.08293 -0.6441,0.03263 -0.78716,0.07761 -0.36656,0.115251 -0.69695,0.325346 -1.02816,0.513115 -1.11179,0.600073 -2.193543,1.249307 -3.129963,2.108728 -1.25663,1.034864 -2.41508,2.158995 -3.39892,3.462631 -1.32691,1.518751 -2.691569,3.038074 -4.432451,4.09621 -2.148292,1.23067 -3.774603,1.762411 -6.266382,1.306671 -3.868639,-1.043911 -5.741963,-2.908527 5.222171,3.610918 0.321825,0.191362 -0.664554,-0.345846 -0.987568,-0.535195 -0.962042,-0.563941 -1.006146,-0.640929 -1.899979,-1.322281 -1.824961,-1.54359 -3.654162,-3.146069 -4.891793,-5.221748 -0.401975,-0.703428 -0.736477,-1.249182 -1.069608,-1.988501 -0.618452,-1.372537 -0.981951,-2.844822 -1.403369,-4.284165 -0.54805,-2.23944 -0.972739,-4.534566 -1.046395,-6.841614 0.111725,-2.145408 0.117921,-4.343744 0.831079,-6.393969 0.814473,-1.959964 1.89036,-3.777612 3.256952,-5.408856 1.389789,-1.453613 2.793888,-2.635269 4.827399,-3.036349 0.836306,-0.05206 1.580166,-0.06637 2.392723,0.180442 0.244056,0.07413 0.932579,0.406408 0.714268,0.274502 -5.399513,-3.262436 -10.321719,-5.891699 -6.993182,-4.107662 1.008343,0.72486 2.008106,1.506282 2.760522,2.504233 0.64845,0.976743 0.851638,1.717447 0.79629,2.902821 -0.136264,0.742654 -0.249638,1.489165 -0.544247,2.190185 4.215253,2.47142 7.52128,8.444264 9.2157,4.911295 0.10151,-0.211671 0.0707,-0.500941 0.20864,-0.70219 0.36049,-0.970742 0.83742,-1.903905 1.37055,-2.78991 0.6448,-0.920995 1.28221,-1.849643 2.03082,-2.691156 0.932293,-1.001393 2.016433,-1.812138 3.252553,-2.409612 1.23964,-0.439538 2.49489,-0.669079 3.79985,-0.35918 0.38747,0.100282 0.78032,0.189063 1.15469,0.334539 0.20154,0.07831 0.7776,0.376119 0.5918,0.265533 -12.915983,-7.687686 -8.720653,-5.22055 -6.03842,-3.469583 1.08803,0.914297 2.09475,1.891227 2.62172,3.243717 0.0613,0.188716 0.14312,0.371962 0.18391,0.566147 0.23892,1.137354 -0.002,2.346626 -0.2734,3.449083 -0.33224,1.491806 -0.93723,2.876472 -1.74058,4.178534 -0.86626,1.411208 -1.84379,2.800689 -3.19659,3.786684 -0.974333,0.648183 -1.973953,1.248557 -3.059413,1.692922 z" />
  </g>
</svg>
